M48
;GenerationSoftware,Autodesk,EAGLE,9.7.0*%
;CreationDate,2025-06-14T07:53:31Z*%
FMAT,2
ICI,OFF
METRIC,TZ,000.000
T4C0.300
T3C0.500
T2C1.016
T1C5.000
%
G90
M71
T1
X17500Y20500
T2
X14500Y2500
X10000Y2500
X4460Y20750
X7000Y20750
X9540Y20750
X23750Y10540
X23750Y8000
X23750Y5460
X5296Y1704
X3500Y3500
X1704Y5296
T3
X12700Y15600
X11500Y4300
T4
X13700Y6200
X7500Y10500
X7800Y5600
X20500Y8000
X15600Y7500
X17600Y6400
X12400Y11000
X3900Y8000
X14800Y13200
M30