G04 EAGLE Gerber RS-274X export*
G75*
%MOMM*%
%FSLAX34Y34*%
%LPD*%
%INSilkscreen Bottom*%
%IPPOS*%
%AMOC8*
5,1,8,0,0,1.08239X$1,22.5*%
G01*
G04 Define Apertures*
%ADD10C,0.200000*%
%ADD11C,0.279400*%
%ADD12C,0.203200*%
%ADD13C,0.127000*%
D10*
X145000Y205000D02*
X145009Y205736D01*
X145036Y206472D01*
X145081Y207207D01*
X145144Y207941D01*
X145226Y208672D01*
X145325Y209402D01*
X145442Y210129D01*
X145576Y210853D01*
X145729Y211573D01*
X145899Y212289D01*
X146087Y213001D01*
X146292Y213709D01*
X146514Y214410D01*
X146754Y215107D01*
X147010Y215797D01*
X147284Y216481D01*
X147574Y217157D01*
X147880Y217827D01*
X148203Y218488D01*
X148542Y219142D01*
X148897Y219787D01*
X149268Y220423D01*
X149654Y221050D01*
X150056Y221667D01*
X150472Y222274D01*
X150904Y222871D01*
X151350Y223457D01*
X151810Y224032D01*
X152284Y224595D01*
X152771Y225147D01*
X153273Y225686D01*
X153787Y226213D01*
X154314Y226727D01*
X154853Y227229D01*
X155405Y227716D01*
X155968Y228190D01*
X156543Y228650D01*
X157129Y229096D01*
X157726Y229528D01*
X158333Y229944D01*
X158950Y230346D01*
X159577Y230732D01*
X160213Y231103D01*
X160858Y231458D01*
X161512Y231797D01*
X162173Y232120D01*
X162843Y232426D01*
X163519Y232716D01*
X164203Y232990D01*
X164893Y233246D01*
X165590Y233486D01*
X166291Y233708D01*
X166999Y233913D01*
X167711Y234101D01*
X168427Y234271D01*
X169147Y234424D01*
X169871Y234558D01*
X170598Y234675D01*
X171328Y234774D01*
X172059Y234856D01*
X172793Y234919D01*
X173528Y234964D01*
X174264Y234991D01*
X175000Y235000D01*
X175736Y234991D01*
X176472Y234964D01*
X177207Y234919D01*
X177941Y234856D01*
X178672Y234774D01*
X179402Y234675D01*
X180129Y234558D01*
X180853Y234424D01*
X181573Y234271D01*
X182289Y234101D01*
X183001Y233913D01*
X183709Y233708D01*
X184410Y233486D01*
X185107Y233246D01*
X185797Y232990D01*
X186481Y232716D01*
X187157Y232426D01*
X187827Y232120D01*
X188488Y231797D01*
X189142Y231458D01*
X189787Y231103D01*
X190423Y230732D01*
X191050Y230346D01*
X191667Y229944D01*
X192274Y229528D01*
X192871Y229096D01*
X193457Y228650D01*
X194032Y228190D01*
X194595Y227716D01*
X195147Y227229D01*
X195686Y226727D01*
X196213Y226213D01*
X196727Y225686D01*
X197229Y225147D01*
X197716Y224595D01*
X198190Y224032D01*
X198650Y223457D01*
X199096Y222871D01*
X199528Y222274D01*
X199944Y221667D01*
X200346Y221050D01*
X200732Y220423D01*
X201103Y219787D01*
X201458Y219142D01*
X201797Y218488D01*
X202120Y217827D01*
X202426Y217157D01*
X202716Y216481D01*
X202990Y215797D01*
X203246Y215107D01*
X203486Y214410D01*
X203708Y213709D01*
X203913Y213001D01*
X204101Y212289D01*
X204271Y211573D01*
X204424Y210853D01*
X204558Y210129D01*
X204675Y209402D01*
X204774Y208672D01*
X204856Y207941D01*
X204919Y207207D01*
X204964Y206472D01*
X204991Y205736D01*
X205000Y205000D01*
X204991Y204264D01*
X204964Y203528D01*
X204919Y202793D01*
X204856Y202059D01*
X204774Y201328D01*
X204675Y200598D01*
X204558Y199871D01*
X204424Y199147D01*
X204271Y198427D01*
X204101Y197711D01*
X203913Y196999D01*
X203708Y196291D01*
X203486Y195590D01*
X203246Y194893D01*
X202990Y194203D01*
X202716Y193519D01*
X202426Y192843D01*
X202120Y192173D01*
X201797Y191512D01*
X201458Y190858D01*
X201103Y190213D01*
X200732Y189577D01*
X200346Y188950D01*
X199944Y188333D01*
X199528Y187726D01*
X199096Y187129D01*
X198650Y186543D01*
X198190Y185968D01*
X197716Y185405D01*
X197229Y184853D01*
X196727Y184314D01*
X196213Y183787D01*
X195686Y183273D01*
X195147Y182771D01*
X194595Y182284D01*
X194032Y181810D01*
X193457Y181350D01*
X192871Y180904D01*
X192274Y180472D01*
X191667Y180056D01*
X191050Y179654D01*
X190423Y179268D01*
X189787Y178897D01*
X189142Y178542D01*
X188488Y178203D01*
X187827Y177880D01*
X187157Y177574D01*
X186481Y177284D01*
X185797Y177010D01*
X185107Y176754D01*
X184410Y176514D01*
X183709Y176292D01*
X183001Y176087D01*
X182289Y175899D01*
X181573Y175729D01*
X180853Y175576D01*
X180129Y175442D01*
X179402Y175325D01*
X178672Y175226D01*
X177941Y175144D01*
X177207Y175081D01*
X176472Y175036D01*
X175736Y175009D01*
X175000Y175000D01*
X174264Y175009D01*
X173528Y175036D01*
X172793Y175081D01*
X172059Y175144D01*
X171328Y175226D01*
X170598Y175325D01*
X169871Y175442D01*
X169147Y175576D01*
X168427Y175729D01*
X167711Y175899D01*
X166999Y176087D01*
X166291Y176292D01*
X165590Y176514D01*
X164893Y176754D01*
X164203Y177010D01*
X163519Y177284D01*
X162843Y177574D01*
X162173Y177880D01*
X161512Y178203D01*
X160858Y178542D01*
X160213Y178897D01*
X159577Y179268D01*
X158950Y179654D01*
X158333Y180056D01*
X157726Y180472D01*
X157129Y180904D01*
X156543Y181350D01*
X155968Y181810D01*
X155405Y182284D01*
X154853Y182771D01*
X154314Y183273D01*
X153787Y183787D01*
X153273Y184314D01*
X152771Y184853D01*
X152284Y185405D01*
X151810Y185968D01*
X151350Y186543D01*
X150904Y187129D01*
X150472Y187726D01*
X150056Y188333D01*
X149654Y188950D01*
X149268Y189577D01*
X148897Y190213D01*
X148542Y190858D01*
X148203Y191512D01*
X147880Y192173D01*
X147574Y192843D01*
X147284Y193519D01*
X147010Y194203D01*
X146754Y194893D01*
X146514Y195590D01*
X146292Y196291D01*
X146087Y196999D01*
X145899Y197711D01*
X145729Y198427D01*
X145576Y199147D01*
X145442Y199871D01*
X145325Y200598D01*
X145226Y201328D01*
X145144Y202059D01*
X145081Y202793D01*
X145036Y203528D01*
X145009Y204264D01*
X145000Y205000D01*
X205000Y205000D02*
X205000Y140000D01*
D11*
X189793Y162173D02*
X189693Y162175D01*
X189594Y162181D01*
X189494Y162191D01*
X189396Y162204D01*
X189297Y162222D01*
X189200Y162243D01*
X189104Y162268D01*
X189008Y162297D01*
X188914Y162330D01*
X188821Y162366D01*
X188730Y162406D01*
X188640Y162450D01*
X188552Y162497D01*
X188466Y162547D01*
X188382Y162601D01*
X188300Y162658D01*
X188221Y162718D01*
X188143Y162782D01*
X188069Y162848D01*
X187997Y162917D01*
X187928Y162989D01*
X187862Y163063D01*
X187798Y163141D01*
X187738Y163220D01*
X187681Y163302D01*
X187627Y163386D01*
X187577Y163472D01*
X187530Y163560D01*
X187486Y163650D01*
X187446Y163741D01*
X187410Y163834D01*
X187377Y163928D01*
X187348Y164024D01*
X187323Y164120D01*
X187302Y164217D01*
X187284Y164316D01*
X187271Y164414D01*
X187261Y164514D01*
X187255Y164613D01*
X187253Y164713D01*
X189793Y162173D02*
X189934Y162175D01*
X190075Y162180D01*
X190216Y162190D01*
X190357Y162203D01*
X190497Y162219D01*
X190637Y162240D01*
X190776Y162264D01*
X190915Y162292D01*
X191052Y162323D01*
X191189Y162358D01*
X191325Y162396D01*
X191460Y162438D01*
X191593Y162484D01*
X191726Y162533D01*
X191857Y162586D01*
X191986Y162642D01*
X192115Y162701D01*
X192241Y162764D01*
X192366Y162830D01*
X192489Y162899D01*
X192610Y162972D01*
X192729Y163048D01*
X192847Y163127D01*
X192962Y163208D01*
X193074Y163293D01*
X193185Y163381D01*
X193293Y163472D01*
X193399Y163565D01*
X193502Y163662D01*
X193603Y163761D01*
X193286Y171063D02*
X193284Y171163D01*
X193278Y171262D01*
X193268Y171362D01*
X193255Y171460D01*
X193237Y171559D01*
X193216Y171656D01*
X193191Y171752D01*
X193162Y171848D01*
X193129Y171942D01*
X193093Y172035D01*
X193053Y172126D01*
X193009Y172216D01*
X192962Y172304D01*
X192912Y172390D01*
X192858Y172474D01*
X192801Y172556D01*
X192741Y172635D01*
X192677Y172713D01*
X192611Y172787D01*
X192542Y172859D01*
X192470Y172928D01*
X192396Y172994D01*
X192318Y173058D01*
X192239Y173118D01*
X192157Y173175D01*
X192073Y173229D01*
X191987Y173279D01*
X191899Y173326D01*
X191809Y173370D01*
X191718Y173410D01*
X191625Y173446D01*
X191531Y173479D01*
X191435Y173508D01*
X191339Y173533D01*
X191242Y173554D01*
X191143Y173572D01*
X191045Y173585D01*
X190945Y173595D01*
X190846Y173601D01*
X190746Y173603D01*
X190746Y173604D02*
X190613Y173602D01*
X190480Y173597D01*
X190347Y173587D01*
X190214Y173574D01*
X190082Y173557D01*
X189950Y173537D01*
X189819Y173513D01*
X189689Y173485D01*
X189559Y173454D01*
X189431Y173419D01*
X189303Y173380D01*
X189177Y173338D01*
X189052Y173292D01*
X188928Y173243D01*
X188805Y173191D01*
X188684Y173135D01*
X188565Y173075D01*
X188447Y173013D01*
X188332Y172947D01*
X188218Y172878D01*
X188106Y172805D01*
X187996Y172730D01*
X187888Y172651D01*
X192016Y168840D02*
X192100Y168892D01*
X192183Y168947D01*
X192263Y169006D01*
X192341Y169067D01*
X192416Y169131D01*
X192489Y169199D01*
X192560Y169269D01*
X192627Y169341D01*
X192692Y169416D01*
X192754Y169494D01*
X192813Y169574D01*
X192869Y169656D01*
X192921Y169740D01*
X192970Y169826D01*
X193016Y169914D01*
X193059Y170004D01*
X193098Y170095D01*
X193133Y170188D01*
X193165Y170282D01*
X193193Y170377D01*
X193218Y170473D01*
X193238Y170570D01*
X193256Y170668D01*
X193269Y170766D01*
X193278Y170865D01*
X193284Y170964D01*
X193286Y171063D01*
X188523Y166936D02*
X188439Y166884D01*
X188356Y166829D01*
X188276Y166770D01*
X188198Y166709D01*
X188123Y166645D01*
X188050Y166577D01*
X187979Y166507D01*
X187912Y166435D01*
X187847Y166360D01*
X187785Y166282D01*
X187726Y166202D01*
X187670Y166120D01*
X187618Y166036D01*
X187569Y165950D01*
X187523Y165862D01*
X187480Y165772D01*
X187441Y165681D01*
X187406Y165588D01*
X187374Y165494D01*
X187346Y165399D01*
X187321Y165303D01*
X187301Y165206D01*
X187283Y165108D01*
X187270Y165010D01*
X187261Y164911D01*
X187255Y164812D01*
X187253Y164713D01*
X188523Y166936D02*
X192016Y168841D01*
X180906Y169793D02*
X180906Y158363D01*
X180906Y169793D02*
X177731Y169793D01*
X177646Y169791D01*
X177560Y169785D01*
X177475Y169776D01*
X177391Y169762D01*
X177307Y169745D01*
X177224Y169724D01*
X177142Y169700D01*
X177062Y169672D01*
X176982Y169640D01*
X176904Y169604D01*
X176828Y169566D01*
X176754Y169523D01*
X176682Y169478D01*
X176611Y169429D01*
X176543Y169377D01*
X176478Y169323D01*
X176415Y169265D01*
X176354Y169204D01*
X176296Y169141D01*
X176242Y169076D01*
X176190Y169008D01*
X176141Y168937D01*
X176096Y168865D01*
X176053Y168791D01*
X176015Y168715D01*
X175979Y168637D01*
X175947Y168557D01*
X175919Y168477D01*
X175895Y168395D01*
X175874Y168312D01*
X175857Y168228D01*
X175843Y168144D01*
X175834Y168059D01*
X175828Y167973D01*
X175826Y167888D01*
X175826Y164078D01*
X175828Y163993D01*
X175834Y163907D01*
X175843Y163822D01*
X175857Y163738D01*
X175874Y163654D01*
X175895Y163571D01*
X175919Y163489D01*
X175947Y163409D01*
X175979Y163329D01*
X176015Y163251D01*
X176053Y163175D01*
X176096Y163101D01*
X176141Y163029D01*
X176190Y162958D01*
X176242Y162890D01*
X176296Y162825D01*
X176354Y162762D01*
X176415Y162701D01*
X176478Y162643D01*
X176543Y162589D01*
X176611Y162537D01*
X176682Y162488D01*
X176754Y162443D01*
X176828Y162400D01*
X176904Y162362D01*
X176982Y162326D01*
X177062Y162294D01*
X177142Y162266D01*
X177224Y162242D01*
X177307Y162221D01*
X177391Y162204D01*
X177475Y162190D01*
X177560Y162181D01*
X177646Y162175D01*
X177731Y162173D01*
X180906Y162173D01*
X167817Y166618D02*
X164959Y166618D01*
X167817Y166619D02*
X167910Y166617D01*
X168003Y166611D01*
X168096Y166601D01*
X168188Y166588D01*
X168279Y166570D01*
X168370Y166549D01*
X168460Y166524D01*
X168548Y166495D01*
X168635Y166463D01*
X168721Y166427D01*
X168805Y166387D01*
X168888Y166344D01*
X168969Y166297D01*
X169047Y166248D01*
X169124Y166194D01*
X169198Y166138D01*
X169270Y166079D01*
X169339Y166016D01*
X169405Y165951D01*
X169469Y165883D01*
X169530Y165813D01*
X169588Y165740D01*
X169642Y165665D01*
X169694Y165587D01*
X169742Y165508D01*
X169787Y165426D01*
X169828Y165343D01*
X169866Y165257D01*
X169901Y165171D01*
X169931Y165083D01*
X169958Y164994D01*
X169981Y164904D01*
X170001Y164813D01*
X170016Y164721D01*
X170028Y164628D01*
X170036Y164536D01*
X170040Y164443D01*
X170040Y164349D01*
X170036Y164256D01*
X170028Y164164D01*
X170016Y164071D01*
X170001Y163979D01*
X169981Y163888D01*
X169958Y163798D01*
X169931Y163709D01*
X169901Y163621D01*
X169866Y163535D01*
X169828Y163449D01*
X169787Y163366D01*
X169742Y163285D01*
X169694Y163205D01*
X169642Y163127D01*
X169588Y163052D01*
X169530Y162979D01*
X169469Y162909D01*
X169405Y162841D01*
X169339Y162776D01*
X169270Y162713D01*
X169198Y162654D01*
X169124Y162598D01*
X169047Y162544D01*
X168969Y162495D01*
X168888Y162448D01*
X168805Y162405D01*
X168721Y162365D01*
X168635Y162329D01*
X168548Y162297D01*
X168460Y162268D01*
X168370Y162243D01*
X168279Y162222D01*
X168188Y162204D01*
X168096Y162191D01*
X168003Y162181D01*
X167910Y162175D01*
X167817Y162173D01*
X164959Y162173D01*
X164959Y167888D01*
X164961Y167973D01*
X164967Y168059D01*
X164976Y168144D01*
X164990Y168228D01*
X165007Y168312D01*
X165028Y168395D01*
X165052Y168477D01*
X165080Y168557D01*
X165112Y168637D01*
X165148Y168715D01*
X165186Y168791D01*
X165229Y168865D01*
X165274Y168937D01*
X165323Y169008D01*
X165375Y169076D01*
X165429Y169141D01*
X165487Y169204D01*
X165548Y169265D01*
X165611Y169323D01*
X165676Y169377D01*
X165744Y169429D01*
X165815Y169478D01*
X165887Y169523D01*
X165961Y169566D01*
X166037Y169604D01*
X166115Y169640D01*
X166195Y169672D01*
X166275Y169700D01*
X166357Y169724D01*
X166440Y169745D01*
X166524Y169762D01*
X166608Y169776D01*
X166693Y169785D01*
X166779Y169791D01*
X166864Y169793D01*
X169404Y169793D01*
X157849Y169793D02*
X157849Y162173D01*
X157849Y169793D02*
X154039Y169793D01*
X154039Y168523D01*
X148754Y173603D02*
X148754Y162173D01*
X148754Y165983D02*
X143674Y169793D01*
X146531Y167571D02*
X143674Y162173D01*
X130875Y162173D02*
X130875Y173603D01*
X127700Y173603D01*
X127589Y173601D01*
X127479Y173595D01*
X127368Y173586D01*
X127258Y173572D01*
X127149Y173555D01*
X127040Y173534D01*
X126932Y173509D01*
X126825Y173480D01*
X126719Y173448D01*
X126614Y173412D01*
X126511Y173372D01*
X126409Y173329D01*
X126308Y173282D01*
X126209Y173231D01*
X126113Y173178D01*
X126018Y173121D01*
X125925Y173060D01*
X125834Y172997D01*
X125745Y172930D01*
X125659Y172860D01*
X125576Y172787D01*
X125494Y172712D01*
X125416Y172634D01*
X125341Y172552D01*
X125268Y172469D01*
X125198Y172383D01*
X125131Y172294D01*
X125068Y172203D01*
X125007Y172110D01*
X124950Y172016D01*
X124897Y171919D01*
X124846Y171820D01*
X124799Y171719D01*
X124756Y171617D01*
X124716Y171514D01*
X124680Y171409D01*
X124648Y171303D01*
X124619Y171196D01*
X124594Y171088D01*
X124573Y170979D01*
X124556Y170870D01*
X124542Y170760D01*
X124533Y170649D01*
X124527Y170539D01*
X124525Y170428D01*
X124525Y165348D01*
X124527Y165237D01*
X124533Y165127D01*
X124542Y165016D01*
X124556Y164906D01*
X124573Y164797D01*
X124594Y164688D01*
X124619Y164580D01*
X124648Y164473D01*
X124680Y164367D01*
X124716Y164262D01*
X124756Y164159D01*
X124799Y164057D01*
X124846Y163956D01*
X124897Y163857D01*
X124950Y163761D01*
X125007Y163666D01*
X125068Y163573D01*
X125131Y163482D01*
X125198Y163393D01*
X125268Y163307D01*
X125341Y163224D01*
X125416Y163142D01*
X125494Y163064D01*
X125576Y162989D01*
X125659Y162916D01*
X125745Y162846D01*
X125834Y162779D01*
X125925Y162716D01*
X126018Y162655D01*
X126113Y162598D01*
X126209Y162545D01*
X126308Y162494D01*
X126409Y162447D01*
X126511Y162404D01*
X126614Y162364D01*
X126719Y162328D01*
X126825Y162296D01*
X126932Y162267D01*
X127040Y162242D01*
X127149Y162221D01*
X127258Y162204D01*
X127368Y162190D01*
X127479Y162181D01*
X127589Y162175D01*
X127700Y162173D01*
X130875Y162173D01*
X115961Y162173D02*
X112786Y162173D01*
X115961Y162173D02*
X116046Y162175D01*
X116132Y162181D01*
X116217Y162190D01*
X116301Y162204D01*
X116385Y162221D01*
X116468Y162242D01*
X116550Y162266D01*
X116630Y162294D01*
X116710Y162326D01*
X116788Y162362D01*
X116864Y162400D01*
X116938Y162443D01*
X117010Y162488D01*
X117081Y162537D01*
X117149Y162589D01*
X117214Y162643D01*
X117277Y162701D01*
X117338Y162762D01*
X117396Y162825D01*
X117450Y162890D01*
X117502Y162958D01*
X117551Y163029D01*
X117596Y163101D01*
X117639Y163175D01*
X117677Y163251D01*
X117713Y163329D01*
X117745Y163409D01*
X117773Y163489D01*
X117797Y163571D01*
X117818Y163654D01*
X117835Y163738D01*
X117849Y163822D01*
X117858Y163907D01*
X117864Y163993D01*
X117866Y164078D01*
X117866Y167253D01*
X117864Y167353D01*
X117858Y167452D01*
X117848Y167552D01*
X117835Y167650D01*
X117817Y167749D01*
X117796Y167846D01*
X117771Y167942D01*
X117742Y168038D01*
X117709Y168132D01*
X117673Y168225D01*
X117633Y168316D01*
X117589Y168406D01*
X117542Y168494D01*
X117492Y168580D01*
X117438Y168664D01*
X117381Y168746D01*
X117321Y168825D01*
X117257Y168903D01*
X117191Y168977D01*
X117122Y169049D01*
X117050Y169118D01*
X116976Y169184D01*
X116898Y169248D01*
X116819Y169308D01*
X116737Y169365D01*
X116653Y169419D01*
X116567Y169469D01*
X116479Y169516D01*
X116389Y169560D01*
X116298Y169600D01*
X116205Y169636D01*
X116111Y169669D01*
X116015Y169698D01*
X115919Y169723D01*
X115822Y169744D01*
X115723Y169762D01*
X115625Y169775D01*
X115525Y169785D01*
X115426Y169791D01*
X115326Y169793D01*
X115226Y169791D01*
X115127Y169785D01*
X115027Y169775D01*
X114929Y169762D01*
X114830Y169744D01*
X114733Y169723D01*
X114637Y169698D01*
X114541Y169669D01*
X114447Y169636D01*
X114354Y169600D01*
X114263Y169560D01*
X114173Y169516D01*
X114085Y169469D01*
X113999Y169419D01*
X113915Y169365D01*
X113833Y169308D01*
X113754Y169248D01*
X113676Y169184D01*
X113602Y169118D01*
X113530Y169049D01*
X113461Y168977D01*
X113395Y168903D01*
X113331Y168825D01*
X113271Y168746D01*
X113214Y168664D01*
X113160Y168580D01*
X113110Y168494D01*
X113063Y168406D01*
X113019Y168316D01*
X112979Y168225D01*
X112943Y168132D01*
X112910Y168038D01*
X112881Y167942D01*
X112856Y167846D01*
X112835Y167749D01*
X112817Y167650D01*
X112804Y167552D01*
X112794Y167452D01*
X112788Y167353D01*
X112786Y167253D01*
X112786Y165983D01*
X117866Y165983D01*
X105818Y166618D02*
X102643Y165348D01*
X105818Y166619D02*
X105892Y166650D01*
X105964Y166685D01*
X106034Y166724D01*
X106103Y166766D01*
X106169Y166811D01*
X106233Y166860D01*
X106294Y166911D01*
X106353Y166965D01*
X106409Y167023D01*
X106462Y167082D01*
X106513Y167145D01*
X106560Y167209D01*
X106604Y167276D01*
X106645Y167345D01*
X106682Y167416D01*
X106716Y167489D01*
X106746Y167563D01*
X106773Y167639D01*
X106795Y167716D01*
X106815Y167793D01*
X106830Y167872D01*
X106841Y167951D01*
X106849Y168031D01*
X106853Y168111D01*
X106852Y168191D01*
X106848Y168271D01*
X106840Y168351D01*
X106828Y168430D01*
X106813Y168509D01*
X106793Y168587D01*
X106770Y168663D01*
X106743Y168739D01*
X106712Y168813D01*
X106678Y168885D01*
X106640Y168956D01*
X106599Y169025D01*
X106555Y169092D01*
X106507Y169156D01*
X106457Y169218D01*
X106403Y169278D01*
X106347Y169335D01*
X106287Y169389D01*
X106226Y169440D01*
X106162Y169488D01*
X106095Y169533D01*
X106027Y169574D01*
X105956Y169613D01*
X105884Y169647D01*
X105810Y169678D01*
X105735Y169706D01*
X105658Y169730D01*
X105581Y169750D01*
X105502Y169766D01*
X105423Y169779D01*
X105344Y169787D01*
X105264Y169792D01*
X105183Y169793D01*
X105183Y169792D02*
X105010Y169788D01*
X104836Y169779D01*
X104664Y169766D01*
X104491Y169749D01*
X104319Y169728D01*
X104147Y169703D01*
X103977Y169673D01*
X103806Y169640D01*
X103637Y169602D01*
X103469Y169560D01*
X103302Y169515D01*
X103136Y169465D01*
X102971Y169411D01*
X102807Y169354D01*
X102645Y169292D01*
X102485Y169227D01*
X102326Y169157D01*
X102644Y165347D02*
X102570Y165316D01*
X102498Y165281D01*
X102428Y165242D01*
X102359Y165200D01*
X102293Y165155D01*
X102229Y165106D01*
X102168Y165055D01*
X102109Y165001D01*
X102053Y164943D01*
X102000Y164884D01*
X101949Y164821D01*
X101902Y164757D01*
X101858Y164690D01*
X101817Y164621D01*
X101780Y164550D01*
X101746Y164477D01*
X101716Y164403D01*
X101689Y164327D01*
X101667Y164250D01*
X101647Y164173D01*
X101632Y164094D01*
X101621Y164015D01*
X101613Y163935D01*
X101609Y163855D01*
X101610Y163775D01*
X101614Y163695D01*
X101622Y163615D01*
X101634Y163536D01*
X101649Y163457D01*
X101669Y163379D01*
X101692Y163303D01*
X101719Y163227D01*
X101750Y163153D01*
X101784Y163081D01*
X101822Y163010D01*
X101863Y162941D01*
X101907Y162874D01*
X101955Y162810D01*
X102005Y162748D01*
X102059Y162688D01*
X102115Y162631D01*
X102175Y162577D01*
X102236Y162526D01*
X102300Y162478D01*
X102367Y162433D01*
X102435Y162392D01*
X102506Y162353D01*
X102578Y162319D01*
X102652Y162288D01*
X102727Y162260D01*
X102804Y162236D01*
X102881Y162216D01*
X102960Y162200D01*
X103039Y162187D01*
X103118Y162179D01*
X103198Y162174D01*
X103279Y162173D01*
X103278Y162172D02*
X103533Y162179D01*
X103787Y162191D01*
X104041Y162210D01*
X104295Y162235D01*
X104547Y162265D01*
X104799Y162302D01*
X105051Y162345D01*
X105301Y162393D01*
X105549Y162448D01*
X105797Y162508D01*
X106043Y162574D01*
X106287Y162646D01*
X106530Y162724D01*
X106771Y162807D01*
X96123Y162173D02*
X96123Y169793D01*
X96441Y172968D02*
X96441Y173603D01*
X95806Y173603D01*
X95806Y172968D01*
X96441Y172968D01*
X88764Y162173D02*
X85589Y162173D01*
X88764Y162173D02*
X88849Y162175D01*
X88935Y162181D01*
X89020Y162190D01*
X89104Y162204D01*
X89188Y162221D01*
X89271Y162242D01*
X89353Y162266D01*
X89433Y162294D01*
X89513Y162326D01*
X89591Y162362D01*
X89667Y162400D01*
X89741Y162443D01*
X89813Y162488D01*
X89884Y162537D01*
X89952Y162589D01*
X90017Y162643D01*
X90080Y162701D01*
X90141Y162762D01*
X90199Y162825D01*
X90253Y162890D01*
X90305Y162958D01*
X90354Y163029D01*
X90399Y163101D01*
X90442Y163175D01*
X90480Y163251D01*
X90516Y163329D01*
X90548Y163409D01*
X90576Y163489D01*
X90600Y163571D01*
X90621Y163654D01*
X90638Y163738D01*
X90652Y163822D01*
X90661Y163907D01*
X90667Y163993D01*
X90669Y164078D01*
X90669Y167888D01*
X90667Y167973D01*
X90661Y168059D01*
X90652Y168144D01*
X90638Y168228D01*
X90621Y168312D01*
X90600Y168395D01*
X90576Y168477D01*
X90548Y168557D01*
X90516Y168637D01*
X90480Y168715D01*
X90442Y168791D01*
X90399Y168865D01*
X90354Y168937D01*
X90305Y169008D01*
X90253Y169076D01*
X90199Y169141D01*
X90141Y169204D01*
X90080Y169265D01*
X90017Y169323D01*
X89952Y169377D01*
X89884Y169429D01*
X89813Y169478D01*
X89741Y169523D01*
X89667Y169566D01*
X89591Y169604D01*
X89513Y169640D01*
X89433Y169672D01*
X89353Y169700D01*
X89271Y169724D01*
X89188Y169745D01*
X89104Y169762D01*
X89020Y169776D01*
X88935Y169785D01*
X88849Y169791D01*
X88764Y169793D01*
X85589Y169793D01*
X85589Y160268D01*
X85591Y160183D01*
X85597Y160097D01*
X85606Y160012D01*
X85620Y159928D01*
X85637Y159844D01*
X85658Y159761D01*
X85682Y159679D01*
X85710Y159599D01*
X85742Y159519D01*
X85778Y159441D01*
X85816Y159365D01*
X85859Y159291D01*
X85904Y159219D01*
X85953Y159148D01*
X86005Y159080D01*
X86059Y159015D01*
X86117Y158952D01*
X86178Y158891D01*
X86241Y158833D01*
X86306Y158779D01*
X86374Y158727D01*
X86445Y158678D01*
X86517Y158633D01*
X86591Y158590D01*
X86667Y158552D01*
X86745Y158516D01*
X86825Y158484D01*
X86905Y158456D01*
X86987Y158432D01*
X87070Y158411D01*
X87154Y158394D01*
X87238Y158380D01*
X87323Y158371D01*
X87409Y158365D01*
X87494Y158363D01*
X90034Y158363D01*
X78607Y162173D02*
X78607Y169793D01*
X75432Y169793D01*
X75347Y169791D01*
X75261Y169785D01*
X75176Y169776D01*
X75092Y169762D01*
X75008Y169745D01*
X74925Y169724D01*
X74843Y169700D01*
X74763Y169672D01*
X74683Y169640D01*
X74605Y169604D01*
X74529Y169566D01*
X74455Y169523D01*
X74383Y169478D01*
X74312Y169429D01*
X74244Y169377D01*
X74179Y169323D01*
X74116Y169265D01*
X74055Y169204D01*
X73997Y169141D01*
X73943Y169076D01*
X73891Y169008D01*
X73842Y168937D01*
X73797Y168865D01*
X73754Y168791D01*
X73716Y168715D01*
X73680Y168637D01*
X73648Y168557D01*
X73620Y168477D01*
X73596Y168395D01*
X73575Y168312D01*
X73558Y168228D01*
X73544Y168144D01*
X73535Y168059D01*
X73529Y167973D01*
X73527Y167888D01*
X73527Y162173D01*
X57564Y162173D02*
X55024Y162173D01*
X57564Y162173D02*
X57664Y162175D01*
X57763Y162181D01*
X57863Y162191D01*
X57961Y162204D01*
X58060Y162222D01*
X58157Y162243D01*
X58253Y162268D01*
X58349Y162297D01*
X58443Y162330D01*
X58536Y162366D01*
X58627Y162406D01*
X58717Y162450D01*
X58805Y162497D01*
X58891Y162547D01*
X58975Y162601D01*
X59057Y162658D01*
X59136Y162718D01*
X59214Y162782D01*
X59288Y162848D01*
X59360Y162917D01*
X59429Y162989D01*
X59495Y163063D01*
X59559Y163141D01*
X59619Y163220D01*
X59676Y163302D01*
X59730Y163386D01*
X59780Y163472D01*
X59827Y163560D01*
X59871Y163650D01*
X59911Y163741D01*
X59947Y163834D01*
X59980Y163928D01*
X60009Y164024D01*
X60034Y164120D01*
X60055Y164217D01*
X60073Y164316D01*
X60086Y164414D01*
X60096Y164514D01*
X60102Y164613D01*
X60104Y164713D01*
X60104Y171063D01*
X60102Y171163D01*
X60096Y171262D01*
X60086Y171362D01*
X60073Y171460D01*
X60055Y171559D01*
X60034Y171656D01*
X60009Y171752D01*
X59980Y171848D01*
X59947Y171942D01*
X59911Y172035D01*
X59871Y172126D01*
X59827Y172216D01*
X59780Y172304D01*
X59730Y172390D01*
X59676Y172474D01*
X59619Y172556D01*
X59559Y172635D01*
X59495Y172713D01*
X59429Y172787D01*
X59360Y172859D01*
X59288Y172928D01*
X59214Y172994D01*
X59136Y173058D01*
X59057Y173118D01*
X58975Y173175D01*
X58891Y173229D01*
X58805Y173279D01*
X58717Y173326D01*
X58627Y173370D01*
X58536Y173410D01*
X58443Y173446D01*
X58349Y173479D01*
X58253Y173508D01*
X58157Y173533D01*
X58060Y173554D01*
X57961Y173572D01*
X57863Y173585D01*
X57763Y173595D01*
X57664Y173601D01*
X57564Y173603D01*
X55024Y173603D01*
X49612Y173603D02*
X49612Y164078D01*
X49610Y163993D01*
X49604Y163907D01*
X49595Y163822D01*
X49581Y163738D01*
X49564Y163654D01*
X49543Y163571D01*
X49519Y163489D01*
X49491Y163409D01*
X49459Y163329D01*
X49423Y163251D01*
X49385Y163175D01*
X49342Y163101D01*
X49297Y163029D01*
X49248Y162958D01*
X49196Y162890D01*
X49142Y162825D01*
X49084Y162762D01*
X49023Y162701D01*
X48960Y162643D01*
X48895Y162589D01*
X48827Y162537D01*
X48756Y162488D01*
X48684Y162443D01*
X48610Y162400D01*
X48534Y162362D01*
X48456Y162326D01*
X48376Y162294D01*
X48296Y162266D01*
X48214Y162242D01*
X48131Y162221D01*
X48047Y162204D01*
X47963Y162190D01*
X47878Y162181D01*
X47792Y162175D01*
X47707Y162173D01*
X42336Y164078D02*
X42336Y169793D01*
X42336Y164078D02*
X42334Y163993D01*
X42328Y163907D01*
X42319Y163822D01*
X42305Y163738D01*
X42288Y163654D01*
X42267Y163571D01*
X42243Y163489D01*
X42215Y163409D01*
X42183Y163329D01*
X42147Y163251D01*
X42109Y163175D01*
X42066Y163101D01*
X42021Y163029D01*
X41972Y162958D01*
X41920Y162890D01*
X41866Y162825D01*
X41808Y162762D01*
X41747Y162701D01*
X41684Y162643D01*
X41619Y162589D01*
X41551Y162537D01*
X41480Y162488D01*
X41408Y162443D01*
X41334Y162400D01*
X41258Y162362D01*
X41180Y162326D01*
X41100Y162294D01*
X41020Y162266D01*
X40938Y162242D01*
X40855Y162221D01*
X40771Y162204D01*
X40687Y162190D01*
X40602Y162181D01*
X40516Y162175D01*
X40431Y162173D01*
X37256Y162173D01*
X37256Y169793D01*
X30274Y173603D02*
X30274Y162173D01*
X27099Y162173D01*
X27014Y162175D01*
X26928Y162181D01*
X26843Y162190D01*
X26759Y162204D01*
X26675Y162221D01*
X26592Y162242D01*
X26510Y162266D01*
X26430Y162294D01*
X26350Y162326D01*
X26272Y162362D01*
X26196Y162400D01*
X26122Y162443D01*
X26050Y162488D01*
X25979Y162537D01*
X25911Y162589D01*
X25846Y162643D01*
X25783Y162701D01*
X25722Y162762D01*
X25664Y162825D01*
X25610Y162890D01*
X25558Y162958D01*
X25509Y163029D01*
X25464Y163101D01*
X25421Y163175D01*
X25383Y163251D01*
X25347Y163329D01*
X25315Y163409D01*
X25287Y163489D01*
X25263Y163571D01*
X25242Y163654D01*
X25225Y163738D01*
X25211Y163822D01*
X25202Y163907D01*
X25196Y163993D01*
X25194Y164078D01*
X25194Y167888D01*
X25196Y167973D01*
X25202Y168059D01*
X25211Y168144D01*
X25225Y168228D01*
X25242Y168312D01*
X25263Y168395D01*
X25287Y168477D01*
X25315Y168557D01*
X25347Y168637D01*
X25383Y168715D01*
X25421Y168791D01*
X25464Y168865D01*
X25509Y168937D01*
X25558Y169008D01*
X25610Y169076D01*
X25664Y169141D01*
X25722Y169204D01*
X25783Y169265D01*
X25846Y169323D01*
X25911Y169377D01*
X25979Y169429D01*
X26050Y169478D01*
X26122Y169523D01*
X26196Y169566D01*
X26272Y169604D01*
X26350Y169640D01*
X26430Y169672D01*
X26510Y169700D01*
X26592Y169724D01*
X26675Y169745D01*
X26759Y169762D01*
X26843Y169776D01*
X26928Y169785D01*
X27014Y169791D01*
X27099Y169793D01*
X30274Y169793D01*
X193603Y152267D02*
X193603Y140837D01*
X193603Y152267D02*
X188523Y152267D01*
X188523Y147187D02*
X193603Y147187D01*
X183644Y144647D02*
X183644Y152267D01*
X183962Y141472D02*
X183962Y140837D01*
X183962Y141472D02*
X183327Y141472D01*
X183327Y140837D01*
X183962Y140837D01*
X177521Y140837D02*
X177521Y148457D01*
X173711Y148457D01*
X173711Y147187D01*
X169115Y145917D02*
X169115Y143377D01*
X169115Y145917D02*
X169113Y146017D01*
X169107Y146116D01*
X169097Y146216D01*
X169084Y146314D01*
X169066Y146413D01*
X169045Y146510D01*
X169020Y146606D01*
X168991Y146702D01*
X168958Y146796D01*
X168922Y146889D01*
X168882Y146980D01*
X168838Y147070D01*
X168791Y147158D01*
X168741Y147244D01*
X168687Y147328D01*
X168630Y147410D01*
X168570Y147489D01*
X168506Y147567D01*
X168440Y147641D01*
X168371Y147713D01*
X168299Y147782D01*
X168225Y147848D01*
X168147Y147912D01*
X168068Y147972D01*
X167986Y148029D01*
X167902Y148083D01*
X167816Y148133D01*
X167728Y148180D01*
X167638Y148224D01*
X167547Y148264D01*
X167454Y148300D01*
X167360Y148333D01*
X167264Y148362D01*
X167168Y148387D01*
X167071Y148408D01*
X166972Y148426D01*
X166874Y148439D01*
X166774Y148449D01*
X166675Y148455D01*
X166575Y148457D01*
X166475Y148455D01*
X166376Y148449D01*
X166276Y148439D01*
X166178Y148426D01*
X166079Y148408D01*
X165982Y148387D01*
X165886Y148362D01*
X165790Y148333D01*
X165696Y148300D01*
X165603Y148264D01*
X165512Y148224D01*
X165422Y148180D01*
X165334Y148133D01*
X165248Y148083D01*
X165164Y148029D01*
X165082Y147972D01*
X165003Y147912D01*
X164925Y147848D01*
X164851Y147782D01*
X164779Y147713D01*
X164710Y147641D01*
X164644Y147567D01*
X164580Y147489D01*
X164520Y147410D01*
X164463Y147328D01*
X164409Y147244D01*
X164359Y147158D01*
X164312Y147070D01*
X164268Y146980D01*
X164228Y146889D01*
X164192Y146796D01*
X164159Y146702D01*
X164130Y146606D01*
X164105Y146510D01*
X164084Y146413D01*
X164066Y146314D01*
X164053Y146216D01*
X164043Y146116D01*
X164037Y146017D01*
X164035Y145917D01*
X164035Y143377D01*
X164037Y143277D01*
X164043Y143178D01*
X164053Y143078D01*
X164066Y142980D01*
X164084Y142881D01*
X164105Y142784D01*
X164130Y142688D01*
X164159Y142592D01*
X164192Y142498D01*
X164228Y142405D01*
X164268Y142314D01*
X164312Y142224D01*
X164359Y142136D01*
X164409Y142050D01*
X164463Y141966D01*
X164520Y141884D01*
X164580Y141805D01*
X164644Y141727D01*
X164710Y141653D01*
X164779Y141581D01*
X164851Y141512D01*
X164925Y141446D01*
X165003Y141382D01*
X165082Y141322D01*
X165164Y141265D01*
X165248Y141211D01*
X165334Y141161D01*
X165422Y141114D01*
X165512Y141070D01*
X165603Y141030D01*
X165696Y140994D01*
X165790Y140961D01*
X165886Y140932D01*
X165982Y140907D01*
X166079Y140886D01*
X166178Y140868D01*
X166276Y140855D01*
X166376Y140845D01*
X166475Y140839D01*
X166575Y140837D01*
X166675Y140839D01*
X166774Y140845D01*
X166874Y140855D01*
X166972Y140868D01*
X167071Y140886D01*
X167168Y140907D01*
X167264Y140932D01*
X167360Y140961D01*
X167454Y140994D01*
X167547Y141030D01*
X167638Y141070D01*
X167728Y141114D01*
X167816Y141161D01*
X167902Y141211D01*
X167986Y141265D01*
X168068Y141322D01*
X168147Y141382D01*
X168225Y141446D01*
X168299Y141512D01*
X168371Y141581D01*
X168440Y141653D01*
X168506Y141727D01*
X168570Y141805D01*
X168630Y141884D01*
X168687Y141966D01*
X168741Y142050D01*
X168791Y142136D01*
X168838Y142224D01*
X168882Y142314D01*
X168922Y142405D01*
X168958Y142498D01*
X168991Y142592D01*
X169020Y142688D01*
X169045Y142784D01*
X169066Y142881D01*
X169084Y142980D01*
X169097Y143078D01*
X169107Y143178D01*
X169113Y143277D01*
X169115Y143377D01*
X157068Y145282D02*
X153893Y144012D01*
X157068Y145283D02*
X157142Y145314D01*
X157214Y145349D01*
X157284Y145388D01*
X157353Y145430D01*
X157419Y145475D01*
X157483Y145524D01*
X157544Y145575D01*
X157603Y145629D01*
X157659Y145687D01*
X157712Y145746D01*
X157763Y145809D01*
X157810Y145873D01*
X157854Y145940D01*
X157895Y146009D01*
X157932Y146080D01*
X157966Y146153D01*
X157996Y146227D01*
X158023Y146303D01*
X158045Y146380D01*
X158065Y146457D01*
X158080Y146536D01*
X158091Y146615D01*
X158099Y146695D01*
X158103Y146775D01*
X158102Y146855D01*
X158098Y146935D01*
X158090Y147015D01*
X158078Y147094D01*
X158063Y147173D01*
X158043Y147251D01*
X158020Y147327D01*
X157993Y147403D01*
X157962Y147477D01*
X157928Y147549D01*
X157890Y147620D01*
X157849Y147689D01*
X157805Y147756D01*
X157757Y147820D01*
X157707Y147882D01*
X157653Y147942D01*
X157597Y147999D01*
X157537Y148053D01*
X157476Y148104D01*
X157412Y148152D01*
X157345Y148197D01*
X157277Y148238D01*
X157206Y148277D01*
X157134Y148311D01*
X157060Y148342D01*
X156985Y148370D01*
X156908Y148394D01*
X156831Y148414D01*
X156752Y148430D01*
X156673Y148443D01*
X156594Y148451D01*
X156514Y148456D01*
X156433Y148457D01*
X156433Y148456D02*
X156260Y148452D01*
X156086Y148443D01*
X155914Y148430D01*
X155741Y148413D01*
X155569Y148392D01*
X155397Y148367D01*
X155227Y148337D01*
X155056Y148304D01*
X154887Y148266D01*
X154719Y148224D01*
X154552Y148179D01*
X154386Y148129D01*
X154221Y148075D01*
X154057Y148018D01*
X153895Y147956D01*
X153735Y147891D01*
X153576Y147821D01*
X153894Y144011D02*
X153820Y143980D01*
X153748Y143945D01*
X153678Y143906D01*
X153609Y143864D01*
X153543Y143819D01*
X153479Y143770D01*
X153418Y143719D01*
X153359Y143665D01*
X153303Y143607D01*
X153250Y143548D01*
X153199Y143485D01*
X153152Y143421D01*
X153108Y143354D01*
X153067Y143285D01*
X153030Y143214D01*
X152996Y143141D01*
X152966Y143067D01*
X152939Y142991D01*
X152917Y142914D01*
X152897Y142837D01*
X152882Y142758D01*
X152871Y142679D01*
X152863Y142599D01*
X152859Y142519D01*
X152860Y142439D01*
X152864Y142359D01*
X152872Y142279D01*
X152884Y142200D01*
X152899Y142121D01*
X152919Y142043D01*
X152942Y141967D01*
X152969Y141891D01*
X153000Y141817D01*
X153034Y141745D01*
X153072Y141674D01*
X153113Y141605D01*
X153157Y141538D01*
X153205Y141474D01*
X153255Y141412D01*
X153309Y141352D01*
X153365Y141295D01*
X153425Y141241D01*
X153486Y141190D01*
X153550Y141142D01*
X153617Y141097D01*
X153685Y141056D01*
X153756Y141017D01*
X153828Y140983D01*
X153902Y140952D01*
X153977Y140924D01*
X154054Y140900D01*
X154131Y140880D01*
X154210Y140864D01*
X154289Y140851D01*
X154368Y140843D01*
X154448Y140838D01*
X154529Y140837D01*
X154528Y140836D02*
X154783Y140843D01*
X155037Y140855D01*
X155291Y140874D01*
X155545Y140899D01*
X155797Y140929D01*
X156049Y140966D01*
X156301Y141009D01*
X156551Y141057D01*
X156799Y141112D01*
X157047Y141172D01*
X157293Y141238D01*
X157537Y141310D01*
X157780Y141388D01*
X158021Y141471D01*
X146499Y140837D02*
X146499Y152267D01*
X146499Y148457D02*
X143324Y148457D01*
X143239Y148455D01*
X143153Y148449D01*
X143068Y148440D01*
X142984Y148426D01*
X142900Y148409D01*
X142817Y148388D01*
X142735Y148364D01*
X142655Y148336D01*
X142575Y148304D01*
X142497Y148268D01*
X142421Y148230D01*
X142347Y148187D01*
X142275Y148142D01*
X142204Y148093D01*
X142136Y148041D01*
X142071Y147987D01*
X142008Y147929D01*
X141947Y147868D01*
X141889Y147805D01*
X141835Y147740D01*
X141783Y147672D01*
X141734Y147601D01*
X141689Y147529D01*
X141646Y147455D01*
X141608Y147379D01*
X141572Y147301D01*
X141540Y147221D01*
X141512Y147141D01*
X141488Y147059D01*
X141467Y146976D01*
X141450Y146892D01*
X141436Y146808D01*
X141427Y146723D01*
X141421Y146637D01*
X141419Y146552D01*
X141419Y140837D01*
X131267Y152268D02*
X131163Y152266D01*
X131058Y152260D01*
X130954Y152251D01*
X130851Y152238D01*
X130748Y152220D01*
X130646Y152200D01*
X130544Y152175D01*
X130444Y152147D01*
X130344Y152115D01*
X130246Y152079D01*
X130149Y152040D01*
X130054Y151998D01*
X129960Y151952D01*
X129868Y151902D01*
X129778Y151850D01*
X129690Y151794D01*
X129604Y151734D01*
X129520Y151672D01*
X129439Y151607D01*
X129360Y151539D01*
X129283Y151467D01*
X129210Y151394D01*
X129138Y151317D01*
X129070Y151238D01*
X129005Y151157D01*
X128943Y151073D01*
X128883Y150987D01*
X128827Y150899D01*
X128775Y150809D01*
X128725Y150717D01*
X128679Y150623D01*
X128637Y150528D01*
X128598Y150431D01*
X128562Y150333D01*
X128530Y150233D01*
X128502Y150133D01*
X128477Y150031D01*
X128457Y149929D01*
X128439Y149826D01*
X128426Y149723D01*
X128417Y149619D01*
X128411Y149514D01*
X128409Y149410D01*
X131267Y152267D02*
X131385Y152265D01*
X131504Y152259D01*
X131622Y152250D01*
X131739Y152237D01*
X131856Y152219D01*
X131973Y152199D01*
X132089Y152174D01*
X132204Y152146D01*
X132317Y152113D01*
X132430Y152078D01*
X132542Y152038D01*
X132652Y151996D01*
X132761Y151949D01*
X132869Y151899D01*
X132974Y151846D01*
X133078Y151789D01*
X133180Y151729D01*
X133280Y151666D01*
X133378Y151599D01*
X133474Y151530D01*
X133567Y151457D01*
X133658Y151381D01*
X133747Y151303D01*
X133833Y151221D01*
X133916Y151137D01*
X133997Y151051D01*
X134074Y150961D01*
X134149Y150870D01*
X134221Y150776D01*
X134290Y150679D01*
X134355Y150581D01*
X134418Y150480D01*
X134477Y150377D01*
X134533Y150273D01*
X134585Y150167D01*
X134634Y150059D01*
X134679Y149950D01*
X134721Y149839D01*
X134759Y149727D01*
X129362Y147188D02*
X129286Y147263D01*
X129211Y147342D01*
X129140Y147423D01*
X129071Y147507D01*
X129006Y147593D01*
X128944Y147681D01*
X128884Y147771D01*
X128828Y147863D01*
X128775Y147958D01*
X128726Y148054D01*
X128680Y148152D01*
X128637Y148251D01*
X128598Y148352D01*
X128563Y148454D01*
X128531Y148557D01*
X128503Y148661D01*
X128478Y148766D01*
X128457Y148873D01*
X128440Y148979D01*
X128427Y149086D01*
X128418Y149194D01*
X128412Y149302D01*
X128410Y149410D01*
X129362Y147187D02*
X134760Y140837D01*
X128410Y140837D01*
X119636Y140837D02*
X119636Y152267D01*
X122811Y152267D02*
X116461Y152267D01*
X110863Y140837D02*
X107053Y140837D01*
X106953Y140839D01*
X106854Y140845D01*
X106754Y140855D01*
X106656Y140868D01*
X106557Y140886D01*
X106460Y140907D01*
X106364Y140932D01*
X106268Y140961D01*
X106174Y140994D01*
X106081Y141030D01*
X105990Y141070D01*
X105900Y141114D01*
X105812Y141161D01*
X105726Y141211D01*
X105642Y141265D01*
X105560Y141322D01*
X105481Y141382D01*
X105403Y141446D01*
X105329Y141512D01*
X105257Y141581D01*
X105188Y141653D01*
X105122Y141727D01*
X105058Y141805D01*
X104998Y141884D01*
X104941Y141966D01*
X104887Y142050D01*
X104837Y142136D01*
X104790Y142224D01*
X104746Y142314D01*
X104706Y142405D01*
X104670Y142498D01*
X104637Y142592D01*
X104608Y142688D01*
X104583Y142784D01*
X104562Y142881D01*
X104544Y142980D01*
X104531Y143078D01*
X104521Y143178D01*
X104515Y143277D01*
X104513Y143377D01*
X104513Y144647D01*
X104515Y144747D01*
X104521Y144846D01*
X104531Y144946D01*
X104544Y145044D01*
X104562Y145143D01*
X104583Y145240D01*
X104608Y145336D01*
X104637Y145432D01*
X104670Y145526D01*
X104706Y145619D01*
X104746Y145710D01*
X104790Y145800D01*
X104837Y145888D01*
X104887Y145974D01*
X104941Y146058D01*
X104998Y146140D01*
X105058Y146219D01*
X105122Y146297D01*
X105188Y146371D01*
X105257Y146443D01*
X105329Y146512D01*
X105403Y146578D01*
X105481Y146642D01*
X105560Y146702D01*
X105642Y146759D01*
X105726Y146813D01*
X105812Y146863D01*
X105900Y146910D01*
X105990Y146954D01*
X106081Y146994D01*
X106174Y147030D01*
X106268Y147063D01*
X106364Y147092D01*
X106460Y147117D01*
X106557Y147138D01*
X106656Y147156D01*
X106754Y147169D01*
X106854Y147179D01*
X106953Y147185D01*
X107053Y147187D01*
X110863Y147187D01*
X110863Y152267D01*
X104513Y152267D01*
D12*
X195867Y12964D02*
X196825Y12006D01*
X196825Y12007D02*
X196876Y11954D01*
X196923Y11898D01*
X196968Y11839D01*
X197009Y11779D01*
X197047Y11716D01*
X197081Y11651D01*
X197112Y11584D01*
X197139Y11516D01*
X197162Y11447D01*
X197182Y11376D01*
X197198Y11304D01*
X197210Y11232D01*
X197218Y11159D01*
X197222Y11086D01*
X197222Y11012D01*
X197218Y10939D01*
X197210Y10866D01*
X197198Y10794D01*
X197182Y10722D01*
X197162Y10651D01*
X197139Y10582D01*
X197112Y10514D01*
X197081Y10447D01*
X197047Y10382D01*
X197009Y10319D01*
X196968Y10259D01*
X196923Y10200D01*
X196876Y10144D01*
X196825Y10091D01*
X194909Y8175D01*
X194857Y8125D01*
X194802Y8078D01*
X194745Y8035D01*
X194685Y7994D01*
X194623Y7957D01*
X194560Y7922D01*
X194494Y7892D01*
X194428Y7865D01*
X194359Y7841D01*
X194290Y7821D01*
X194220Y7805D01*
X194149Y7793D01*
X194077Y7784D01*
X194005Y7779D01*
X193933Y7778D01*
X193861Y7781D01*
X193789Y7788D01*
X193718Y7798D01*
X193647Y7813D01*
X193577Y7831D01*
X193508Y7852D01*
X193441Y7878D01*
X193375Y7907D01*
X193310Y7939D01*
X193248Y7975D01*
X193187Y8014D01*
X193129Y8056D01*
X193072Y8101D01*
X193019Y8150D01*
X192968Y8201D01*
X192919Y8254D01*
X192874Y8311D01*
X192832Y8369D01*
X192793Y8430D01*
X192757Y8492D01*
X192725Y8557D01*
X192696Y8623D01*
X192670Y8690D01*
X192649Y8759D01*
X192631Y8829D01*
X192616Y8900D01*
X192606Y8971D01*
X192599Y9043D01*
X192596Y9115D01*
X192597Y9187D01*
X192602Y9259D01*
X192611Y9331D01*
X192623Y9402D01*
X192639Y9472D01*
X192659Y9541D01*
X192683Y9610D01*
X192710Y9676D01*
X192740Y9742D01*
X192775Y9805D01*
X192812Y9867D01*
X192853Y9927D01*
X192896Y9984D01*
X192943Y10039D01*
X192993Y10091D01*
X192834Y9931D02*
X195867Y12964D01*
X192834Y9931D02*
X192787Y9886D01*
X192736Y9843D01*
X192684Y9804D01*
X192629Y9768D01*
X192572Y9735D01*
X192513Y9706D01*
X192453Y9680D01*
X192391Y9657D01*
X192328Y9638D01*
X192264Y9623D01*
X192200Y9612D01*
X192134Y9604D01*
X192069Y9600D01*
X192003Y9600D01*
X191938Y9604D01*
X191872Y9612D01*
X191808Y9623D01*
X191744Y9638D01*
X191681Y9657D01*
X191619Y9680D01*
X191559Y9706D01*
X191500Y9735D01*
X191443Y9768D01*
X191388Y9804D01*
X191336Y9843D01*
X191285Y9886D01*
X191238Y9931D01*
X191193Y9978D01*
X191150Y10029D01*
X191111Y10081D01*
X191075Y10136D01*
X191042Y10193D01*
X191013Y10252D01*
X190987Y10312D01*
X190964Y10374D01*
X190945Y10437D01*
X190930Y10501D01*
X190919Y10565D01*
X190911Y10631D01*
X190907Y10696D01*
X190907Y10762D01*
X190911Y10827D01*
X190919Y10893D01*
X190930Y10957D01*
X190945Y11021D01*
X190964Y11084D01*
X190987Y11146D01*
X191013Y11206D01*
X191042Y11265D01*
X191075Y11322D01*
X191111Y11377D01*
X191150Y11429D01*
X191193Y11480D01*
X191238Y11527D01*
X191237Y11528D02*
X193632Y13922D01*
X193633Y13922D02*
X193719Y14005D01*
X193807Y14085D01*
X193898Y14162D01*
X193992Y14237D01*
X194088Y14308D01*
X194186Y14375D01*
X194287Y14440D01*
X194390Y14501D01*
X194494Y14559D01*
X194601Y14613D01*
X194709Y14664D01*
X194819Y14711D01*
X194930Y14754D01*
X195042Y14794D01*
X195156Y14830D01*
X195271Y14862D01*
X195387Y14890D01*
X195504Y14915D01*
X195622Y14936D01*
X195740Y14952D01*
X195859Y14965D01*
X195978Y14974D01*
X196097Y14979D01*
X196217Y14980D01*
X196336Y14977D01*
X196456Y14970D01*
X196574Y14959D01*
X196693Y14944D01*
X196811Y14926D01*
X196928Y14903D01*
X197045Y14877D01*
X197160Y14846D01*
X197275Y14812D01*
X197388Y14774D01*
X197500Y14733D01*
X197611Y14688D01*
X197720Y14639D01*
X197827Y14586D01*
X197932Y14530D01*
X198036Y14471D01*
X198138Y14408D01*
X198237Y14342D01*
X198334Y14273D01*
X198429Y14200D01*
X198521Y14124D01*
X198611Y14046D01*
X198698Y13964D01*
X198783Y13879D01*
X198865Y13792D01*
X198943Y13702D01*
X199019Y13610D01*
X199092Y13515D01*
X199161Y13418D01*
X199227Y13318D01*
X199290Y13217D01*
X199349Y13113D01*
X199405Y13008D01*
X199458Y12900D01*
X199507Y12792D01*
X199552Y12681D01*
X199593Y12569D01*
X199631Y12456D01*
X199665Y12341D01*
X199696Y12226D01*
X199722Y12109D01*
X199745Y11992D01*
X199763Y11874D01*
X199778Y11755D01*
X199789Y11636D01*
X199796Y11517D01*
X199799Y11398D01*
X199798Y11278D01*
X199793Y11159D01*
X199784Y11040D01*
X199771Y10921D01*
X199755Y10803D01*
X199734Y10685D01*
X199709Y10568D01*
X199681Y10452D01*
X199649Y10337D01*
X199613Y10223D01*
X199573Y10111D01*
X199530Y10000D01*
X199483Y9890D01*
X199432Y9782D01*
X199378Y9675D01*
X199320Y9571D01*
X199259Y9468D01*
X199194Y9367D01*
X199127Y9269D01*
X199056Y9173D01*
X198981Y9079D01*
X198904Y8988D01*
X198824Y8900D01*
X198741Y8814D01*
X198741Y8813D02*
X196027Y6099D01*
X195943Y6019D01*
X195857Y5941D01*
X195769Y5867D01*
X195678Y5795D01*
X195584Y5727D01*
X195488Y5661D01*
X195390Y5599D01*
X195290Y5541D01*
X195188Y5486D01*
X195085Y5434D01*
X194979Y5386D01*
X194872Y5342D01*
X194764Y5301D01*
X194654Y5264D01*
X194543Y5231D01*
X194431Y5202D01*
X194318Y5176D01*
X194204Y5155D01*
X194089Y5137D01*
X193974Y5123D01*
X193859Y5113D01*
X193743Y5107D01*
X193627Y5105D01*
X193511Y5107D01*
X193396Y5113D01*
X193280Y5123D01*
X193165Y5136D01*
X193051Y5154D01*
X192937Y5176D01*
X192824Y5201D01*
X192712Y5230D01*
X192600Y5264D01*
X192491Y5300D01*
X192382Y5341D01*
X192275Y5385D01*
X192169Y5433D01*
X192066Y5485D01*
X191964Y5540D01*
X191864Y5598D01*
X191766Y5660D01*
X191670Y5725D01*
X191576Y5794D01*
X191485Y5865D01*
X191396Y5940D01*
X187526Y16197D02*
X185291Y17155D01*
X187526Y16197D02*
X187589Y16172D01*
X187653Y16151D01*
X187718Y16133D01*
X187785Y16120D01*
X187852Y16110D01*
X187919Y16104D01*
X187987Y16102D01*
X188055Y16104D01*
X188122Y16110D01*
X188189Y16120D01*
X188255Y16133D01*
X188321Y16151D01*
X188385Y16172D01*
X188448Y16197D01*
X188509Y16225D01*
X188569Y16257D01*
X188627Y16292D01*
X188682Y16331D01*
X188736Y16373D01*
X188786Y16417D01*
X188835Y16465D01*
X188880Y16515D01*
X188922Y16568D01*
X188961Y16623D01*
X188997Y16681D01*
X189030Y16740D01*
X189059Y16801D01*
X189084Y16864D01*
X189106Y16928D01*
X189124Y16993D01*
X189138Y17060D01*
X189149Y17126D01*
X189155Y17194D01*
X189158Y17262D01*
X189157Y17329D01*
X189151Y17397D01*
X189142Y17464D01*
X189129Y17530D01*
X189113Y17596D01*
X189092Y17660D01*
X189068Y17724D01*
X189040Y17785D01*
X189009Y17845D01*
X188974Y17903D01*
X188936Y17959D01*
X188895Y18013D01*
X188850Y18064D01*
X188803Y18113D01*
X188802Y18113D02*
X188701Y18209D01*
X188597Y18302D01*
X188490Y18392D01*
X188381Y18480D01*
X188270Y18564D01*
X188156Y18645D01*
X188040Y18724D01*
X187922Y18799D01*
X187802Y18870D01*
X187681Y18939D01*
X187557Y19004D01*
X187432Y19066D01*
X187305Y19124D01*
X187176Y19179D01*
X187046Y19230D01*
X185290Y17155D02*
X185227Y17180D01*
X185163Y17201D01*
X185098Y17219D01*
X185031Y17232D01*
X184964Y17242D01*
X184897Y17248D01*
X184829Y17250D01*
X184761Y17248D01*
X184694Y17242D01*
X184627Y17232D01*
X184561Y17219D01*
X184495Y17201D01*
X184431Y17180D01*
X184368Y17155D01*
X184307Y17127D01*
X184247Y17095D01*
X184189Y17060D01*
X184134Y17021D01*
X184080Y16979D01*
X184029Y16935D01*
X183981Y16887D01*
X183936Y16837D01*
X183894Y16784D01*
X183855Y16729D01*
X183819Y16671D01*
X183786Y16612D01*
X183757Y16551D01*
X183732Y16488D01*
X183710Y16424D01*
X183692Y16359D01*
X183678Y16292D01*
X183667Y16225D01*
X183661Y16158D01*
X183658Y16090D01*
X183659Y16023D01*
X183665Y15955D01*
X183674Y15888D01*
X183687Y15822D01*
X183703Y15756D01*
X183724Y15692D01*
X183748Y15628D01*
X183776Y15567D01*
X183807Y15507D01*
X183842Y15449D01*
X183880Y15393D01*
X183921Y15339D01*
X183966Y15288D01*
X184013Y15239D01*
X184014Y15239D02*
X184145Y15114D01*
X184280Y14993D01*
X184417Y14875D01*
X184557Y14760D01*
X184699Y14648D01*
X184844Y14540D01*
X184992Y14435D01*
X185142Y14333D01*
X185295Y14236D01*
X185449Y14142D01*
X185606Y14051D01*
X185765Y13964D01*
X185926Y13881D01*
X186089Y13802D01*
X177976Y17445D02*
X183724Y23192D01*
X182127Y24789D01*
X182076Y24838D01*
X182022Y24884D01*
X181965Y24927D01*
X181907Y24967D01*
X181847Y25004D01*
X181784Y25038D01*
X181720Y25069D01*
X181655Y25096D01*
X181588Y25120D01*
X181520Y25140D01*
X181451Y25156D01*
X181381Y25169D01*
X181311Y25179D01*
X181240Y25184D01*
X181169Y25186D01*
X181098Y25184D01*
X181027Y25179D01*
X180957Y25169D01*
X180887Y25156D01*
X180818Y25140D01*
X180750Y25120D01*
X180683Y25096D01*
X180618Y25069D01*
X180554Y25038D01*
X180492Y25004D01*
X180431Y24967D01*
X180373Y24927D01*
X180316Y24884D01*
X180262Y24838D01*
X180211Y24789D01*
X178296Y22873D01*
X178295Y22873D02*
X178244Y22820D01*
X178197Y22764D01*
X178152Y22706D01*
X178111Y22645D01*
X178073Y22582D01*
X178039Y22517D01*
X178008Y22450D01*
X177981Y22382D01*
X177958Y22313D01*
X177938Y22242D01*
X177922Y22170D01*
X177910Y22098D01*
X177902Y22025D01*
X177898Y21952D01*
X177898Y21878D01*
X177902Y21805D01*
X177910Y21732D01*
X177922Y21660D01*
X177938Y21588D01*
X177958Y21517D01*
X177981Y21448D01*
X178008Y21380D01*
X178039Y21313D01*
X178073Y21248D01*
X178111Y21185D01*
X178152Y21125D01*
X178197Y21066D01*
X178244Y21010D01*
X178295Y20957D01*
X178296Y20957D02*
X179892Y19361D01*
X175523Y28200D02*
X174086Y29637D01*
X175522Y28200D02*
X175577Y28143D01*
X175628Y28083D01*
X175676Y28021D01*
X175721Y27957D01*
X175763Y27890D01*
X175802Y27821D01*
X175837Y27751D01*
X175868Y27679D01*
X175896Y27605D01*
X175920Y27530D01*
X175941Y27454D01*
X175957Y27377D01*
X175970Y27299D01*
X175979Y27221D01*
X175984Y27142D01*
X175985Y27063D01*
X175982Y26985D01*
X175975Y26906D01*
X175964Y26828D01*
X175950Y26751D01*
X175931Y26674D01*
X175909Y26598D01*
X175883Y26524D01*
X175853Y26451D01*
X175820Y26380D01*
X175783Y26310D01*
X175743Y26242D01*
X175699Y26177D01*
X175652Y26113D01*
X175603Y26052D01*
X175550Y25994D01*
X175494Y25938D01*
X175436Y25885D01*
X175375Y25836D01*
X175311Y25789D01*
X175246Y25745D01*
X175178Y25705D01*
X175108Y25668D01*
X175037Y25635D01*
X174964Y25605D01*
X174889Y25579D01*
X174814Y25557D01*
X174737Y25538D01*
X174660Y25524D01*
X174582Y25513D01*
X174503Y25506D01*
X174425Y25503D01*
X174346Y25504D01*
X174267Y25509D01*
X174189Y25518D01*
X174111Y25531D01*
X174034Y25547D01*
X173958Y25568D01*
X173883Y25592D01*
X173809Y25620D01*
X173737Y25651D01*
X173667Y25686D01*
X173598Y25725D01*
X173531Y25767D01*
X173467Y25812D01*
X173405Y25860D01*
X173345Y25911D01*
X173288Y25966D01*
X173287Y25965D02*
X171851Y27402D01*
X174724Y30276D01*
X174775Y30325D01*
X174829Y30371D01*
X174886Y30414D01*
X174944Y30454D01*
X175005Y30491D01*
X175067Y30525D01*
X175131Y30556D01*
X175196Y30583D01*
X175263Y30607D01*
X175331Y30627D01*
X175400Y30643D01*
X175470Y30656D01*
X175540Y30666D01*
X175611Y30671D01*
X175682Y30673D01*
X175753Y30671D01*
X175824Y30666D01*
X175894Y30656D01*
X175964Y30643D01*
X176033Y30627D01*
X176101Y30607D01*
X176168Y30583D01*
X176233Y30556D01*
X176297Y30525D01*
X176360Y30491D01*
X176420Y30454D01*
X176478Y30414D01*
X176535Y30371D01*
X176589Y30325D01*
X176640Y30276D01*
X177917Y28999D01*
X172078Y34838D02*
X168246Y31006D01*
X172078Y34838D02*
X170162Y36754D01*
X169523Y36115D01*
X169399Y41348D02*
X163652Y35601D01*
X165568Y37516D02*
X164929Y41987D01*
X165248Y39432D02*
X161098Y38155D01*
X155902Y43351D02*
X161649Y49098D01*
X155902Y43351D02*
X157498Y41754D01*
X157549Y41705D01*
X157603Y41659D01*
X157660Y41616D01*
X157718Y41576D01*
X157779Y41539D01*
X157841Y41505D01*
X157905Y41474D01*
X157970Y41447D01*
X158037Y41423D01*
X158105Y41403D01*
X158174Y41387D01*
X158244Y41374D01*
X158314Y41364D01*
X158385Y41359D01*
X158456Y41357D01*
X158527Y41359D01*
X158598Y41364D01*
X158668Y41374D01*
X158738Y41387D01*
X158807Y41403D01*
X158875Y41423D01*
X158942Y41447D01*
X159007Y41474D01*
X159071Y41505D01*
X159134Y41539D01*
X159194Y41576D01*
X159252Y41616D01*
X159309Y41659D01*
X159363Y41705D01*
X159414Y41754D01*
X161330Y43670D01*
X161379Y43721D01*
X161425Y43775D01*
X161468Y43832D01*
X161508Y43890D01*
X161545Y43951D01*
X161579Y44013D01*
X161610Y44077D01*
X161637Y44142D01*
X161661Y44209D01*
X161681Y44277D01*
X161697Y44346D01*
X161710Y44416D01*
X161720Y44486D01*
X161725Y44557D01*
X161727Y44628D01*
X161725Y44699D01*
X161720Y44770D01*
X161710Y44840D01*
X161697Y44910D01*
X161681Y44979D01*
X161661Y45047D01*
X161637Y45114D01*
X161610Y45179D01*
X161579Y45243D01*
X161545Y45306D01*
X161508Y45366D01*
X161468Y45424D01*
X161425Y45481D01*
X161379Y45535D01*
X161330Y45586D01*
X159733Y47182D01*
X151621Y47632D02*
X150024Y49228D01*
X151621Y47632D02*
X151672Y47583D01*
X151726Y47537D01*
X151783Y47494D01*
X151841Y47454D01*
X151902Y47417D01*
X151964Y47383D01*
X152028Y47352D01*
X152093Y47325D01*
X152160Y47301D01*
X152228Y47281D01*
X152297Y47265D01*
X152367Y47252D01*
X152437Y47242D01*
X152508Y47237D01*
X152579Y47235D01*
X152650Y47237D01*
X152721Y47242D01*
X152791Y47252D01*
X152861Y47265D01*
X152930Y47281D01*
X152998Y47301D01*
X153065Y47325D01*
X153130Y47352D01*
X153194Y47383D01*
X153257Y47417D01*
X153317Y47454D01*
X153375Y47494D01*
X153432Y47537D01*
X153486Y47583D01*
X153537Y47632D01*
X155133Y49228D01*
X155191Y49288D01*
X155245Y49351D01*
X155297Y49417D01*
X155346Y49484D01*
X155391Y49554D01*
X155434Y49626D01*
X155473Y49700D01*
X155508Y49776D01*
X155540Y49853D01*
X155568Y49931D01*
X155593Y50011D01*
X155614Y50092D01*
X155631Y50173D01*
X155645Y50255D01*
X155654Y50338D01*
X155660Y50422D01*
X155662Y50505D01*
X155660Y50588D01*
X155654Y50672D01*
X155645Y50755D01*
X155631Y50837D01*
X155614Y50918D01*
X155593Y50999D01*
X155568Y51079D01*
X155540Y51157D01*
X155508Y51234D01*
X155473Y51310D01*
X155434Y51384D01*
X155391Y51456D01*
X155346Y51526D01*
X155297Y51593D01*
X155245Y51659D01*
X155191Y51722D01*
X155133Y51782D01*
X155073Y51840D01*
X155010Y51894D01*
X154944Y51946D01*
X154877Y51995D01*
X154807Y52040D01*
X154735Y52083D01*
X154661Y52122D01*
X154585Y52157D01*
X154508Y52189D01*
X154430Y52217D01*
X154350Y52242D01*
X154269Y52263D01*
X154188Y52280D01*
X154105Y52294D01*
X154023Y52303D01*
X153939Y52309D01*
X153856Y52311D01*
X153773Y52309D01*
X153689Y52303D01*
X153606Y52294D01*
X153524Y52280D01*
X153442Y52263D01*
X153362Y52242D01*
X153282Y52217D01*
X153204Y52189D01*
X153127Y52157D01*
X153051Y52122D01*
X152977Y52083D01*
X152905Y52040D01*
X152835Y51995D01*
X152768Y51946D01*
X152702Y51894D01*
X152639Y51840D01*
X152579Y51782D01*
X152579Y51783D02*
X151940Y51144D01*
X154495Y48590D01*
X148731Y54991D02*
X146496Y55949D01*
X148732Y54992D02*
X148795Y54967D01*
X148859Y54946D01*
X148924Y54928D01*
X148991Y54915D01*
X149058Y54905D01*
X149125Y54899D01*
X149193Y54897D01*
X149261Y54899D01*
X149328Y54905D01*
X149395Y54915D01*
X149461Y54928D01*
X149527Y54946D01*
X149591Y54967D01*
X149654Y54992D01*
X149715Y55020D01*
X149775Y55052D01*
X149833Y55087D01*
X149888Y55126D01*
X149942Y55168D01*
X149992Y55212D01*
X150041Y55260D01*
X150086Y55310D01*
X150128Y55363D01*
X150167Y55418D01*
X150203Y55476D01*
X150236Y55535D01*
X150265Y55596D01*
X150290Y55659D01*
X150312Y55723D01*
X150330Y55788D01*
X150344Y55855D01*
X150355Y55921D01*
X150361Y55989D01*
X150364Y56057D01*
X150363Y56124D01*
X150357Y56192D01*
X150348Y56259D01*
X150335Y56325D01*
X150319Y56391D01*
X150298Y56455D01*
X150274Y56519D01*
X150246Y56580D01*
X150215Y56640D01*
X150180Y56698D01*
X150142Y56754D01*
X150101Y56808D01*
X150056Y56859D01*
X150009Y56908D01*
X150008Y56907D02*
X149907Y57003D01*
X149803Y57096D01*
X149696Y57186D01*
X149587Y57274D01*
X149476Y57358D01*
X149362Y57439D01*
X149246Y57518D01*
X149128Y57593D01*
X149008Y57664D01*
X148887Y57733D01*
X148763Y57798D01*
X148638Y57860D01*
X148511Y57918D01*
X148382Y57973D01*
X148252Y58024D01*
X146496Y55949D02*
X146433Y55974D01*
X146369Y55995D01*
X146304Y56013D01*
X146237Y56026D01*
X146170Y56036D01*
X146103Y56042D01*
X146035Y56044D01*
X145967Y56042D01*
X145900Y56036D01*
X145833Y56026D01*
X145767Y56013D01*
X145701Y55995D01*
X145637Y55974D01*
X145574Y55949D01*
X145513Y55921D01*
X145453Y55889D01*
X145395Y55854D01*
X145340Y55815D01*
X145286Y55773D01*
X145235Y55729D01*
X145187Y55681D01*
X145142Y55631D01*
X145100Y55578D01*
X145061Y55523D01*
X145025Y55465D01*
X144992Y55406D01*
X144963Y55345D01*
X144938Y55282D01*
X144916Y55218D01*
X144898Y55153D01*
X144884Y55086D01*
X144873Y55019D01*
X144867Y54952D01*
X144864Y54884D01*
X144865Y54817D01*
X144871Y54749D01*
X144880Y54682D01*
X144893Y54616D01*
X144909Y54550D01*
X144930Y54486D01*
X144954Y54422D01*
X144982Y54361D01*
X145013Y54301D01*
X145048Y54243D01*
X145086Y54187D01*
X145127Y54133D01*
X145172Y54082D01*
X145219Y54033D01*
X145219Y54034D02*
X145350Y53909D01*
X145485Y53788D01*
X145622Y53670D01*
X145762Y53555D01*
X145904Y53443D01*
X146049Y53335D01*
X146197Y53230D01*
X146347Y53128D01*
X146500Y53031D01*
X146654Y52937D01*
X146811Y52846D01*
X146970Y52759D01*
X147131Y52676D01*
X147294Y52597D01*
X141603Y57650D02*
X145435Y61481D01*
X147191Y62918D02*
X147510Y63237D01*
X147191Y63557D01*
X146871Y63237D01*
X147191Y62918D01*
X137886Y61367D02*
X136289Y62963D01*
X137886Y61367D02*
X137937Y61318D01*
X137991Y61272D01*
X138048Y61229D01*
X138106Y61189D01*
X138167Y61152D01*
X138229Y61118D01*
X138293Y61087D01*
X138358Y61060D01*
X138425Y61036D01*
X138493Y61016D01*
X138562Y61000D01*
X138632Y60987D01*
X138702Y60977D01*
X138773Y60972D01*
X138844Y60970D01*
X138915Y60972D01*
X138986Y60977D01*
X139056Y60987D01*
X139126Y61000D01*
X139195Y61016D01*
X139263Y61036D01*
X139330Y61060D01*
X139395Y61087D01*
X139459Y61118D01*
X139522Y61152D01*
X139582Y61189D01*
X139640Y61229D01*
X139697Y61272D01*
X139751Y61318D01*
X139802Y61367D01*
X139801Y61367D02*
X141717Y63283D01*
X141766Y63334D01*
X141812Y63388D01*
X141855Y63445D01*
X141895Y63503D01*
X141932Y63564D01*
X141966Y63626D01*
X141997Y63690D01*
X142024Y63755D01*
X142048Y63822D01*
X142068Y63890D01*
X142084Y63959D01*
X142097Y64029D01*
X142107Y64099D01*
X142112Y64170D01*
X142114Y64241D01*
X142112Y64312D01*
X142107Y64383D01*
X142097Y64453D01*
X142084Y64523D01*
X142068Y64592D01*
X142048Y64660D01*
X142024Y64727D01*
X141997Y64792D01*
X141966Y64856D01*
X141932Y64919D01*
X141895Y64979D01*
X141855Y65037D01*
X141812Y65094D01*
X141766Y65148D01*
X141717Y65199D01*
X140121Y66795D01*
X135331Y62006D01*
X135282Y61955D01*
X135236Y61901D01*
X135193Y61844D01*
X135153Y61786D01*
X135116Y61726D01*
X135082Y61663D01*
X135051Y61599D01*
X135024Y61534D01*
X135000Y61467D01*
X134980Y61399D01*
X134964Y61330D01*
X134951Y61260D01*
X134941Y61190D01*
X134936Y61119D01*
X134934Y61048D01*
X134936Y60977D01*
X134941Y60906D01*
X134951Y60836D01*
X134964Y60766D01*
X134980Y60697D01*
X135000Y60629D01*
X135024Y60562D01*
X135051Y60497D01*
X135082Y60433D01*
X135116Y60371D01*
X135153Y60310D01*
X135193Y60252D01*
X135236Y60195D01*
X135282Y60141D01*
X135331Y60090D01*
X136609Y58813D01*
X132751Y66502D02*
X136582Y70334D01*
X134986Y71930D01*
X134935Y71979D01*
X134881Y72025D01*
X134824Y72068D01*
X134766Y72108D01*
X134706Y72145D01*
X134643Y72179D01*
X134579Y72210D01*
X134514Y72237D01*
X134447Y72261D01*
X134379Y72281D01*
X134310Y72297D01*
X134240Y72310D01*
X134170Y72320D01*
X134099Y72325D01*
X134028Y72327D01*
X133957Y72325D01*
X133886Y72320D01*
X133816Y72310D01*
X133746Y72297D01*
X133677Y72281D01*
X133609Y72261D01*
X133542Y72237D01*
X133477Y72210D01*
X133413Y72179D01*
X133351Y72145D01*
X133290Y72108D01*
X133232Y72068D01*
X133175Y72025D01*
X133121Y71979D01*
X133070Y71930D01*
X130196Y69056D01*
X125960Y73292D02*
X124683Y74569D01*
X125960Y73292D02*
X126011Y73243D01*
X126065Y73197D01*
X126122Y73154D01*
X126180Y73114D01*
X126241Y73077D01*
X126303Y73043D01*
X126367Y73012D01*
X126432Y72985D01*
X126499Y72961D01*
X126567Y72941D01*
X126636Y72925D01*
X126706Y72912D01*
X126776Y72902D01*
X126847Y72897D01*
X126918Y72895D01*
X126989Y72897D01*
X127060Y72902D01*
X127130Y72912D01*
X127200Y72925D01*
X127269Y72941D01*
X127337Y72961D01*
X127404Y72985D01*
X127469Y73012D01*
X127533Y73043D01*
X127596Y73077D01*
X127656Y73114D01*
X127714Y73154D01*
X127771Y73197D01*
X127825Y73243D01*
X127876Y73292D01*
X129792Y75208D01*
X129841Y75259D01*
X129887Y75313D01*
X129930Y75370D01*
X129970Y75428D01*
X130007Y75489D01*
X130041Y75551D01*
X130072Y75615D01*
X130099Y75680D01*
X130123Y75747D01*
X130143Y75815D01*
X130159Y75884D01*
X130172Y75954D01*
X130182Y76024D01*
X130187Y76095D01*
X130189Y76166D01*
X130187Y76237D01*
X130182Y76308D01*
X130172Y76378D01*
X130159Y76448D01*
X130143Y76517D01*
X130123Y76585D01*
X130099Y76652D01*
X130072Y76717D01*
X130041Y76781D01*
X130007Y76844D01*
X129970Y76904D01*
X129930Y76962D01*
X129887Y77019D01*
X129841Y77073D01*
X129792Y77124D01*
X128515Y78401D01*
X127735Y83012D02*
X122946Y78223D01*
X122946Y78222D02*
X122893Y78171D01*
X122837Y78124D01*
X122779Y78079D01*
X122718Y78038D01*
X122655Y78000D01*
X122590Y77966D01*
X122523Y77935D01*
X122455Y77908D01*
X122386Y77885D01*
X122315Y77865D01*
X122243Y77849D01*
X122171Y77837D01*
X122098Y77829D01*
X122025Y77825D01*
X121951Y77825D01*
X121878Y77829D01*
X121805Y77837D01*
X121733Y77849D01*
X121661Y77865D01*
X121590Y77885D01*
X121521Y77908D01*
X121453Y77935D01*
X121386Y77966D01*
X121321Y78000D01*
X121258Y78038D01*
X121198Y78079D01*
X121139Y78124D01*
X121083Y78171D01*
X121030Y78222D01*
X119268Y81900D02*
X122142Y84774D01*
X119269Y81900D02*
X119216Y81849D01*
X119160Y81802D01*
X119102Y81757D01*
X119041Y81716D01*
X118978Y81678D01*
X118913Y81644D01*
X118846Y81613D01*
X118778Y81586D01*
X118709Y81563D01*
X118638Y81543D01*
X118566Y81527D01*
X118494Y81515D01*
X118421Y81507D01*
X118348Y81503D01*
X118274Y81503D01*
X118201Y81507D01*
X118128Y81515D01*
X118056Y81527D01*
X117984Y81543D01*
X117913Y81563D01*
X117844Y81586D01*
X117776Y81613D01*
X117709Y81644D01*
X117644Y81678D01*
X117581Y81716D01*
X117521Y81757D01*
X117462Y81802D01*
X117406Y81849D01*
X117353Y81900D01*
X115756Y83496D01*
X119588Y87328D01*
X117965Y92782D02*
X112218Y87035D01*
X110621Y88632D01*
X110621Y88631D02*
X110572Y88682D01*
X110526Y88736D01*
X110483Y88793D01*
X110443Y88851D01*
X110406Y88912D01*
X110372Y88974D01*
X110341Y89038D01*
X110314Y89103D01*
X110290Y89170D01*
X110270Y89238D01*
X110254Y89307D01*
X110241Y89377D01*
X110231Y89447D01*
X110226Y89518D01*
X110224Y89589D01*
X110226Y89660D01*
X110231Y89731D01*
X110241Y89801D01*
X110254Y89871D01*
X110270Y89940D01*
X110290Y90008D01*
X110314Y90075D01*
X110341Y90140D01*
X110372Y90204D01*
X110406Y90267D01*
X110443Y90327D01*
X110483Y90385D01*
X110526Y90442D01*
X110572Y90496D01*
X110621Y90547D01*
X112537Y92463D01*
X112588Y92512D01*
X112642Y92558D01*
X112699Y92601D01*
X112757Y92641D01*
X112818Y92678D01*
X112880Y92712D01*
X112944Y92743D01*
X113009Y92770D01*
X113076Y92794D01*
X113144Y92814D01*
X113213Y92830D01*
X113283Y92843D01*
X113353Y92853D01*
X113424Y92858D01*
X113495Y92860D01*
X113566Y92858D01*
X113637Y92853D01*
X113707Y92843D01*
X113777Y92830D01*
X113846Y92814D01*
X113914Y92794D01*
X113981Y92770D01*
X114046Y92743D01*
X114110Y92712D01*
X114173Y92678D01*
X114233Y92641D01*
X114291Y92601D01*
X114348Y92558D01*
X114402Y92512D01*
X114453Y92463D01*
X116049Y90867D01*
X81948Y16774D02*
X79713Y17732D01*
X81949Y16775D02*
X82012Y16750D01*
X82076Y16729D01*
X82141Y16711D01*
X82208Y16698D01*
X82275Y16688D01*
X82342Y16682D01*
X82410Y16680D01*
X82478Y16682D01*
X82545Y16688D01*
X82612Y16698D01*
X82678Y16711D01*
X82744Y16729D01*
X82808Y16750D01*
X82871Y16775D01*
X82932Y16803D01*
X82992Y16835D01*
X83050Y16870D01*
X83105Y16909D01*
X83159Y16951D01*
X83209Y16995D01*
X83258Y17043D01*
X83303Y17093D01*
X83345Y17146D01*
X83384Y17201D01*
X83420Y17259D01*
X83453Y17318D01*
X83482Y17379D01*
X83507Y17442D01*
X83529Y17506D01*
X83547Y17571D01*
X83561Y17638D01*
X83572Y17704D01*
X83578Y17772D01*
X83581Y17840D01*
X83580Y17907D01*
X83574Y17975D01*
X83565Y18042D01*
X83552Y18108D01*
X83536Y18174D01*
X83515Y18238D01*
X83491Y18302D01*
X83463Y18363D01*
X83432Y18423D01*
X83397Y18481D01*
X83359Y18537D01*
X83318Y18591D01*
X83273Y18642D01*
X83226Y18691D01*
X83225Y18690D02*
X83124Y18786D01*
X83020Y18879D01*
X82913Y18969D01*
X82804Y19057D01*
X82693Y19141D01*
X82579Y19222D01*
X82463Y19301D01*
X82345Y19376D01*
X82225Y19447D01*
X82104Y19516D01*
X81980Y19581D01*
X81855Y19643D01*
X81728Y19701D01*
X81599Y19756D01*
X81469Y19807D01*
X79713Y17732D02*
X79650Y17757D01*
X79586Y17778D01*
X79521Y17796D01*
X79454Y17809D01*
X79387Y17819D01*
X79320Y17825D01*
X79252Y17827D01*
X79184Y17825D01*
X79117Y17819D01*
X79050Y17809D01*
X78984Y17796D01*
X78918Y17778D01*
X78854Y17757D01*
X78791Y17732D01*
X78730Y17704D01*
X78670Y17672D01*
X78612Y17637D01*
X78557Y17598D01*
X78503Y17556D01*
X78452Y17512D01*
X78404Y17464D01*
X78359Y17414D01*
X78317Y17361D01*
X78278Y17306D01*
X78242Y17248D01*
X78209Y17189D01*
X78180Y17128D01*
X78155Y17065D01*
X78133Y17001D01*
X78115Y16936D01*
X78101Y16869D01*
X78090Y16802D01*
X78084Y16735D01*
X78081Y16667D01*
X78082Y16600D01*
X78088Y16532D01*
X78097Y16465D01*
X78110Y16399D01*
X78126Y16333D01*
X78147Y16269D01*
X78171Y16205D01*
X78199Y16144D01*
X78230Y16084D01*
X78265Y16026D01*
X78303Y15970D01*
X78344Y15916D01*
X78389Y15865D01*
X78436Y15816D01*
X78437Y15817D02*
X78568Y15692D01*
X78703Y15571D01*
X78840Y15453D01*
X78980Y15338D01*
X79122Y15226D01*
X79267Y15118D01*
X79415Y15013D01*
X79565Y14911D01*
X79718Y14814D01*
X79872Y14720D01*
X80029Y14629D01*
X80188Y14542D01*
X80349Y14459D01*
X80512Y14380D01*
X72399Y18022D02*
X78146Y23769D01*
X76550Y25366D01*
X76499Y25415D01*
X76445Y25461D01*
X76388Y25504D01*
X76330Y25544D01*
X76270Y25581D01*
X76207Y25615D01*
X76143Y25646D01*
X76078Y25673D01*
X76011Y25697D01*
X75943Y25717D01*
X75874Y25733D01*
X75804Y25746D01*
X75734Y25756D01*
X75663Y25761D01*
X75592Y25763D01*
X75521Y25761D01*
X75450Y25756D01*
X75380Y25746D01*
X75310Y25733D01*
X75241Y25717D01*
X75173Y25697D01*
X75106Y25673D01*
X75041Y25646D01*
X74977Y25615D01*
X74915Y25581D01*
X74854Y25544D01*
X74796Y25504D01*
X74739Y25461D01*
X74685Y25415D01*
X74634Y25366D01*
X72718Y23450D01*
X72667Y23397D01*
X72620Y23341D01*
X72575Y23283D01*
X72534Y23222D01*
X72496Y23159D01*
X72462Y23094D01*
X72431Y23027D01*
X72404Y22959D01*
X72381Y22890D01*
X72361Y22819D01*
X72345Y22747D01*
X72333Y22675D01*
X72325Y22602D01*
X72321Y22529D01*
X72321Y22455D01*
X72325Y22382D01*
X72333Y22309D01*
X72345Y22237D01*
X72361Y22165D01*
X72381Y22094D01*
X72404Y22025D01*
X72431Y21957D01*
X72462Y21890D01*
X72496Y21825D01*
X72534Y21762D01*
X72575Y21702D01*
X72620Y21643D01*
X72667Y21587D01*
X72718Y21534D01*
X74315Y19938D01*
X69945Y28777D02*
X68509Y30214D01*
X69945Y28777D02*
X70000Y28720D01*
X70051Y28660D01*
X70099Y28598D01*
X70144Y28534D01*
X70186Y28467D01*
X70225Y28398D01*
X70260Y28328D01*
X70291Y28256D01*
X70319Y28182D01*
X70343Y28107D01*
X70364Y28031D01*
X70380Y27954D01*
X70393Y27876D01*
X70402Y27798D01*
X70407Y27719D01*
X70408Y27640D01*
X70405Y27562D01*
X70398Y27483D01*
X70387Y27405D01*
X70373Y27328D01*
X70354Y27251D01*
X70332Y27175D01*
X70306Y27101D01*
X70276Y27028D01*
X70243Y26957D01*
X70206Y26887D01*
X70166Y26819D01*
X70122Y26754D01*
X70075Y26690D01*
X70026Y26629D01*
X69973Y26571D01*
X69917Y26515D01*
X69859Y26462D01*
X69798Y26413D01*
X69734Y26366D01*
X69669Y26322D01*
X69601Y26282D01*
X69531Y26245D01*
X69460Y26212D01*
X69387Y26182D01*
X69312Y26156D01*
X69237Y26134D01*
X69160Y26115D01*
X69083Y26101D01*
X69005Y26090D01*
X68926Y26083D01*
X68848Y26080D01*
X68769Y26081D01*
X68690Y26086D01*
X68612Y26095D01*
X68534Y26108D01*
X68457Y26124D01*
X68381Y26145D01*
X68306Y26169D01*
X68232Y26197D01*
X68160Y26228D01*
X68090Y26263D01*
X68021Y26302D01*
X67954Y26344D01*
X67890Y26389D01*
X67828Y26437D01*
X67768Y26488D01*
X67711Y26543D01*
X67710Y26542D02*
X66273Y27979D01*
X69147Y30853D01*
X69198Y30902D01*
X69252Y30948D01*
X69309Y30991D01*
X69367Y31031D01*
X69428Y31068D01*
X69490Y31102D01*
X69554Y31133D01*
X69619Y31160D01*
X69686Y31184D01*
X69754Y31204D01*
X69823Y31220D01*
X69893Y31233D01*
X69963Y31243D01*
X70034Y31248D01*
X70105Y31250D01*
X70176Y31248D01*
X70247Y31243D01*
X70317Y31233D01*
X70387Y31220D01*
X70456Y31204D01*
X70524Y31184D01*
X70591Y31160D01*
X70656Y31133D01*
X70720Y31102D01*
X70783Y31068D01*
X70843Y31031D01*
X70901Y30991D01*
X70958Y30948D01*
X71012Y30902D01*
X71063Y30853D01*
X72340Y29576D01*
X66501Y35415D02*
X62669Y31584D01*
X66501Y35415D02*
X64585Y37331D01*
X63946Y36692D01*
X63822Y41925D02*
X58075Y36178D01*
X59991Y38094D02*
X59352Y42564D01*
X59671Y40009D02*
X55520Y38732D01*
X53212Y41041D02*
X53531Y41360D01*
X53212Y41679D01*
X52893Y41360D01*
X53212Y41041D01*
X51991Y46732D02*
X49756Y47690D01*
X51991Y46732D02*
X52054Y46707D01*
X52118Y46686D01*
X52183Y46668D01*
X52250Y46655D01*
X52317Y46645D01*
X52384Y46639D01*
X52452Y46637D01*
X52520Y46639D01*
X52587Y46645D01*
X52654Y46655D01*
X52720Y46668D01*
X52786Y46686D01*
X52850Y46707D01*
X52913Y46732D01*
X52974Y46760D01*
X53034Y46792D01*
X53092Y46827D01*
X53147Y46866D01*
X53201Y46908D01*
X53251Y46952D01*
X53300Y47000D01*
X53345Y47050D01*
X53387Y47103D01*
X53426Y47158D01*
X53462Y47216D01*
X53495Y47275D01*
X53524Y47336D01*
X53549Y47399D01*
X53571Y47463D01*
X53589Y47528D01*
X53603Y47595D01*
X53614Y47661D01*
X53620Y47729D01*
X53623Y47797D01*
X53622Y47864D01*
X53616Y47932D01*
X53607Y47999D01*
X53594Y48065D01*
X53578Y48131D01*
X53557Y48195D01*
X53533Y48259D01*
X53505Y48320D01*
X53474Y48380D01*
X53439Y48438D01*
X53401Y48494D01*
X53360Y48548D01*
X53315Y48599D01*
X53268Y48648D01*
X53267Y48648D02*
X53166Y48744D01*
X53062Y48837D01*
X52955Y48927D01*
X52846Y49015D01*
X52735Y49099D01*
X52621Y49180D01*
X52505Y49259D01*
X52387Y49334D01*
X52267Y49405D01*
X52146Y49474D01*
X52022Y49539D01*
X51897Y49601D01*
X51770Y49659D01*
X51641Y49714D01*
X51511Y49765D01*
X49755Y47690D02*
X49692Y47715D01*
X49628Y47736D01*
X49563Y47754D01*
X49496Y47767D01*
X49429Y47777D01*
X49362Y47783D01*
X49294Y47785D01*
X49226Y47783D01*
X49159Y47777D01*
X49092Y47767D01*
X49026Y47754D01*
X48960Y47736D01*
X48896Y47715D01*
X48833Y47690D01*
X48772Y47662D01*
X48712Y47630D01*
X48654Y47595D01*
X48599Y47556D01*
X48545Y47514D01*
X48494Y47470D01*
X48446Y47422D01*
X48401Y47372D01*
X48359Y47319D01*
X48320Y47264D01*
X48284Y47206D01*
X48251Y47147D01*
X48222Y47086D01*
X48197Y47023D01*
X48175Y46959D01*
X48157Y46894D01*
X48143Y46827D01*
X48132Y46760D01*
X48126Y46693D01*
X48123Y46625D01*
X48124Y46558D01*
X48130Y46490D01*
X48139Y46423D01*
X48152Y46357D01*
X48168Y46291D01*
X48189Y46227D01*
X48213Y46163D01*
X48241Y46102D01*
X48272Y46042D01*
X48307Y45984D01*
X48345Y45928D01*
X48386Y45874D01*
X48431Y45823D01*
X48478Y45774D01*
X48479Y45774D02*
X48610Y45649D01*
X48745Y45528D01*
X48882Y45410D01*
X49022Y45295D01*
X49164Y45183D01*
X49309Y45075D01*
X49457Y44970D01*
X49607Y44868D01*
X49760Y44771D01*
X49914Y44677D01*
X50071Y44586D01*
X50230Y44499D01*
X50391Y44416D01*
X50554Y44337D01*
X44281Y49971D02*
X50029Y55719D01*
X45558Y56357D02*
X46197Y51887D01*
X45878Y53803D02*
X41727Y52526D01*
X39770Y56399D02*
X42643Y59273D01*
X39770Y56399D02*
X39717Y56348D01*
X39661Y56301D01*
X39603Y56256D01*
X39542Y56215D01*
X39479Y56177D01*
X39414Y56143D01*
X39347Y56112D01*
X39279Y56085D01*
X39210Y56062D01*
X39139Y56042D01*
X39067Y56026D01*
X38995Y56014D01*
X38922Y56006D01*
X38849Y56002D01*
X38775Y56002D01*
X38702Y56006D01*
X38629Y56014D01*
X38557Y56026D01*
X38485Y56042D01*
X38414Y56062D01*
X38345Y56085D01*
X38277Y56112D01*
X38210Y56143D01*
X38145Y56177D01*
X38082Y56215D01*
X38022Y56256D01*
X37963Y56301D01*
X37907Y56348D01*
X37854Y56399D01*
X36257Y57995D01*
X40089Y61827D01*
X38753Y66994D02*
X33964Y62204D01*
X33911Y62153D01*
X33855Y62106D01*
X33797Y62061D01*
X33736Y62020D01*
X33673Y61982D01*
X33608Y61948D01*
X33541Y61917D01*
X33473Y61890D01*
X33404Y61867D01*
X33333Y61847D01*
X33261Y61831D01*
X33189Y61819D01*
X33116Y61811D01*
X33043Y61807D01*
X32969Y61807D01*
X32896Y61811D01*
X32823Y61819D01*
X32751Y61831D01*
X32679Y61847D01*
X32608Y61867D01*
X32539Y61890D01*
X32471Y61917D01*
X32404Y61948D01*
X32339Y61982D01*
X32276Y62020D01*
X32216Y62061D01*
X32157Y62106D01*
X32101Y62153D01*
X32048Y62204D01*
X28586Y65666D02*
X26990Y67263D01*
X28586Y65666D02*
X28637Y65617D01*
X28691Y65571D01*
X28748Y65528D01*
X28806Y65488D01*
X28867Y65451D01*
X28929Y65417D01*
X28993Y65386D01*
X29058Y65359D01*
X29125Y65335D01*
X29193Y65315D01*
X29262Y65299D01*
X29332Y65286D01*
X29402Y65276D01*
X29473Y65271D01*
X29544Y65269D01*
X29615Y65271D01*
X29686Y65276D01*
X29756Y65286D01*
X29826Y65299D01*
X29895Y65315D01*
X29963Y65335D01*
X30030Y65359D01*
X30095Y65386D01*
X30159Y65417D01*
X30222Y65451D01*
X30282Y65488D01*
X30340Y65528D01*
X30397Y65571D01*
X30451Y65617D01*
X30502Y65666D01*
X32099Y67263D01*
X32098Y67263D02*
X32156Y67323D01*
X32210Y67386D01*
X32262Y67452D01*
X32311Y67519D01*
X32356Y67589D01*
X32399Y67661D01*
X32438Y67735D01*
X32473Y67811D01*
X32505Y67888D01*
X32533Y67966D01*
X32558Y68046D01*
X32579Y68127D01*
X32596Y68208D01*
X32610Y68290D01*
X32619Y68373D01*
X32625Y68457D01*
X32627Y68540D01*
X32625Y68623D01*
X32619Y68707D01*
X32610Y68790D01*
X32596Y68872D01*
X32579Y68953D01*
X32558Y69034D01*
X32533Y69114D01*
X32505Y69192D01*
X32473Y69269D01*
X32438Y69345D01*
X32399Y69419D01*
X32356Y69491D01*
X32311Y69561D01*
X32262Y69628D01*
X32210Y69694D01*
X32156Y69757D01*
X32098Y69817D01*
X32038Y69875D01*
X31975Y69929D01*
X31909Y69981D01*
X31842Y70030D01*
X31772Y70075D01*
X31700Y70118D01*
X31626Y70157D01*
X31550Y70192D01*
X31473Y70224D01*
X31395Y70252D01*
X31315Y70277D01*
X31234Y70298D01*
X31153Y70315D01*
X31070Y70329D01*
X30988Y70338D01*
X30904Y70344D01*
X30821Y70346D01*
X30738Y70344D01*
X30654Y70338D01*
X30571Y70329D01*
X30489Y70315D01*
X30407Y70298D01*
X30327Y70277D01*
X30247Y70252D01*
X30169Y70224D01*
X30092Y70192D01*
X30016Y70157D01*
X29942Y70118D01*
X29870Y70075D01*
X29800Y70030D01*
X29733Y69981D01*
X29667Y69929D01*
X29604Y69875D01*
X29544Y69817D01*
X28906Y69179D01*
X31460Y66624D01*
X24651Y70240D02*
X24332Y69921D01*
X24651Y70240D02*
X24332Y70560D01*
X24012Y70240D01*
X24332Y69921D01*
X20383Y73869D02*
X19106Y75147D01*
X20383Y73869D02*
X20434Y73820D01*
X20488Y73774D01*
X20545Y73731D01*
X20603Y73691D01*
X20664Y73654D01*
X20726Y73620D01*
X20790Y73589D01*
X20855Y73562D01*
X20922Y73538D01*
X20990Y73518D01*
X21059Y73502D01*
X21129Y73489D01*
X21199Y73479D01*
X21270Y73474D01*
X21341Y73472D01*
X21412Y73474D01*
X21483Y73479D01*
X21553Y73489D01*
X21623Y73502D01*
X21692Y73518D01*
X21760Y73538D01*
X21827Y73562D01*
X21892Y73589D01*
X21956Y73620D01*
X22019Y73654D01*
X22079Y73691D01*
X22137Y73731D01*
X22194Y73774D01*
X22248Y73820D01*
X22299Y73869D01*
X24215Y75785D01*
X24264Y75836D01*
X24310Y75890D01*
X24353Y75947D01*
X24393Y76005D01*
X24430Y76066D01*
X24464Y76128D01*
X24495Y76192D01*
X24522Y76257D01*
X24546Y76324D01*
X24566Y76392D01*
X24582Y76461D01*
X24595Y76531D01*
X24605Y76601D01*
X24610Y76672D01*
X24612Y76743D01*
X24610Y76814D01*
X24605Y76885D01*
X24595Y76955D01*
X24582Y77025D01*
X24566Y77094D01*
X24546Y77162D01*
X24522Y77229D01*
X24495Y77294D01*
X24464Y77358D01*
X24430Y77421D01*
X24393Y77481D01*
X24353Y77539D01*
X24310Y77596D01*
X24264Y77650D01*
X24215Y77701D01*
X22938Y78978D01*
X17573Y81150D02*
X16136Y82587D01*
X17573Y81149D02*
X17628Y81092D01*
X17679Y81032D01*
X17727Y80970D01*
X17772Y80906D01*
X17814Y80839D01*
X17853Y80770D01*
X17888Y80700D01*
X17919Y80628D01*
X17947Y80554D01*
X17971Y80479D01*
X17992Y80403D01*
X18008Y80326D01*
X18021Y80248D01*
X18030Y80170D01*
X18035Y80091D01*
X18036Y80012D01*
X18033Y79934D01*
X18026Y79855D01*
X18015Y79777D01*
X18001Y79700D01*
X17982Y79623D01*
X17960Y79547D01*
X17934Y79473D01*
X17904Y79400D01*
X17871Y79329D01*
X17834Y79259D01*
X17794Y79191D01*
X17750Y79126D01*
X17703Y79062D01*
X17654Y79001D01*
X17601Y78943D01*
X17545Y78887D01*
X17487Y78834D01*
X17426Y78785D01*
X17362Y78738D01*
X17297Y78694D01*
X17229Y78654D01*
X17159Y78617D01*
X17088Y78584D01*
X17015Y78554D01*
X16940Y78528D01*
X16865Y78506D01*
X16788Y78487D01*
X16711Y78473D01*
X16633Y78462D01*
X16554Y78455D01*
X16476Y78452D01*
X16397Y78453D01*
X16318Y78458D01*
X16240Y78467D01*
X16162Y78480D01*
X16085Y78496D01*
X16009Y78517D01*
X15934Y78541D01*
X15860Y78569D01*
X15788Y78600D01*
X15718Y78635D01*
X15649Y78674D01*
X15582Y78716D01*
X15518Y78761D01*
X15456Y78809D01*
X15396Y78860D01*
X15339Y78915D01*
X15338Y78915D02*
X13901Y80351D01*
X16775Y83225D01*
X16826Y83274D01*
X16880Y83320D01*
X16937Y83363D01*
X16995Y83403D01*
X17056Y83440D01*
X17118Y83474D01*
X17182Y83505D01*
X17247Y83532D01*
X17314Y83556D01*
X17382Y83576D01*
X17451Y83592D01*
X17521Y83605D01*
X17591Y83615D01*
X17662Y83620D01*
X17733Y83622D01*
X17804Y83620D01*
X17875Y83615D01*
X17945Y83605D01*
X18015Y83592D01*
X18084Y83576D01*
X18152Y83556D01*
X18219Y83532D01*
X18284Y83505D01*
X18348Y83474D01*
X18411Y83440D01*
X18471Y83403D01*
X18529Y83363D01*
X18586Y83320D01*
X18640Y83274D01*
X18691Y83225D01*
X19968Y81948D01*
X200372Y115856D02*
X202178Y115856D01*
X202261Y115858D01*
X202345Y115864D01*
X202428Y115873D01*
X202510Y115887D01*
X202591Y115904D01*
X202672Y115925D01*
X202752Y115950D01*
X202830Y115978D01*
X202907Y116010D01*
X202983Y116045D01*
X203057Y116084D01*
X203129Y116127D01*
X203199Y116172D01*
X203266Y116221D01*
X203332Y116273D01*
X203395Y116327D01*
X203455Y116385D01*
X203513Y116445D01*
X203567Y116508D01*
X203619Y116574D01*
X203668Y116641D01*
X203714Y116711D01*
X203756Y116783D01*
X203795Y116857D01*
X203830Y116933D01*
X203862Y117010D01*
X203890Y117088D01*
X203915Y117168D01*
X203936Y117249D01*
X203953Y117330D01*
X203967Y117413D01*
X203976Y117495D01*
X203982Y117579D01*
X203984Y117662D01*
X203984Y122178D01*
X203982Y122261D01*
X203976Y122345D01*
X203967Y122428D01*
X203953Y122510D01*
X203936Y122591D01*
X203915Y122672D01*
X203890Y122752D01*
X203862Y122830D01*
X203830Y122907D01*
X203795Y122983D01*
X203756Y123057D01*
X203714Y123129D01*
X203668Y123199D01*
X203619Y123266D01*
X203567Y123332D01*
X203513Y123395D01*
X203455Y123455D01*
X203395Y123513D01*
X203332Y123567D01*
X203266Y123619D01*
X203199Y123668D01*
X203129Y123713D01*
X203057Y123756D01*
X202983Y123795D01*
X202908Y123830D01*
X202830Y123862D01*
X202752Y123890D01*
X202672Y123915D01*
X202592Y123936D01*
X202510Y123953D01*
X202428Y123967D01*
X202345Y123976D01*
X202261Y123982D01*
X202178Y123984D01*
X200372Y123984D01*
X196171Y123984D02*
X196171Y115856D01*
X196171Y121275D02*
X193913Y121275D01*
X193840Y121273D01*
X193767Y121267D01*
X193694Y121257D01*
X193622Y121243D01*
X193551Y121226D01*
X193480Y121204D01*
X193411Y121179D01*
X193344Y121150D01*
X193278Y121117D01*
X193214Y121081D01*
X193153Y121042D01*
X193093Y120999D01*
X193036Y120953D01*
X192981Y120904D01*
X192929Y120852D01*
X192880Y120797D01*
X192834Y120740D01*
X192792Y120680D01*
X192752Y120619D01*
X192716Y120555D01*
X192683Y120489D01*
X192654Y120422D01*
X192629Y120353D01*
X192607Y120283D01*
X192590Y120211D01*
X192576Y120139D01*
X192566Y120067D01*
X192560Y119993D01*
X192558Y119920D01*
X192558Y115856D01*
X186587Y115856D02*
X184329Y115856D01*
X186587Y115856D02*
X186658Y115858D01*
X186729Y115863D01*
X186799Y115873D01*
X186869Y115886D01*
X186938Y115902D01*
X187006Y115922D01*
X187073Y115946D01*
X187138Y115973D01*
X187202Y116004D01*
X187265Y116038D01*
X187325Y116075D01*
X187383Y116115D01*
X187440Y116158D01*
X187494Y116204D01*
X187545Y116253D01*
X187594Y116304D01*
X187640Y116358D01*
X187683Y116415D01*
X187723Y116473D01*
X187760Y116534D01*
X187794Y116596D01*
X187825Y116660D01*
X187852Y116725D01*
X187876Y116792D01*
X187896Y116860D01*
X187912Y116929D01*
X187925Y116999D01*
X187935Y117069D01*
X187940Y117140D01*
X187942Y117211D01*
X187941Y117211D02*
X187941Y119468D01*
X187939Y119551D01*
X187933Y119635D01*
X187924Y119718D01*
X187910Y119800D01*
X187893Y119881D01*
X187872Y119962D01*
X187847Y120042D01*
X187819Y120120D01*
X187787Y120197D01*
X187752Y120273D01*
X187713Y120347D01*
X187670Y120419D01*
X187625Y120489D01*
X187576Y120556D01*
X187524Y120622D01*
X187470Y120685D01*
X187412Y120745D01*
X187352Y120803D01*
X187289Y120857D01*
X187223Y120909D01*
X187156Y120958D01*
X187086Y121003D01*
X187014Y121046D01*
X186940Y121085D01*
X186864Y121120D01*
X186787Y121152D01*
X186709Y121180D01*
X186629Y121205D01*
X186548Y121226D01*
X186467Y121243D01*
X186385Y121257D01*
X186302Y121266D01*
X186218Y121272D01*
X186135Y121274D01*
X186052Y121272D01*
X185968Y121266D01*
X185885Y121257D01*
X185803Y121243D01*
X185722Y121226D01*
X185641Y121205D01*
X185561Y121180D01*
X185483Y121152D01*
X185406Y121120D01*
X185330Y121085D01*
X185256Y121046D01*
X185184Y121003D01*
X185114Y120958D01*
X185047Y120909D01*
X184981Y120857D01*
X184918Y120803D01*
X184858Y120745D01*
X184800Y120685D01*
X184746Y120622D01*
X184694Y120556D01*
X184645Y120489D01*
X184600Y120419D01*
X184557Y120347D01*
X184518Y120273D01*
X184483Y120197D01*
X184451Y120120D01*
X184423Y120042D01*
X184398Y119962D01*
X184377Y119881D01*
X184360Y119800D01*
X184346Y119718D01*
X184337Y119635D01*
X184331Y119551D01*
X184329Y119468D01*
X184329Y118565D01*
X187941Y118565D01*
X178643Y115856D02*
X176837Y115856D01*
X178643Y115856D02*
X178714Y115858D01*
X178785Y115863D01*
X178855Y115873D01*
X178925Y115886D01*
X178994Y115902D01*
X179062Y115922D01*
X179129Y115946D01*
X179194Y115973D01*
X179258Y116004D01*
X179321Y116038D01*
X179381Y116075D01*
X179439Y116115D01*
X179496Y116158D01*
X179550Y116204D01*
X179601Y116253D01*
X179650Y116304D01*
X179696Y116358D01*
X179739Y116415D01*
X179779Y116473D01*
X179816Y116534D01*
X179850Y116596D01*
X179881Y116660D01*
X179908Y116725D01*
X179932Y116792D01*
X179952Y116860D01*
X179968Y116929D01*
X179981Y116999D01*
X179991Y117069D01*
X179996Y117140D01*
X179998Y117211D01*
X179998Y119920D01*
X179996Y119991D01*
X179991Y120062D01*
X179981Y120132D01*
X179968Y120202D01*
X179952Y120271D01*
X179932Y120339D01*
X179908Y120406D01*
X179881Y120471D01*
X179850Y120535D01*
X179816Y120598D01*
X179779Y120658D01*
X179739Y120716D01*
X179696Y120773D01*
X179650Y120827D01*
X179601Y120878D01*
X179550Y120927D01*
X179496Y120973D01*
X179439Y121016D01*
X179381Y121056D01*
X179321Y121093D01*
X179258Y121127D01*
X179194Y121158D01*
X179129Y121185D01*
X179062Y121209D01*
X178994Y121229D01*
X178925Y121245D01*
X178855Y121258D01*
X178785Y121268D01*
X178714Y121273D01*
X178643Y121275D01*
X176837Y121275D01*
X172512Y123984D02*
X172512Y115856D01*
X172512Y118565D02*
X168899Y121275D01*
X170931Y119694D02*
X168899Y115856D01*
X160205Y117662D02*
X160205Y119468D01*
X160204Y119468D02*
X160202Y119551D01*
X160196Y119635D01*
X160187Y119718D01*
X160173Y119800D01*
X160156Y119881D01*
X160135Y119962D01*
X160110Y120042D01*
X160082Y120120D01*
X160050Y120197D01*
X160015Y120273D01*
X159976Y120347D01*
X159933Y120419D01*
X159888Y120489D01*
X159839Y120556D01*
X159787Y120622D01*
X159733Y120685D01*
X159675Y120745D01*
X159615Y120803D01*
X159552Y120857D01*
X159486Y120909D01*
X159419Y120958D01*
X159349Y121003D01*
X159277Y121046D01*
X159203Y121085D01*
X159127Y121120D01*
X159050Y121152D01*
X158972Y121180D01*
X158892Y121205D01*
X158811Y121226D01*
X158730Y121243D01*
X158648Y121257D01*
X158565Y121266D01*
X158481Y121272D01*
X158398Y121274D01*
X158315Y121272D01*
X158231Y121266D01*
X158148Y121257D01*
X158066Y121243D01*
X157985Y121226D01*
X157904Y121205D01*
X157824Y121180D01*
X157746Y121152D01*
X157669Y121120D01*
X157593Y121085D01*
X157519Y121046D01*
X157447Y121003D01*
X157377Y120958D01*
X157310Y120909D01*
X157244Y120857D01*
X157181Y120803D01*
X157121Y120745D01*
X157063Y120685D01*
X157009Y120622D01*
X156957Y120556D01*
X156908Y120489D01*
X156863Y120419D01*
X156820Y120347D01*
X156781Y120273D01*
X156746Y120197D01*
X156714Y120120D01*
X156686Y120042D01*
X156661Y119962D01*
X156640Y119881D01*
X156623Y119800D01*
X156609Y119718D01*
X156600Y119635D01*
X156594Y119551D01*
X156592Y119468D01*
X156592Y117662D01*
X156594Y117579D01*
X156600Y117495D01*
X156609Y117412D01*
X156623Y117330D01*
X156640Y117249D01*
X156661Y117168D01*
X156686Y117088D01*
X156714Y117010D01*
X156746Y116933D01*
X156781Y116857D01*
X156820Y116783D01*
X156863Y116711D01*
X156908Y116641D01*
X156957Y116574D01*
X157009Y116508D01*
X157063Y116445D01*
X157121Y116385D01*
X157181Y116327D01*
X157244Y116273D01*
X157310Y116221D01*
X157377Y116172D01*
X157447Y116127D01*
X157519Y116084D01*
X157593Y116045D01*
X157669Y116010D01*
X157746Y115978D01*
X157824Y115950D01*
X157904Y115925D01*
X157985Y115904D01*
X158066Y115887D01*
X158148Y115873D01*
X158231Y115864D01*
X158315Y115858D01*
X158398Y115856D01*
X158481Y115858D01*
X158565Y115864D01*
X158648Y115873D01*
X158730Y115887D01*
X158811Y115904D01*
X158892Y115925D01*
X158972Y115950D01*
X159050Y115978D01*
X159127Y116010D01*
X159203Y116045D01*
X159277Y116084D01*
X159349Y116127D01*
X159419Y116172D01*
X159486Y116221D01*
X159552Y116273D01*
X159615Y116327D01*
X159675Y116385D01*
X159733Y116445D01*
X159787Y116508D01*
X159839Y116574D01*
X159888Y116641D01*
X159933Y116711D01*
X159976Y116783D01*
X160015Y116857D01*
X160050Y116933D01*
X160082Y117010D01*
X160110Y117088D01*
X160135Y117168D01*
X160156Y117249D01*
X160173Y117330D01*
X160187Y117412D01*
X160196Y117495D01*
X160202Y117579D01*
X160204Y117662D01*
X151975Y117211D02*
X151975Y121275D01*
X151975Y117211D02*
X151973Y117138D01*
X151967Y117065D01*
X151957Y116992D01*
X151943Y116920D01*
X151926Y116849D01*
X151904Y116778D01*
X151879Y116709D01*
X151850Y116642D01*
X151817Y116576D01*
X151781Y116512D01*
X151742Y116451D01*
X151699Y116391D01*
X151653Y116334D01*
X151604Y116279D01*
X151552Y116227D01*
X151497Y116178D01*
X151440Y116132D01*
X151380Y116089D01*
X151319Y116050D01*
X151255Y116014D01*
X151189Y115981D01*
X151122Y115952D01*
X151053Y115927D01*
X150983Y115905D01*
X150911Y115888D01*
X150839Y115874D01*
X150767Y115864D01*
X150693Y115858D01*
X150620Y115856D01*
X148363Y115856D01*
X148363Y121275D01*
X144642Y121275D02*
X141933Y121275D01*
X143739Y123984D02*
X143739Y117211D01*
X143740Y117211D02*
X143738Y117138D01*
X143732Y117065D01*
X143722Y116992D01*
X143708Y116920D01*
X143691Y116849D01*
X143669Y116778D01*
X143644Y116709D01*
X143615Y116642D01*
X143582Y116576D01*
X143546Y116512D01*
X143507Y116451D01*
X143464Y116391D01*
X143418Y116334D01*
X143369Y116279D01*
X143317Y116227D01*
X143262Y116178D01*
X143205Y116132D01*
X143145Y116089D01*
X143084Y116050D01*
X143020Y116014D01*
X142954Y115981D01*
X142887Y115952D01*
X142818Y115927D01*
X142748Y115905D01*
X142676Y115888D01*
X142604Y115874D01*
X142532Y115864D01*
X142458Y115858D01*
X142385Y115856D01*
X141933Y115856D01*
X133078Y117662D02*
X133078Y119468D01*
X133077Y119468D02*
X133075Y119551D01*
X133069Y119635D01*
X133060Y119718D01*
X133046Y119800D01*
X133029Y119881D01*
X133008Y119962D01*
X132983Y120042D01*
X132955Y120120D01*
X132923Y120197D01*
X132888Y120273D01*
X132849Y120347D01*
X132806Y120419D01*
X132761Y120489D01*
X132712Y120556D01*
X132660Y120622D01*
X132606Y120685D01*
X132548Y120745D01*
X132488Y120803D01*
X132425Y120857D01*
X132359Y120909D01*
X132292Y120958D01*
X132222Y121003D01*
X132150Y121046D01*
X132076Y121085D01*
X132000Y121120D01*
X131923Y121152D01*
X131845Y121180D01*
X131765Y121205D01*
X131684Y121226D01*
X131603Y121243D01*
X131521Y121257D01*
X131438Y121266D01*
X131354Y121272D01*
X131271Y121274D01*
X131188Y121272D01*
X131104Y121266D01*
X131021Y121257D01*
X130939Y121243D01*
X130858Y121226D01*
X130777Y121205D01*
X130697Y121180D01*
X130619Y121152D01*
X130542Y121120D01*
X130466Y121085D01*
X130392Y121046D01*
X130320Y121003D01*
X130250Y120958D01*
X130183Y120909D01*
X130117Y120857D01*
X130054Y120803D01*
X129994Y120745D01*
X129936Y120685D01*
X129882Y120622D01*
X129830Y120556D01*
X129781Y120489D01*
X129736Y120419D01*
X129693Y120347D01*
X129654Y120273D01*
X129619Y120197D01*
X129587Y120120D01*
X129559Y120042D01*
X129534Y119962D01*
X129513Y119881D01*
X129496Y119800D01*
X129482Y119718D01*
X129473Y119635D01*
X129467Y119551D01*
X129465Y119468D01*
X129465Y117662D01*
X129467Y117579D01*
X129473Y117495D01*
X129482Y117412D01*
X129496Y117330D01*
X129513Y117249D01*
X129534Y117168D01*
X129559Y117088D01*
X129587Y117010D01*
X129619Y116933D01*
X129654Y116857D01*
X129693Y116783D01*
X129736Y116711D01*
X129781Y116641D01*
X129830Y116574D01*
X129882Y116508D01*
X129936Y116445D01*
X129994Y116385D01*
X130054Y116327D01*
X130117Y116273D01*
X130183Y116221D01*
X130250Y116172D01*
X130320Y116127D01*
X130392Y116084D01*
X130466Y116045D01*
X130542Y116010D01*
X130619Y115978D01*
X130697Y115950D01*
X130777Y115925D01*
X130858Y115904D01*
X130939Y115887D01*
X131021Y115873D01*
X131104Y115864D01*
X131188Y115858D01*
X131271Y115856D01*
X131354Y115858D01*
X131438Y115864D01*
X131521Y115873D01*
X131603Y115887D01*
X131684Y115904D01*
X131765Y115925D01*
X131845Y115950D01*
X131923Y115978D01*
X132000Y116010D01*
X132076Y116045D01*
X132150Y116084D01*
X132222Y116127D01*
X132292Y116172D01*
X132359Y116221D01*
X132425Y116273D01*
X132488Y116327D01*
X132548Y116385D01*
X132606Y116445D01*
X132660Y116508D01*
X132712Y116574D01*
X132761Y116641D01*
X132806Y116711D01*
X132849Y116783D01*
X132888Y116857D01*
X132923Y116933D01*
X132955Y117010D01*
X132983Y117088D01*
X133008Y117168D01*
X133029Y117249D01*
X133046Y117330D01*
X133060Y117412D01*
X133069Y117495D01*
X133075Y117579D01*
X133077Y117662D01*
X124848Y117211D02*
X124848Y121275D01*
X124848Y117211D02*
X124846Y117138D01*
X124840Y117065D01*
X124830Y116992D01*
X124816Y116920D01*
X124799Y116849D01*
X124777Y116778D01*
X124752Y116709D01*
X124723Y116642D01*
X124690Y116576D01*
X124654Y116512D01*
X124615Y116451D01*
X124572Y116391D01*
X124526Y116334D01*
X124477Y116279D01*
X124425Y116227D01*
X124370Y116178D01*
X124313Y116132D01*
X124253Y116089D01*
X124192Y116050D01*
X124128Y116014D01*
X124062Y115981D01*
X123995Y115952D01*
X123926Y115927D01*
X123856Y115905D01*
X123784Y115888D01*
X123712Y115874D01*
X123640Y115864D01*
X123566Y115858D01*
X123493Y115856D01*
X121236Y115856D01*
X121236Y121275D01*
X116221Y121275D02*
X116221Y115856D01*
X116221Y121275D02*
X113511Y121275D01*
X113511Y120372D01*
X203081Y108744D02*
X203081Y100616D01*
X203984Y100616D02*
X202178Y100616D01*
X202178Y108744D02*
X203984Y108744D01*
X194558Y105132D02*
X193203Y105132D01*
X193203Y100616D01*
X195912Y100616D01*
X195995Y100618D01*
X196079Y100624D01*
X196162Y100633D01*
X196244Y100647D01*
X196325Y100664D01*
X196406Y100685D01*
X196486Y100710D01*
X196564Y100738D01*
X196641Y100770D01*
X196717Y100805D01*
X196791Y100844D01*
X196863Y100887D01*
X196933Y100932D01*
X197000Y100981D01*
X197066Y101033D01*
X197129Y101087D01*
X197189Y101145D01*
X197247Y101205D01*
X197301Y101268D01*
X197353Y101334D01*
X197402Y101401D01*
X197448Y101471D01*
X197490Y101543D01*
X197529Y101617D01*
X197564Y101693D01*
X197596Y101770D01*
X197624Y101848D01*
X197649Y101928D01*
X197670Y102009D01*
X197687Y102090D01*
X197701Y102173D01*
X197710Y102255D01*
X197716Y102339D01*
X197718Y102422D01*
X197719Y102422D02*
X197719Y106938D01*
X197718Y106938D02*
X197716Y107021D01*
X197710Y107105D01*
X197701Y107188D01*
X197687Y107270D01*
X197670Y107351D01*
X197649Y107432D01*
X197624Y107512D01*
X197596Y107590D01*
X197564Y107667D01*
X197529Y107743D01*
X197490Y107817D01*
X197448Y107889D01*
X197402Y107959D01*
X197353Y108026D01*
X197301Y108092D01*
X197247Y108155D01*
X197189Y108215D01*
X197129Y108273D01*
X197066Y108327D01*
X197000Y108379D01*
X196933Y108428D01*
X196863Y108473D01*
X196791Y108516D01*
X196717Y108555D01*
X196642Y108590D01*
X196564Y108622D01*
X196486Y108650D01*
X196406Y108675D01*
X196326Y108696D01*
X196244Y108713D01*
X196162Y108727D01*
X196079Y108736D01*
X195995Y108742D01*
X195912Y108744D01*
X193203Y108744D01*
X184448Y106035D02*
X181739Y106035D01*
X183545Y108744D02*
X183545Y101971D01*
X183543Y101898D01*
X183537Y101825D01*
X183527Y101752D01*
X183513Y101680D01*
X183496Y101609D01*
X183474Y101538D01*
X183449Y101469D01*
X183420Y101402D01*
X183387Y101336D01*
X183351Y101272D01*
X183312Y101211D01*
X183269Y101151D01*
X183223Y101094D01*
X183174Y101039D01*
X183122Y100987D01*
X183067Y100938D01*
X183010Y100892D01*
X182950Y100849D01*
X182889Y100810D01*
X182825Y100774D01*
X182759Y100741D01*
X182692Y100712D01*
X182623Y100687D01*
X182553Y100665D01*
X182481Y100648D01*
X182409Y100634D01*
X182337Y100624D01*
X182263Y100618D01*
X182190Y100616D01*
X181739Y100616D01*
X177760Y102422D02*
X177760Y104228D01*
X177758Y104311D01*
X177752Y104395D01*
X177743Y104478D01*
X177729Y104560D01*
X177712Y104641D01*
X177691Y104722D01*
X177666Y104802D01*
X177638Y104880D01*
X177606Y104957D01*
X177571Y105033D01*
X177532Y105107D01*
X177489Y105179D01*
X177444Y105249D01*
X177395Y105316D01*
X177343Y105382D01*
X177289Y105445D01*
X177231Y105505D01*
X177171Y105563D01*
X177108Y105617D01*
X177042Y105669D01*
X176975Y105718D01*
X176905Y105763D01*
X176833Y105806D01*
X176759Y105845D01*
X176683Y105880D01*
X176606Y105912D01*
X176528Y105940D01*
X176448Y105965D01*
X176367Y105986D01*
X176286Y106003D01*
X176204Y106017D01*
X176121Y106026D01*
X176037Y106032D01*
X175954Y106034D01*
X175871Y106032D01*
X175787Y106026D01*
X175704Y106017D01*
X175622Y106003D01*
X175541Y105986D01*
X175460Y105965D01*
X175380Y105940D01*
X175302Y105912D01*
X175225Y105880D01*
X175149Y105845D01*
X175075Y105806D01*
X175003Y105763D01*
X174933Y105718D01*
X174866Y105669D01*
X174800Y105617D01*
X174737Y105563D01*
X174677Y105505D01*
X174619Y105445D01*
X174565Y105382D01*
X174513Y105316D01*
X174464Y105249D01*
X174419Y105179D01*
X174376Y105107D01*
X174337Y105033D01*
X174302Y104957D01*
X174270Y104880D01*
X174242Y104802D01*
X174217Y104722D01*
X174196Y104641D01*
X174179Y104560D01*
X174165Y104478D01*
X174156Y104395D01*
X174150Y104311D01*
X174148Y104228D01*
X174148Y102422D01*
X174150Y102339D01*
X174156Y102255D01*
X174165Y102172D01*
X174179Y102090D01*
X174196Y102009D01*
X174217Y101928D01*
X174242Y101848D01*
X174270Y101770D01*
X174302Y101693D01*
X174337Y101617D01*
X174376Y101543D01*
X174419Y101471D01*
X174464Y101401D01*
X174513Y101334D01*
X174565Y101268D01*
X174619Y101205D01*
X174677Y101145D01*
X174737Y101087D01*
X174800Y101033D01*
X174866Y100981D01*
X174933Y100932D01*
X175003Y100887D01*
X175075Y100844D01*
X175149Y100805D01*
X175225Y100770D01*
X175302Y100738D01*
X175380Y100710D01*
X175460Y100685D01*
X175541Y100664D01*
X175622Y100647D01*
X175704Y100633D01*
X175787Y100624D01*
X175871Y100618D01*
X175954Y100616D01*
X176037Y100618D01*
X176121Y100624D01*
X176204Y100633D01*
X176286Y100647D01*
X176367Y100664D01*
X176448Y100685D01*
X176528Y100710D01*
X176606Y100738D01*
X176683Y100770D01*
X176759Y100805D01*
X176833Y100844D01*
X176905Y100887D01*
X176975Y100932D01*
X177042Y100981D01*
X177108Y101033D01*
X177171Y101087D01*
X177231Y101145D01*
X177289Y101205D01*
X177343Y101268D01*
X177395Y101334D01*
X177444Y101401D01*
X177489Y101471D01*
X177532Y101543D01*
X177571Y101617D01*
X177606Y101693D01*
X177638Y101770D01*
X177666Y101848D01*
X177691Y101928D01*
X177712Y102009D01*
X177729Y102090D01*
X177743Y102172D01*
X177752Y102255D01*
X177758Y102339D01*
X177760Y102422D01*
X164281Y103777D02*
X162023Y102874D01*
X164281Y103777D02*
X164343Y103804D01*
X164403Y103834D01*
X164462Y103868D01*
X164519Y103905D01*
X164573Y103946D01*
X164625Y103989D01*
X164674Y104036D01*
X164720Y104085D01*
X164764Y104137D01*
X164804Y104191D01*
X164842Y104248D01*
X164876Y104306D01*
X164906Y104367D01*
X164933Y104429D01*
X164956Y104492D01*
X164976Y104557D01*
X164992Y104623D01*
X165004Y104690D01*
X165012Y104757D01*
X165016Y104824D01*
X165017Y104892D01*
X165013Y104960D01*
X165006Y105027D01*
X164994Y105094D01*
X164979Y105160D01*
X164960Y105225D01*
X164937Y105288D01*
X164911Y105351D01*
X164881Y105411D01*
X164848Y105470D01*
X164811Y105527D01*
X164771Y105582D01*
X164728Y105634D01*
X164682Y105684D01*
X164633Y105731D01*
X164582Y105775D01*
X164528Y105816D01*
X164472Y105854D01*
X164414Y105888D01*
X164354Y105919D01*
X164292Y105947D01*
X164228Y105971D01*
X164164Y105991D01*
X164098Y106008D01*
X164032Y106020D01*
X163964Y106029D01*
X163897Y106034D01*
X163829Y106035D01*
X163830Y106034D02*
X163690Y106031D01*
X163551Y106023D01*
X163411Y106011D01*
X163272Y105996D01*
X163134Y105977D01*
X162996Y105954D01*
X162859Y105928D01*
X162722Y105897D01*
X162587Y105863D01*
X162452Y105826D01*
X162319Y105784D01*
X162187Y105739D01*
X162056Y105691D01*
X161926Y105639D01*
X161798Y105583D01*
X162023Y102874D02*
X161961Y102847D01*
X161901Y102817D01*
X161842Y102783D01*
X161785Y102746D01*
X161731Y102705D01*
X161679Y102662D01*
X161630Y102615D01*
X161584Y102566D01*
X161540Y102514D01*
X161500Y102460D01*
X161462Y102403D01*
X161428Y102345D01*
X161398Y102284D01*
X161371Y102222D01*
X161348Y102159D01*
X161328Y102094D01*
X161312Y102028D01*
X161300Y101961D01*
X161292Y101894D01*
X161288Y101827D01*
X161287Y101759D01*
X161291Y101691D01*
X161298Y101624D01*
X161310Y101557D01*
X161325Y101491D01*
X161344Y101426D01*
X161367Y101363D01*
X161393Y101300D01*
X161423Y101240D01*
X161456Y101181D01*
X161493Y101124D01*
X161533Y101069D01*
X161576Y101017D01*
X161622Y100967D01*
X161671Y100920D01*
X161722Y100876D01*
X161776Y100835D01*
X161832Y100797D01*
X161890Y100763D01*
X161950Y100732D01*
X162012Y100704D01*
X162076Y100680D01*
X162140Y100660D01*
X162206Y100643D01*
X162272Y100631D01*
X162340Y100622D01*
X162407Y100617D01*
X162475Y100616D01*
X162656Y100621D01*
X162837Y100630D01*
X163018Y100643D01*
X163198Y100660D01*
X163378Y100682D01*
X163557Y100708D01*
X163736Y100739D01*
X163914Y100773D01*
X164091Y100812D01*
X164267Y100855D01*
X164441Y100902D01*
X164615Y100953D01*
X164788Y101008D01*
X164959Y101067D01*
X157034Y102422D02*
X157034Y104228D01*
X157032Y104311D01*
X157026Y104395D01*
X157017Y104478D01*
X157003Y104560D01*
X156986Y104641D01*
X156965Y104722D01*
X156940Y104802D01*
X156912Y104880D01*
X156880Y104957D01*
X156845Y105033D01*
X156806Y105107D01*
X156763Y105179D01*
X156718Y105249D01*
X156669Y105316D01*
X156617Y105382D01*
X156563Y105445D01*
X156505Y105505D01*
X156445Y105563D01*
X156382Y105617D01*
X156316Y105669D01*
X156249Y105718D01*
X156179Y105763D01*
X156107Y105806D01*
X156033Y105845D01*
X155957Y105880D01*
X155880Y105912D01*
X155802Y105940D01*
X155722Y105965D01*
X155641Y105986D01*
X155560Y106003D01*
X155478Y106017D01*
X155395Y106026D01*
X155311Y106032D01*
X155228Y106034D01*
X155145Y106032D01*
X155061Y106026D01*
X154978Y106017D01*
X154896Y106003D01*
X154815Y105986D01*
X154734Y105965D01*
X154654Y105940D01*
X154576Y105912D01*
X154499Y105880D01*
X154423Y105845D01*
X154349Y105806D01*
X154277Y105763D01*
X154207Y105718D01*
X154140Y105669D01*
X154074Y105617D01*
X154011Y105563D01*
X153951Y105505D01*
X153893Y105445D01*
X153839Y105382D01*
X153787Y105316D01*
X153738Y105249D01*
X153693Y105179D01*
X153650Y105107D01*
X153611Y105033D01*
X153576Y104957D01*
X153544Y104880D01*
X153516Y104802D01*
X153491Y104722D01*
X153470Y104641D01*
X153453Y104560D01*
X153439Y104478D01*
X153430Y104395D01*
X153424Y104311D01*
X153422Y104228D01*
X153421Y104228D02*
X153421Y102422D01*
X153422Y102422D02*
X153424Y102339D01*
X153430Y102255D01*
X153439Y102172D01*
X153453Y102090D01*
X153470Y102009D01*
X153491Y101928D01*
X153516Y101848D01*
X153544Y101770D01*
X153576Y101693D01*
X153611Y101617D01*
X153650Y101543D01*
X153693Y101471D01*
X153738Y101401D01*
X153787Y101334D01*
X153839Y101268D01*
X153893Y101205D01*
X153951Y101145D01*
X154011Y101087D01*
X154074Y101033D01*
X154140Y100981D01*
X154207Y100932D01*
X154277Y100887D01*
X154349Y100844D01*
X154423Y100805D01*
X154499Y100770D01*
X154576Y100738D01*
X154654Y100710D01*
X154734Y100685D01*
X154815Y100664D01*
X154896Y100647D01*
X154978Y100633D01*
X155061Y100624D01*
X155145Y100618D01*
X155228Y100616D01*
X155311Y100618D01*
X155395Y100624D01*
X155478Y100633D01*
X155560Y100647D01*
X155641Y100664D01*
X155722Y100685D01*
X155802Y100710D01*
X155880Y100738D01*
X155957Y100770D01*
X156033Y100805D01*
X156107Y100844D01*
X156179Y100887D01*
X156249Y100932D01*
X156316Y100981D01*
X156382Y101033D01*
X156445Y101087D01*
X156505Y101145D01*
X156563Y101205D01*
X156617Y101268D01*
X156669Y101334D01*
X156718Y101401D01*
X156763Y101471D01*
X156806Y101543D01*
X156845Y101617D01*
X156880Y101693D01*
X156912Y101770D01*
X156940Y101848D01*
X156965Y101928D01*
X156986Y102009D01*
X157003Y102090D01*
X157017Y102172D01*
X157026Y102255D01*
X157032Y102339D01*
X157034Y102422D01*
X149128Y101971D02*
X149128Y108744D01*
X149129Y101971D02*
X149127Y101898D01*
X149121Y101825D01*
X149111Y101752D01*
X149097Y101680D01*
X149080Y101609D01*
X149058Y101538D01*
X149033Y101469D01*
X149004Y101402D01*
X148971Y101336D01*
X148935Y101272D01*
X148896Y101211D01*
X148853Y101151D01*
X148807Y101094D01*
X148758Y101039D01*
X148706Y100987D01*
X148651Y100938D01*
X148594Y100892D01*
X148534Y100849D01*
X148473Y100810D01*
X148409Y100774D01*
X148343Y100741D01*
X148276Y100712D01*
X148207Y100687D01*
X148137Y100665D01*
X148065Y100648D01*
X147993Y100634D01*
X147921Y100624D01*
X147847Y100618D01*
X147774Y100616D01*
X140702Y100616D02*
X140702Y108744D01*
X140702Y100616D02*
X142960Y100616D01*
X143031Y100618D01*
X143102Y100623D01*
X143172Y100633D01*
X143242Y100646D01*
X143311Y100662D01*
X143379Y100682D01*
X143446Y100706D01*
X143511Y100733D01*
X143575Y100764D01*
X143638Y100798D01*
X143698Y100835D01*
X143756Y100875D01*
X143813Y100918D01*
X143867Y100964D01*
X143918Y101013D01*
X143967Y101064D01*
X144013Y101118D01*
X144056Y101175D01*
X144096Y101233D01*
X144133Y101294D01*
X144167Y101356D01*
X144198Y101420D01*
X144225Y101485D01*
X144249Y101552D01*
X144269Y101620D01*
X144285Y101689D01*
X144298Y101759D01*
X144308Y101829D01*
X144313Y101900D01*
X144315Y101971D01*
X144315Y104680D01*
X144313Y104751D01*
X144308Y104822D01*
X144298Y104892D01*
X144285Y104962D01*
X144269Y105031D01*
X144249Y105099D01*
X144225Y105166D01*
X144198Y105231D01*
X144167Y105295D01*
X144133Y105358D01*
X144096Y105418D01*
X144056Y105476D01*
X144013Y105533D01*
X143967Y105587D01*
X143918Y105638D01*
X143867Y105687D01*
X143813Y105733D01*
X143756Y105776D01*
X143698Y105816D01*
X143638Y105853D01*
X143575Y105887D01*
X143511Y105918D01*
X143446Y105945D01*
X143379Y105969D01*
X143311Y105989D01*
X143242Y106005D01*
X143172Y106018D01*
X143102Y106028D01*
X143031Y106033D01*
X142960Y106035D01*
X140702Y106035D01*
X134648Y100616D02*
X132390Y100616D01*
X134648Y100616D02*
X134719Y100618D01*
X134790Y100623D01*
X134860Y100633D01*
X134930Y100646D01*
X134999Y100662D01*
X135067Y100682D01*
X135134Y100706D01*
X135199Y100733D01*
X135263Y100764D01*
X135326Y100798D01*
X135386Y100835D01*
X135444Y100875D01*
X135501Y100918D01*
X135555Y100964D01*
X135606Y101013D01*
X135655Y101064D01*
X135701Y101118D01*
X135744Y101175D01*
X135784Y101233D01*
X135821Y101294D01*
X135855Y101356D01*
X135886Y101420D01*
X135913Y101485D01*
X135937Y101552D01*
X135957Y101620D01*
X135973Y101689D01*
X135986Y101759D01*
X135996Y101829D01*
X136001Y101900D01*
X136003Y101971D01*
X136003Y104228D01*
X136001Y104311D01*
X135995Y104395D01*
X135986Y104478D01*
X135972Y104560D01*
X135955Y104641D01*
X135934Y104722D01*
X135909Y104802D01*
X135881Y104880D01*
X135849Y104957D01*
X135814Y105033D01*
X135775Y105107D01*
X135732Y105179D01*
X135687Y105249D01*
X135638Y105316D01*
X135586Y105382D01*
X135532Y105445D01*
X135474Y105505D01*
X135414Y105563D01*
X135351Y105617D01*
X135285Y105669D01*
X135218Y105718D01*
X135148Y105763D01*
X135076Y105806D01*
X135002Y105845D01*
X134926Y105880D01*
X134849Y105912D01*
X134771Y105940D01*
X134691Y105965D01*
X134610Y105986D01*
X134529Y106003D01*
X134447Y106017D01*
X134364Y106026D01*
X134280Y106032D01*
X134197Y106034D01*
X134114Y106032D01*
X134030Y106026D01*
X133947Y106017D01*
X133865Y106003D01*
X133784Y105986D01*
X133703Y105965D01*
X133623Y105940D01*
X133545Y105912D01*
X133468Y105880D01*
X133392Y105845D01*
X133318Y105806D01*
X133246Y105763D01*
X133176Y105718D01*
X133109Y105669D01*
X133043Y105617D01*
X132980Y105563D01*
X132920Y105505D01*
X132862Y105445D01*
X132808Y105382D01*
X132756Y105316D01*
X132707Y105249D01*
X132662Y105179D01*
X132619Y105107D01*
X132580Y105033D01*
X132545Y104957D01*
X132513Y104880D01*
X132485Y104802D01*
X132460Y104722D01*
X132439Y104641D01*
X132422Y104560D01*
X132408Y104478D01*
X132399Y104395D01*
X132393Y104311D01*
X132391Y104228D01*
X132390Y104228D02*
X132390Y103325D01*
X136003Y103325D01*
X127680Y100616D02*
X127680Y106035D01*
X124971Y106035D01*
X124971Y105132D01*
X201275Y90795D02*
X203984Y90795D01*
X203081Y93504D02*
X203081Y86731D01*
X203079Y86658D01*
X203073Y86585D01*
X203063Y86512D01*
X203049Y86440D01*
X203032Y86369D01*
X203010Y86298D01*
X202985Y86229D01*
X202956Y86162D01*
X202923Y86096D01*
X202887Y86032D01*
X202848Y85971D01*
X202805Y85911D01*
X202759Y85854D01*
X202710Y85799D01*
X202658Y85747D01*
X202603Y85698D01*
X202546Y85652D01*
X202486Y85609D01*
X202425Y85570D01*
X202361Y85534D01*
X202295Y85501D01*
X202228Y85472D01*
X202159Y85447D01*
X202089Y85425D01*
X202017Y85408D01*
X201945Y85394D01*
X201873Y85384D01*
X201799Y85378D01*
X201726Y85376D01*
X201275Y85376D01*
X196991Y85376D02*
X196991Y93504D01*
X196991Y90795D02*
X194733Y90795D01*
X194660Y90793D01*
X194587Y90787D01*
X194514Y90777D01*
X194442Y90763D01*
X194371Y90746D01*
X194300Y90724D01*
X194231Y90699D01*
X194164Y90670D01*
X194098Y90637D01*
X194034Y90601D01*
X193973Y90562D01*
X193913Y90519D01*
X193856Y90473D01*
X193801Y90424D01*
X193749Y90372D01*
X193700Y90317D01*
X193654Y90260D01*
X193612Y90200D01*
X193572Y90139D01*
X193536Y90075D01*
X193503Y90009D01*
X193474Y89942D01*
X193449Y89873D01*
X193427Y89803D01*
X193410Y89731D01*
X193396Y89659D01*
X193386Y89587D01*
X193380Y89513D01*
X193378Y89440D01*
X193379Y89440D02*
X193379Y85376D01*
X189089Y85376D02*
X189089Y90795D01*
X189315Y93052D02*
X189315Y93504D01*
X188863Y93504D01*
X188863Y93052D01*
X189315Y93052D01*
X184427Y88537D02*
X182169Y87634D01*
X184427Y88537D02*
X184489Y88564D01*
X184549Y88594D01*
X184608Y88628D01*
X184665Y88665D01*
X184719Y88706D01*
X184771Y88749D01*
X184820Y88796D01*
X184866Y88845D01*
X184910Y88897D01*
X184950Y88951D01*
X184988Y89008D01*
X185022Y89066D01*
X185052Y89127D01*
X185079Y89189D01*
X185102Y89252D01*
X185122Y89317D01*
X185138Y89383D01*
X185150Y89450D01*
X185158Y89517D01*
X185162Y89584D01*
X185163Y89652D01*
X185159Y89720D01*
X185152Y89787D01*
X185140Y89854D01*
X185125Y89920D01*
X185106Y89985D01*
X185083Y90048D01*
X185057Y90111D01*
X185027Y90171D01*
X184994Y90230D01*
X184957Y90287D01*
X184917Y90342D01*
X184874Y90394D01*
X184828Y90444D01*
X184779Y90491D01*
X184728Y90535D01*
X184674Y90576D01*
X184618Y90614D01*
X184560Y90648D01*
X184500Y90679D01*
X184438Y90707D01*
X184374Y90731D01*
X184310Y90751D01*
X184244Y90768D01*
X184178Y90780D01*
X184110Y90789D01*
X184043Y90794D01*
X183975Y90795D01*
X183975Y90794D02*
X183835Y90791D01*
X183696Y90783D01*
X183556Y90771D01*
X183417Y90756D01*
X183279Y90737D01*
X183141Y90714D01*
X183004Y90688D01*
X182867Y90657D01*
X182732Y90623D01*
X182597Y90586D01*
X182464Y90544D01*
X182332Y90499D01*
X182201Y90451D01*
X182071Y90399D01*
X181943Y90343D01*
X182169Y87634D02*
X182107Y87607D01*
X182047Y87577D01*
X181988Y87543D01*
X181931Y87506D01*
X181877Y87465D01*
X181825Y87422D01*
X181776Y87375D01*
X181730Y87326D01*
X181686Y87274D01*
X181646Y87220D01*
X181608Y87163D01*
X181574Y87105D01*
X181544Y87044D01*
X181517Y86982D01*
X181494Y86919D01*
X181474Y86854D01*
X181458Y86788D01*
X181446Y86721D01*
X181438Y86654D01*
X181434Y86587D01*
X181433Y86519D01*
X181437Y86451D01*
X181444Y86384D01*
X181456Y86317D01*
X181471Y86251D01*
X181490Y86186D01*
X181513Y86123D01*
X181539Y86060D01*
X181569Y86000D01*
X181602Y85941D01*
X181639Y85884D01*
X181679Y85829D01*
X181722Y85777D01*
X181768Y85727D01*
X181817Y85680D01*
X181868Y85636D01*
X181922Y85595D01*
X181978Y85557D01*
X182036Y85523D01*
X182096Y85492D01*
X182158Y85464D01*
X182222Y85440D01*
X182286Y85420D01*
X182352Y85403D01*
X182418Y85391D01*
X182486Y85382D01*
X182553Y85377D01*
X182621Y85376D01*
X182620Y85376D02*
X182801Y85381D01*
X182982Y85390D01*
X183163Y85403D01*
X183343Y85420D01*
X183523Y85442D01*
X183702Y85468D01*
X183881Y85499D01*
X184059Y85533D01*
X184236Y85572D01*
X184412Y85615D01*
X184586Y85662D01*
X184760Y85713D01*
X184933Y85768D01*
X185104Y85827D01*
X171915Y85376D02*
X171915Y93504D01*
X171915Y85376D02*
X169657Y85376D01*
X169584Y85378D01*
X169511Y85384D01*
X169438Y85394D01*
X169366Y85408D01*
X169295Y85425D01*
X169224Y85447D01*
X169155Y85472D01*
X169088Y85501D01*
X169022Y85534D01*
X168958Y85570D01*
X168897Y85609D01*
X168837Y85652D01*
X168780Y85698D01*
X168725Y85747D01*
X168673Y85799D01*
X168624Y85854D01*
X168578Y85911D01*
X168535Y85971D01*
X168496Y86032D01*
X168460Y86096D01*
X168427Y86162D01*
X168398Y86229D01*
X168373Y86298D01*
X168351Y86368D01*
X168334Y86440D01*
X168320Y86512D01*
X168310Y86584D01*
X168304Y86658D01*
X168302Y86731D01*
X168303Y86731D02*
X168303Y89440D01*
X168302Y89440D02*
X168304Y89511D01*
X168309Y89582D01*
X168319Y89652D01*
X168332Y89722D01*
X168348Y89791D01*
X168368Y89859D01*
X168392Y89926D01*
X168419Y89991D01*
X168450Y90055D01*
X168484Y90118D01*
X168521Y90178D01*
X168561Y90236D01*
X168604Y90293D01*
X168650Y90347D01*
X168699Y90398D01*
X168750Y90447D01*
X168804Y90493D01*
X168861Y90536D01*
X168919Y90576D01*
X168980Y90613D01*
X169042Y90647D01*
X169106Y90678D01*
X169171Y90705D01*
X169238Y90729D01*
X169306Y90749D01*
X169375Y90765D01*
X169445Y90778D01*
X169515Y90788D01*
X169586Y90793D01*
X169657Y90795D01*
X171915Y90795D01*
X164073Y88988D02*
X164073Y87182D01*
X164073Y88988D02*
X164071Y89071D01*
X164065Y89155D01*
X164056Y89238D01*
X164042Y89320D01*
X164025Y89401D01*
X164004Y89482D01*
X163979Y89562D01*
X163951Y89640D01*
X163919Y89717D01*
X163884Y89793D01*
X163845Y89867D01*
X163802Y89939D01*
X163757Y90009D01*
X163708Y90076D01*
X163656Y90142D01*
X163602Y90205D01*
X163544Y90265D01*
X163484Y90323D01*
X163421Y90377D01*
X163355Y90429D01*
X163288Y90478D01*
X163218Y90523D01*
X163146Y90566D01*
X163072Y90605D01*
X162996Y90640D01*
X162919Y90672D01*
X162841Y90700D01*
X162761Y90725D01*
X162680Y90746D01*
X162599Y90763D01*
X162517Y90777D01*
X162434Y90786D01*
X162350Y90792D01*
X162267Y90794D01*
X162184Y90792D01*
X162100Y90786D01*
X162017Y90777D01*
X161935Y90763D01*
X161854Y90746D01*
X161773Y90725D01*
X161693Y90700D01*
X161615Y90672D01*
X161538Y90640D01*
X161462Y90605D01*
X161388Y90566D01*
X161316Y90523D01*
X161246Y90478D01*
X161179Y90429D01*
X161113Y90377D01*
X161050Y90323D01*
X160990Y90265D01*
X160932Y90205D01*
X160878Y90142D01*
X160826Y90076D01*
X160777Y90009D01*
X160732Y89939D01*
X160689Y89867D01*
X160650Y89793D01*
X160615Y89717D01*
X160583Y89640D01*
X160555Y89562D01*
X160530Y89482D01*
X160509Y89401D01*
X160492Y89320D01*
X160478Y89238D01*
X160469Y89155D01*
X160463Y89071D01*
X160461Y88988D01*
X160460Y88988D02*
X160460Y87182D01*
X160461Y87182D02*
X160463Y87099D01*
X160469Y87015D01*
X160478Y86932D01*
X160492Y86850D01*
X160509Y86769D01*
X160530Y86688D01*
X160555Y86608D01*
X160583Y86530D01*
X160615Y86453D01*
X160650Y86377D01*
X160689Y86303D01*
X160732Y86231D01*
X160777Y86161D01*
X160826Y86094D01*
X160878Y86028D01*
X160932Y85965D01*
X160990Y85905D01*
X161050Y85847D01*
X161113Y85793D01*
X161179Y85741D01*
X161246Y85692D01*
X161316Y85647D01*
X161388Y85604D01*
X161462Y85565D01*
X161538Y85530D01*
X161615Y85498D01*
X161693Y85470D01*
X161773Y85445D01*
X161854Y85424D01*
X161935Y85407D01*
X162017Y85393D01*
X162100Y85384D01*
X162184Y85378D01*
X162267Y85376D01*
X162350Y85378D01*
X162434Y85384D01*
X162517Y85393D01*
X162599Y85407D01*
X162680Y85424D01*
X162761Y85445D01*
X162841Y85470D01*
X162919Y85498D01*
X162996Y85530D01*
X163072Y85565D01*
X163146Y85604D01*
X163218Y85647D01*
X163288Y85692D01*
X163355Y85741D01*
X163421Y85793D01*
X163484Y85847D01*
X163544Y85905D01*
X163602Y85965D01*
X163656Y86028D01*
X163708Y86094D01*
X163757Y86161D01*
X163802Y86231D01*
X163845Y86303D01*
X163884Y86377D01*
X163919Y86453D01*
X163951Y86530D01*
X163979Y86608D01*
X164004Y86688D01*
X164025Y86769D01*
X164042Y86850D01*
X164056Y86932D01*
X164065Y87015D01*
X164071Y87099D01*
X164073Y87182D01*
X154650Y88537D02*
X152618Y88537D01*
X154650Y88536D02*
X154729Y88534D01*
X154807Y88528D01*
X154885Y88518D01*
X154963Y88505D01*
X155040Y88487D01*
X155116Y88466D01*
X155190Y88441D01*
X155264Y88412D01*
X155336Y88380D01*
X155406Y88344D01*
X155474Y88304D01*
X155540Y88261D01*
X155604Y88215D01*
X155666Y88166D01*
X155725Y88114D01*
X155781Y88059D01*
X155835Y88001D01*
X155885Y87941D01*
X155933Y87878D01*
X155977Y87813D01*
X156018Y87746D01*
X156056Y87677D01*
X156090Y87606D01*
X156121Y87533D01*
X156148Y87459D01*
X156171Y87384D01*
X156190Y87308D01*
X156206Y87230D01*
X156218Y87152D01*
X156226Y87074D01*
X156230Y86995D01*
X156230Y86917D01*
X156226Y86838D01*
X156218Y86760D01*
X156206Y86682D01*
X156190Y86604D01*
X156171Y86528D01*
X156148Y86453D01*
X156121Y86379D01*
X156090Y86306D01*
X156056Y86235D01*
X156018Y86166D01*
X155977Y86099D01*
X155933Y86034D01*
X155885Y85971D01*
X155835Y85911D01*
X155781Y85853D01*
X155725Y85798D01*
X155666Y85746D01*
X155604Y85697D01*
X155540Y85651D01*
X155474Y85608D01*
X155406Y85568D01*
X155336Y85532D01*
X155264Y85500D01*
X155190Y85471D01*
X155116Y85446D01*
X155040Y85425D01*
X154963Y85407D01*
X154885Y85394D01*
X154807Y85384D01*
X154729Y85378D01*
X154650Y85376D01*
X152618Y85376D01*
X152618Y89440D01*
X152620Y89511D01*
X152625Y89582D01*
X152635Y89652D01*
X152648Y89722D01*
X152664Y89791D01*
X152684Y89859D01*
X152708Y89926D01*
X152735Y89991D01*
X152766Y90055D01*
X152800Y90118D01*
X152837Y90178D01*
X152877Y90236D01*
X152920Y90293D01*
X152966Y90347D01*
X153015Y90398D01*
X153066Y90447D01*
X153120Y90493D01*
X153177Y90536D01*
X153235Y90576D01*
X153296Y90613D01*
X153358Y90647D01*
X153422Y90678D01*
X153487Y90705D01*
X153554Y90729D01*
X153622Y90749D01*
X153691Y90765D01*
X153761Y90778D01*
X153831Y90788D01*
X153902Y90793D01*
X153973Y90795D01*
X155779Y90795D01*
X147521Y90795D02*
X147521Y85376D01*
X147521Y90795D02*
X144811Y90795D01*
X144811Y89892D01*
X137988Y93504D02*
X137988Y85376D01*
X140246Y85376D01*
X140317Y85378D01*
X140388Y85383D01*
X140458Y85393D01*
X140528Y85406D01*
X140597Y85422D01*
X140665Y85442D01*
X140732Y85466D01*
X140797Y85493D01*
X140861Y85524D01*
X140924Y85558D01*
X140984Y85595D01*
X141042Y85635D01*
X141099Y85678D01*
X141153Y85724D01*
X141204Y85773D01*
X141253Y85824D01*
X141299Y85878D01*
X141342Y85935D01*
X141382Y85993D01*
X141419Y86054D01*
X141453Y86116D01*
X141484Y86180D01*
X141511Y86245D01*
X141535Y86312D01*
X141555Y86380D01*
X141571Y86449D01*
X141584Y86519D01*
X141594Y86589D01*
X141599Y86660D01*
X141601Y86731D01*
X141600Y86731D02*
X141600Y89440D01*
X141601Y89440D02*
X141599Y89511D01*
X141594Y89582D01*
X141584Y89652D01*
X141571Y89722D01*
X141555Y89791D01*
X141535Y89859D01*
X141511Y89926D01*
X141484Y89991D01*
X141453Y90055D01*
X141419Y90118D01*
X141382Y90178D01*
X141342Y90236D01*
X141299Y90293D01*
X141253Y90347D01*
X141204Y90398D01*
X141153Y90447D01*
X141099Y90493D01*
X141042Y90536D01*
X140984Y90576D01*
X140924Y90613D01*
X140861Y90647D01*
X140797Y90678D01*
X140732Y90705D01*
X140665Y90729D01*
X140597Y90749D01*
X140528Y90765D01*
X140458Y90778D01*
X140388Y90788D01*
X140317Y90793D01*
X140246Y90795D01*
X137988Y90795D01*
X133616Y88085D02*
X133616Y93504D01*
X133841Y85828D02*
X133841Y85376D01*
X133841Y85828D02*
X133390Y85828D01*
X133390Y85376D01*
X133841Y85376D01*
D10*
X150000Y-5000D02*
X-5000Y150000D01*
X135000Y205000D02*
X145000Y205000D01*
X135000Y205000D02*
X125000Y215000D01*
X205000Y140000D02*
X220000Y125000D01*
X220000Y35000D01*
X230000Y25000D01*
X250000Y25000D01*
X125000Y215000D02*
X125000Y230000D01*
D13*
X73702Y132028D02*
X77115Y128615D01*
X73702Y132028D02*
X72754Y131080D01*
X72705Y131028D01*
X72658Y130974D01*
X72615Y130917D01*
X72575Y130858D01*
X72538Y130797D01*
X72504Y130734D01*
X72474Y130670D01*
X72447Y130604D01*
X72423Y130536D01*
X72404Y130468D01*
X72388Y130398D01*
X72375Y130328D01*
X72367Y130257D01*
X72362Y130186D01*
X72361Y130114D01*
X72364Y130043D01*
X72371Y129972D01*
X72381Y129901D01*
X72395Y129831D01*
X72413Y129762D01*
X72435Y129694D01*
X72460Y129627D01*
X72488Y129562D01*
X72520Y129498D01*
X72556Y129436D01*
X72594Y129376D01*
X72636Y129318D01*
X72681Y129262D01*
X72729Y129209D01*
X72779Y129159D01*
X72832Y129111D01*
X72888Y129066D01*
X72946Y129024D01*
X73006Y128986D01*
X73068Y128950D01*
X73132Y128918D01*
X73197Y128890D01*
X73264Y128865D01*
X73332Y128843D01*
X73401Y128825D01*
X73471Y128811D01*
X73542Y128801D01*
X73613Y128794D01*
X73684Y128791D01*
X73756Y128792D01*
X73827Y128797D01*
X73898Y128805D01*
X73968Y128818D01*
X74038Y128834D01*
X74106Y128853D01*
X74174Y128877D01*
X74240Y128904D01*
X74304Y128934D01*
X74367Y128968D01*
X74428Y129005D01*
X74487Y129045D01*
X74544Y129088D01*
X74598Y129135D01*
X74650Y129184D01*
X75598Y130132D01*
X74461Y128995D02*
X75219Y126720D01*
X73280Y124781D02*
X72333Y123833D01*
X72281Y123784D01*
X72227Y123737D01*
X72170Y123694D01*
X72111Y123654D01*
X72050Y123617D01*
X71987Y123583D01*
X71923Y123553D01*
X71857Y123526D01*
X71789Y123502D01*
X71721Y123483D01*
X71651Y123467D01*
X71581Y123454D01*
X71510Y123446D01*
X71439Y123441D01*
X71367Y123440D01*
X71296Y123443D01*
X71225Y123450D01*
X71154Y123460D01*
X71084Y123474D01*
X71015Y123492D01*
X70947Y123514D01*
X70880Y123539D01*
X70815Y123567D01*
X70751Y123599D01*
X70689Y123635D01*
X70629Y123673D01*
X70571Y123715D01*
X70515Y123760D01*
X70462Y123808D01*
X70412Y123858D01*
X70364Y123911D01*
X70319Y123967D01*
X70277Y124025D01*
X70239Y124085D01*
X70203Y124147D01*
X70171Y124211D01*
X70143Y124276D01*
X70118Y124343D01*
X70096Y124411D01*
X70078Y124480D01*
X70064Y124550D01*
X70054Y124621D01*
X70047Y124692D01*
X70044Y124763D01*
X70045Y124835D01*
X70050Y124906D01*
X70058Y124977D01*
X70071Y125047D01*
X70087Y125117D01*
X70106Y125185D01*
X70130Y125253D01*
X70157Y125319D01*
X70187Y125383D01*
X70221Y125446D01*
X70258Y125507D01*
X70298Y125566D01*
X70341Y125623D01*
X70388Y125677D01*
X70437Y125729D01*
X68731Y127056D02*
X69868Y128194D01*
X68731Y127056D02*
X68687Y127009D01*
X68645Y126959D01*
X68607Y126907D01*
X68572Y126853D01*
X68540Y126796D01*
X68511Y126738D01*
X68487Y126678D01*
X68466Y126617D01*
X68448Y126555D01*
X68435Y126491D01*
X68425Y126427D01*
X68419Y126363D01*
X68417Y126298D01*
X68419Y126233D01*
X68425Y126169D01*
X68435Y126105D01*
X68448Y126041D01*
X68466Y125979D01*
X68487Y125918D01*
X68511Y125858D01*
X68540Y125800D01*
X68572Y125743D01*
X68607Y125689D01*
X68645Y125637D01*
X68687Y125587D01*
X68731Y125540D01*
X68778Y125496D01*
X68828Y125454D01*
X68880Y125416D01*
X68934Y125381D01*
X68991Y125349D01*
X69049Y125320D01*
X69109Y125296D01*
X69170Y125275D01*
X69232Y125257D01*
X69296Y125244D01*
X69360Y125234D01*
X69424Y125228D01*
X69489Y125226D01*
X69554Y125228D01*
X69618Y125234D01*
X69682Y125244D01*
X69746Y125257D01*
X69808Y125275D01*
X69869Y125296D01*
X69929Y125320D01*
X69987Y125349D01*
X70044Y125381D01*
X70098Y125416D01*
X70150Y125454D01*
X70200Y125496D01*
X70247Y125540D01*
X70247Y125539D02*
X71006Y126298D01*
X61218Y148201D02*
X59512Y148011D01*
X62924Y144599D01*
X63872Y145546D02*
X61976Y143651D01*
X58286Y143373D02*
X58200Y143457D01*
X58111Y143538D01*
X58020Y143616D01*
X57926Y143692D01*
X57831Y143765D01*
X57733Y143834D01*
X57633Y143901D01*
X57531Y143965D01*
X57427Y144026D01*
X57321Y144083D01*
X57214Y144137D01*
X57105Y144188D01*
X56994Y144236D01*
X56883Y144280D01*
X56770Y144321D01*
X56714Y144346D01*
X56656Y144368D01*
X56598Y144386D01*
X56538Y144401D01*
X56477Y144412D01*
X56416Y144419D01*
X56355Y144422D01*
X56293Y144421D01*
X56232Y144417D01*
X56171Y144409D01*
X56111Y144397D01*
X56051Y144381D01*
X55993Y144361D01*
X55936Y144338D01*
X55880Y144312D01*
X55826Y144282D01*
X55774Y144249D01*
X55725Y144213D01*
X55677Y144174D01*
X55633Y144131D01*
X55590Y144087D01*
X55551Y144039D01*
X55515Y143990D01*
X55482Y143938D01*
X55452Y143884D01*
X55426Y143828D01*
X55403Y143771D01*
X55383Y143713D01*
X55367Y143653D01*
X55355Y143593D01*
X55347Y143532D01*
X55343Y143471D01*
X55342Y143409D01*
X55345Y143348D01*
X55352Y143287D01*
X55363Y143226D01*
X55378Y143166D01*
X55396Y143108D01*
X55418Y143050D01*
X55443Y142994D01*
X55484Y142880D01*
X55528Y142769D01*
X55576Y142658D01*
X55627Y142549D01*
X55681Y142442D01*
X55738Y142336D01*
X55799Y142232D01*
X55863Y142130D01*
X55930Y142030D01*
X55999Y141933D01*
X56072Y141837D01*
X56148Y141743D01*
X56226Y141652D01*
X56307Y141563D01*
X56391Y141477D01*
X58286Y143373D02*
X58370Y143287D01*
X58451Y143198D01*
X58529Y143107D01*
X58605Y143013D01*
X58678Y142918D01*
X58747Y142820D01*
X58814Y142720D01*
X58878Y142618D01*
X58939Y142514D01*
X58996Y142408D01*
X59050Y142301D01*
X59101Y142192D01*
X59149Y142081D01*
X59193Y141970D01*
X59234Y141857D01*
X59235Y141857D02*
X59260Y141801D01*
X59282Y141743D01*
X59300Y141685D01*
X59315Y141625D01*
X59326Y141564D01*
X59333Y141503D01*
X59336Y141442D01*
X59335Y141380D01*
X59331Y141319D01*
X59323Y141258D01*
X59311Y141198D01*
X59295Y141138D01*
X59275Y141080D01*
X59252Y141023D01*
X59226Y140967D01*
X59196Y140913D01*
X59163Y140861D01*
X59127Y140812D01*
X59088Y140764D01*
X59045Y140720D01*
X57907Y140529D02*
X57794Y140570D01*
X57682Y140614D01*
X57572Y140662D01*
X57463Y140713D01*
X57355Y140767D01*
X57250Y140824D01*
X57146Y140885D01*
X57044Y140949D01*
X56944Y141015D01*
X56846Y141085D01*
X56750Y141158D01*
X56657Y141234D01*
X56565Y141312D01*
X56477Y141393D01*
X56390Y141477D01*
X57907Y140530D02*
X57963Y140505D01*
X58021Y140483D01*
X58079Y140465D01*
X58139Y140450D01*
X58200Y140439D01*
X58261Y140432D01*
X58322Y140429D01*
X58384Y140430D01*
X58445Y140434D01*
X58506Y140443D01*
X58566Y140454D01*
X58626Y140470D01*
X58684Y140490D01*
X58741Y140513D01*
X58797Y140539D01*
X58851Y140569D01*
X58903Y140602D01*
X58952Y140638D01*
X59000Y140677D01*
X59044Y140720D01*
X59045Y142236D02*
X55632Y142615D01*
X52558Y141057D02*
X55970Y137644D01*
X54833Y138782D02*
X52179Y138403D01*
X53695Y138592D02*
X54454Y136128D01*
X103702Y102028D02*
X107115Y98615D01*
X103702Y102028D02*
X102754Y101080D01*
X102705Y101028D01*
X102658Y100974D01*
X102615Y100917D01*
X102575Y100858D01*
X102538Y100797D01*
X102504Y100734D01*
X102474Y100670D01*
X102447Y100604D01*
X102423Y100536D01*
X102404Y100468D01*
X102388Y100398D01*
X102375Y100328D01*
X102367Y100257D01*
X102362Y100186D01*
X102361Y100114D01*
X102364Y100043D01*
X102371Y99972D01*
X102381Y99901D01*
X102395Y99831D01*
X102413Y99762D01*
X102435Y99694D01*
X102460Y99627D01*
X102488Y99562D01*
X102520Y99498D01*
X102556Y99436D01*
X102594Y99376D01*
X102636Y99318D01*
X102681Y99262D01*
X102729Y99209D01*
X102779Y99159D01*
X102832Y99111D01*
X102888Y99066D01*
X102946Y99024D01*
X103006Y98986D01*
X103068Y98950D01*
X103132Y98918D01*
X103197Y98890D01*
X103264Y98865D01*
X103332Y98843D01*
X103401Y98825D01*
X103471Y98811D01*
X103542Y98801D01*
X103613Y98794D01*
X103684Y98791D01*
X103756Y98792D01*
X103827Y98797D01*
X103898Y98805D01*
X103968Y98818D01*
X104038Y98834D01*
X104106Y98853D01*
X104174Y98877D01*
X104240Y98904D01*
X104304Y98934D01*
X104367Y98968D01*
X104428Y99005D01*
X104487Y99045D01*
X104544Y99088D01*
X104598Y99135D01*
X104650Y99184D01*
X105598Y100132D01*
X104461Y98995D02*
X105219Y96720D01*
X102522Y95539D02*
X99110Y97435D01*
X102522Y95539D02*
X100626Y93644D01*
X100437Y94971D02*
X101953Y93454D01*
X90193Y116986D02*
X90146Y117035D01*
X90102Y117086D01*
X90062Y117141D01*
X90024Y117197D01*
X89990Y117255D01*
X89959Y117315D01*
X89931Y117377D01*
X89907Y117440D01*
X89886Y117505D01*
X89869Y117570D01*
X89856Y117637D01*
X89847Y117704D01*
X89841Y117771D01*
X89839Y117839D01*
X89841Y117907D01*
X89847Y117974D01*
X89856Y118041D01*
X89869Y118108D01*
X89886Y118173D01*
X89907Y118238D01*
X89931Y118301D01*
X89959Y118363D01*
X89990Y118423D01*
X90024Y118481D01*
X90062Y118537D01*
X90102Y118592D01*
X90146Y118643D01*
X90192Y118692D01*
X90193Y118692D02*
X90249Y118746D01*
X90309Y118797D01*
X90370Y118844D01*
X90434Y118889D01*
X90500Y118930D01*
X90568Y118968D01*
X90638Y119003D01*
X90710Y119034D01*
X90783Y119061D01*
X90857Y119085D01*
X90933Y119104D01*
X91009Y119120D01*
X91086Y119133D01*
X91163Y119141D01*
X91241Y119145D01*
X91319Y119146D01*
X91397Y119142D01*
X91475Y119135D01*
X91552Y119124D01*
X91628Y119108D01*
X91704Y119089D01*
X91779Y119067D01*
X91852Y119040D01*
X91924Y119010D01*
X91994Y118976D01*
X91140Y116606D02*
X91071Y116607D01*
X91001Y116611D01*
X90931Y116618D01*
X90862Y116630D01*
X90794Y116645D01*
X90727Y116664D01*
X90660Y116686D01*
X90595Y116712D01*
X90532Y116742D01*
X90470Y116774D01*
X90410Y116810D01*
X90352Y116850D01*
X90297Y116892D01*
X90243Y116937D01*
X90193Y116986D01*
X91141Y116607D02*
X94648Y116322D01*
X92752Y114426D01*
X91079Y112754D02*
X90890Y112943D01*
X90700Y112754D01*
X90890Y112564D01*
X91079Y112754D01*
X87510Y112597D02*
X87424Y112681D01*
X87335Y112762D01*
X87244Y112840D01*
X87150Y112916D01*
X87055Y112989D01*
X86957Y113058D01*
X86857Y113125D01*
X86755Y113189D01*
X86651Y113250D01*
X86545Y113307D01*
X86438Y113361D01*
X86329Y113412D01*
X86218Y113460D01*
X86107Y113504D01*
X85994Y113545D01*
X85938Y113570D01*
X85880Y113592D01*
X85822Y113610D01*
X85762Y113625D01*
X85701Y113636D01*
X85640Y113643D01*
X85579Y113646D01*
X85517Y113645D01*
X85456Y113641D01*
X85395Y113633D01*
X85335Y113621D01*
X85275Y113605D01*
X85217Y113585D01*
X85160Y113562D01*
X85104Y113536D01*
X85050Y113506D01*
X84998Y113473D01*
X84949Y113437D01*
X84901Y113398D01*
X84857Y113355D01*
X84814Y113311D01*
X84775Y113263D01*
X84739Y113214D01*
X84706Y113162D01*
X84676Y113108D01*
X84650Y113052D01*
X84627Y112995D01*
X84607Y112937D01*
X84591Y112877D01*
X84579Y112817D01*
X84571Y112756D01*
X84567Y112695D01*
X84566Y112633D01*
X84569Y112572D01*
X84576Y112511D01*
X84587Y112450D01*
X84602Y112390D01*
X84620Y112332D01*
X84642Y112274D01*
X84667Y112218D01*
X84667Y112219D02*
X84708Y112105D01*
X84752Y111994D01*
X84800Y111883D01*
X84851Y111774D01*
X84905Y111667D01*
X84962Y111561D01*
X85023Y111457D01*
X85087Y111355D01*
X85154Y111255D01*
X85223Y111158D01*
X85296Y111062D01*
X85372Y110968D01*
X85450Y110877D01*
X85531Y110788D01*
X85615Y110702D01*
X87510Y112597D02*
X87594Y112511D01*
X87675Y112422D01*
X87753Y112331D01*
X87829Y112237D01*
X87902Y112142D01*
X87971Y112044D01*
X88038Y111944D01*
X88102Y111842D01*
X88163Y111738D01*
X88220Y111632D01*
X88274Y111525D01*
X88325Y111416D01*
X88373Y111305D01*
X88417Y111194D01*
X88458Y111081D01*
X88459Y111081D02*
X88484Y111025D01*
X88506Y110967D01*
X88524Y110909D01*
X88539Y110849D01*
X88550Y110788D01*
X88557Y110727D01*
X88560Y110666D01*
X88559Y110604D01*
X88555Y110543D01*
X88547Y110482D01*
X88535Y110422D01*
X88519Y110362D01*
X88499Y110304D01*
X88476Y110247D01*
X88450Y110191D01*
X88420Y110137D01*
X88387Y110085D01*
X88351Y110036D01*
X88312Y109988D01*
X88269Y109944D01*
X87131Y109753D02*
X87018Y109794D01*
X86906Y109838D01*
X86796Y109886D01*
X86687Y109937D01*
X86579Y109991D01*
X86474Y110048D01*
X86370Y110109D01*
X86268Y110173D01*
X86168Y110239D01*
X86070Y110309D01*
X85974Y110382D01*
X85881Y110458D01*
X85789Y110536D01*
X85701Y110617D01*
X85614Y110701D01*
X87132Y109754D02*
X87188Y109729D01*
X87246Y109707D01*
X87304Y109689D01*
X87364Y109674D01*
X87425Y109663D01*
X87486Y109656D01*
X87547Y109653D01*
X87609Y109654D01*
X87670Y109658D01*
X87731Y109667D01*
X87791Y109678D01*
X87851Y109694D01*
X87909Y109714D01*
X87966Y109737D01*
X88022Y109763D01*
X88076Y109793D01*
X88128Y109826D01*
X88177Y109862D01*
X88225Y109901D01*
X88269Y109944D01*
X88269Y111460D02*
X84857Y111839D01*
X81782Y110281D02*
X85194Y106868D01*
X84057Y108006D02*
X81403Y107627D01*
X82919Y107816D02*
X83678Y105352D01*
M02*
