G04 EAGLE Gerber RS-274X export*
G75*
%MOMM*%
%FSLAX34Y34*%
%LPD*%
%INSoldermask Bottom*%
%IPPOS*%
%AMOC8*
5,1,8,0,0,1.08239X$1,22.5*%
G01*
G04 Define Apertures*
%ADD10C,5.203200*%
%ADD11C,2.082800*%
%ADD12R,1.303200X1.203200*%
%ADD13C,0.753200*%
%ADD14C,1.003200*%
D10*
X175000Y205000D03*
D11*
X145000Y25000D03*
X100000Y25000D03*
X54600Y207500D03*
X80000Y207500D03*
X105400Y207500D03*
X237500Y95400D03*
X237500Y70000D03*
X237500Y44600D03*
D12*
G36*
X67851Y129343D02*
X58637Y120129D01*
X50129Y128637D01*
X59343Y137851D01*
X67851Y129343D01*
G37*
G36*
X79871Y141363D02*
X70657Y132149D01*
X62149Y140657D01*
X71363Y149871D01*
X79871Y141363D01*
G37*
G36*
X97851Y99343D02*
X88637Y90129D01*
X80129Y98637D01*
X89343Y107851D01*
X97851Y99343D01*
G37*
G36*
X109871Y111363D02*
X100657Y102149D01*
X92149Y110657D01*
X101363Y119871D01*
X109871Y111363D01*
G37*
D11*
X52961Y17039D03*
X35000Y35000D03*
X17039Y52961D03*
D13*
X137000Y62000D03*
X75000Y105000D03*
D14*
X127000Y156000D03*
X115000Y43000D03*
D13*
X78000Y56000D03*
X200000Y80000D03*
X156000Y75000D03*
X176000Y64000D03*
X124000Y110000D03*
X39000Y79000D03*
X148000Y132000D03*
M02*
