G04 EAGLE Gerber RS-274X export*
G75*
%MOMM*%
%FSLAX34Y34*%
%LPD*%
%INSoldermask Top*%
%IPPOS*%
%AMOC8*
5,1,8,0,0,1.08239X$1,22.5*%
G01*
G04 Define Apertures*
%ADD10C,5.203200*%
%ADD11R,0.833200X1.033200*%
%ADD12C,0.505344*%
%ADD13R,0.753200X1.403200*%
%ADD14C,2.082800*%
%ADD15R,1.303200X1.203200*%
%ADD16C,0.753200*%
%ADD17C,1.003200*%
D10*
X175000Y205000D03*
D11*
X201500Y25000D03*
X178500Y25000D03*
D12*
X57490Y124720D02*
X50510Y124720D01*
X57490Y124720D02*
X57490Y117740D01*
X50510Y117740D01*
X50510Y124720D01*
X50510Y122540D02*
X57490Y122540D01*
X57490Y142260D02*
X50510Y142260D01*
X57490Y142260D02*
X57490Y135280D01*
X50510Y135280D01*
X50510Y142260D01*
X50510Y140080D02*
X57490Y140080D01*
D13*
G36*
X154901Y113208D02*
X160227Y118534D01*
X170149Y108612D01*
X164823Y103286D01*
X154901Y113208D01*
G37*
G36*
X148184Y106490D02*
X153510Y111816D01*
X163432Y101894D01*
X158106Y96568D01*
X148184Y106490D01*
G37*
G36*
X141466Y99773D02*
X146792Y105099D01*
X156714Y95177D01*
X151388Y89851D01*
X141466Y99773D01*
G37*
G36*
X159851Y81388D02*
X165177Y86714D01*
X175099Y76792D01*
X169773Y71466D01*
X159851Y81388D01*
G37*
G36*
X173286Y94823D02*
X178612Y100149D01*
X188534Y90227D01*
X183208Y84901D01*
X173286Y94823D01*
G37*
G36*
X166568Y88106D02*
X171894Y93432D01*
X181816Y83510D01*
X176490Y78184D01*
X166568Y88106D01*
G37*
D14*
X145000Y25000D03*
X100000Y25000D03*
X54600Y207500D03*
X80000Y207500D03*
X105400Y207500D03*
X237500Y95400D03*
X237500Y70000D03*
X237500Y44600D03*
D15*
G36*
X102149Y80657D02*
X111363Y89871D01*
X119871Y81363D01*
X110657Y72149D01*
X102149Y80657D01*
G37*
G36*
X90129Y68637D02*
X99343Y77851D01*
X107851Y69343D01*
X98637Y60129D01*
X90129Y68637D01*
G37*
G36*
X67149Y80657D02*
X76363Y89871D01*
X84871Y81363D01*
X75657Y72149D01*
X67149Y80657D01*
G37*
G36*
X55129Y68637D02*
X64343Y77851D01*
X72851Y69343D01*
X63637Y60129D01*
X55129Y68637D01*
G37*
D14*
X52961Y17039D03*
X35000Y35000D03*
X17039Y52961D03*
D16*
X137000Y62000D03*
X75000Y105000D03*
D17*
X127000Y156000D03*
X115000Y43000D03*
D16*
X78000Y56000D03*
X200000Y80000D03*
X156000Y75000D03*
X176000Y64000D03*
X124000Y110000D03*
X39000Y79000D03*
X148000Y132000D03*
M02*
