G04 EAGLE Gerber RS-274X export*
G75*
%MOMM*%
%FSLAX34Y34*%
%LPD*%
%INSilkscreen Top*%
%IPPOS*%
%AMOC8*
5,1,8,0,0,1.08239X$1,22.5*%
G01*
G04 Define Apertures*
%ADD10R,0.600000X0.030000*%
%ADD11R,0.720000X0.030000*%
%ADD12R,0.780000X0.030000*%
%ADD13R,0.840000X0.030000*%
%ADD14R,0.900000X0.030000*%
%ADD15R,0.960000X0.030000*%
%ADD16R,1.020000X0.030000*%
%ADD17R,1.110000X0.030000*%
%ADD18R,1.170000X0.030000*%
%ADD19R,1.290000X0.030000*%
%ADD20R,1.380000X0.030000*%
%ADD21R,1.500000X0.030000*%
%ADD22R,1.590000X0.030000*%
%ADD23R,1.650000X0.030000*%
%ADD24R,1.680000X0.030000*%
%ADD25R,1.710000X0.030000*%
%ADD26R,1.740000X0.030000*%
%ADD27R,1.800000X0.030000*%
%ADD28R,1.830000X0.030000*%
%ADD29R,1.770000X0.030000*%
%ADD30R,0.030000X0.030000*%
%ADD31R,0.120000X0.030000*%
%ADD32R,0.150000X0.030000*%
%ADD33R,0.210000X0.030000*%
%ADD34R,0.180000X0.030000*%
%ADD35R,0.240000X0.030000*%
%ADD36R,0.300000X0.030000*%
%ADD37R,0.060000X0.030000*%
%ADD38R,0.270000X0.030000*%
%ADD39R,1.860000X0.030000*%
%ADD40R,0.090000X0.030000*%
%ADD41R,0.570000X0.030000*%
%ADD42R,0.450000X0.030000*%
%ADD43R,0.360000X0.030000*%
%ADD44R,0.390000X0.030000*%
%ADD45R,1.620000X0.030000*%
%ADD46R,0.420000X0.030000*%
%ADD47R,0.510000X0.030000*%
%ADD48R,1.890000X0.030000*%
%ADD49R,1.980000X0.030000*%
%ADD50R,0.690000X0.030000*%
%ADD51R,2.040000X0.030000*%
%ADD52R,2.310000X0.030000*%
%ADD53R,2.250000X0.030000*%
%ADD54R,2.220000X0.030000*%
%ADD55R,0.480000X0.030000*%
%ADD56R,2.160000X0.030000*%
%ADD57R,2.280000X0.030000*%
%ADD58R,2.340000X0.030000*%
%ADD59R,2.370000X0.030000*%
%ADD60R,2.400000X0.030000*%
%ADD61R,2.460000X0.030000*%
%ADD62R,2.490000X0.030000*%
%ADD63R,2.520000X0.030000*%
%ADD64R,2.550000X0.030000*%
%ADD65R,2.580000X0.030000*%
%ADD66R,0.330000X0.030000*%
%ADD67R,0.540000X0.030000*%
%ADD68R,2.640000X0.030000*%
%ADD69R,0.630000X0.030000*%
%ADD70R,2.190000X0.030000*%
%ADD71R,0.660000X0.030000*%
%ADD72R,2.100000X0.030000*%
%ADD73R,2.070000X0.030000*%
%ADD74R,0.750000X0.030000*%
%ADD75R,0.810000X0.030000*%
%ADD76R,2.130000X0.030000*%
%ADD77R,1.080000X0.030000*%
%ADD78R,1.200000X0.030000*%
%ADD79R,1.350000X0.030000*%
%ADD80R,1.410000X0.030000*%
%ADD81R,1.470000X0.030000*%
%ADD82R,1.920000X0.030000*%
%ADD83R,1.440000X0.030000*%
%ADD84R,1.530000X0.030000*%
%ADD85R,1.560000X0.030000*%
%ADD86R,1.320000X0.030000*%
%ADD87R,1.260000X0.030000*%
%ADD88R,0.870000X0.030000*%
%ADD89R,1.050000X0.030000*%
%ADD90R,1.140000X0.030000*%
%ADD91R,3.690000X0.030000*%
%ADD92R,1.230000X0.030000*%
%ADD93R,3.330000X0.030000*%
%ADD94R,3.300000X0.030000*%
%ADD95R,0.930000X0.030000*%
%ADD96R,0.990000X0.030000*%
%ADD97R,2.010000X0.030000*%
%ADD98R,1.950000X0.030000*%
%ADD99C,0.200000*%
%ADD100C,0.203200*%
%ADD101C,0.304800*%
%ADD102C,0.150000*%
%ADD103C,0.127000*%
%ADD104C,0.152400*%
G36*
X180663Y138750D02*
X177948Y138750D01*
X177948Y150618D01*
X180663Y150618D01*
X180895Y150609D01*
X181116Y150581D01*
X181327Y150534D01*
X181527Y150468D01*
X181717Y150383D01*
X181897Y150279D01*
X182066Y150157D01*
X182225Y150015D01*
X182369Y149859D01*
X182494Y149693D01*
X182599Y149516D01*
X182686Y149328D01*
X182753Y149130D01*
X182801Y148921D01*
X182830Y148702D01*
X182839Y148472D01*
X182839Y140896D01*
X182830Y140666D01*
X182801Y140447D01*
X182752Y140238D01*
X182685Y140040D01*
X182598Y139853D01*
X182492Y139675D01*
X182366Y139509D01*
X182221Y139353D01*
X182062Y139212D01*
X181892Y139089D01*
X181712Y138986D01*
X181523Y138901D01*
X181323Y138835D01*
X181113Y138788D01*
X180893Y138759D01*
X180663Y138750D01*
G37*
%LPC*%
G36*
X180405Y139683D02*
X180698Y139705D01*
X180961Y139771D01*
X181196Y139881D01*
X181402Y140035D01*
X181570Y140228D01*
X181690Y140453D01*
X181761Y140712D01*
X181785Y141002D01*
X181785Y148381D01*
X181762Y148659D01*
X181693Y148909D01*
X181578Y149131D01*
X181417Y149325D01*
X181220Y149483D01*
X180996Y149596D01*
X180744Y149663D01*
X180466Y149686D01*
X179002Y149686D01*
X179002Y139683D01*
X180405Y139683D01*
G37*
%LPD*%
G36*
X200486Y122250D02*
X196573Y122250D01*
X196573Y134118D01*
X200456Y134118D01*
X200633Y134104D01*
X200793Y134060D01*
X200936Y133986D01*
X201062Y133883D01*
X201165Y133757D01*
X201239Y133614D01*
X201283Y133454D01*
X201298Y133277D01*
X201298Y129750D01*
X201291Y129635D01*
X201271Y129525D01*
X201191Y129318D01*
X201059Y129130D01*
X200873Y128962D01*
X200393Y128674D01*
X200039Y128461D01*
X200476Y128179D01*
X200934Y127885D01*
X201106Y127746D01*
X201229Y127574D01*
X201303Y127367D01*
X201322Y127251D01*
X201328Y127126D01*
X201328Y123092D01*
X201313Y122915D01*
X201269Y122754D01*
X201196Y122611D01*
X201093Y122485D01*
X200967Y122382D01*
X200824Y122309D01*
X200663Y122265D01*
X200486Y122250D01*
G37*
%LPC*%
G36*
X200266Y123183D02*
X200266Y127286D01*
X199197Y127983D01*
X197627Y127983D01*
X197627Y123183D01*
X200266Y123183D01*
G37*
G36*
X199182Y128901D02*
X200236Y129614D01*
X200236Y133186D01*
X197627Y133186D01*
X197627Y128901D01*
X199182Y128901D01*
G37*
%LPD*%
G36*
X207504Y138750D02*
X206510Y138750D01*
X206510Y150618D01*
X207299Y150618D01*
X210408Y142041D01*
X210408Y150618D01*
X211402Y150618D01*
X211402Y138750D01*
X210674Y138750D01*
X207504Y147479D01*
X207504Y138750D01*
G37*
G36*
X203782Y138750D02*
X200665Y138750D01*
X200487Y138765D01*
X200327Y138809D01*
X200184Y138882D01*
X200058Y138985D01*
X199955Y139111D01*
X199882Y139254D01*
X199838Y139415D01*
X199823Y139592D01*
X199823Y149777D01*
X199838Y149954D01*
X199882Y150114D01*
X199955Y150257D01*
X200058Y150383D01*
X200184Y150486D01*
X200327Y150560D01*
X200487Y150604D01*
X200665Y150618D01*
X203782Y150618D01*
X203959Y150604D01*
X204119Y150560D01*
X204262Y150486D01*
X204388Y150383D01*
X204491Y150257D01*
X204565Y150114D01*
X204609Y149954D01*
X204623Y149777D01*
X204623Y147016D01*
X203562Y147016D01*
X203562Y149686D01*
X200877Y149686D01*
X200877Y139683D01*
X203562Y139683D01*
X203562Y143786D01*
X202295Y143786D01*
X202295Y144696D01*
X204623Y144696D01*
X204623Y139592D01*
X204609Y139415D01*
X204565Y139254D01*
X204491Y139111D01*
X204388Y138985D01*
X204262Y138882D01*
X204119Y138809D01*
X203959Y138765D01*
X203782Y138750D01*
G37*
G36*
X193833Y122250D02*
X190602Y122250D01*
X190425Y122265D01*
X190265Y122309D01*
X190122Y122382D01*
X189996Y122485D01*
X189893Y122611D01*
X189819Y122754D01*
X189775Y122915D01*
X189760Y123092D01*
X189760Y134118D01*
X190815Y134118D01*
X190815Y123183D01*
X193628Y123183D01*
X193628Y134118D01*
X194682Y134118D01*
X194682Y123092D01*
X194667Y122915D01*
X194622Y122754D01*
X194548Y122611D01*
X194443Y122485D01*
X194316Y122382D01*
X194171Y122309D01*
X194010Y122265D01*
X193833Y122250D01*
G37*
G36*
X194021Y138750D02*
X191033Y138750D01*
X190856Y138765D01*
X190695Y138809D01*
X190550Y138882D01*
X190423Y138985D01*
X190318Y139111D01*
X190243Y139254D01*
X190199Y139415D01*
X190184Y139592D01*
X190184Y142602D01*
X191238Y142602D01*
X191238Y139683D01*
X193801Y139683D01*
X193801Y142511D01*
X190525Y146470D01*
X190376Y146680D01*
X190269Y146900D01*
X190205Y147131D01*
X190184Y147373D01*
X190184Y149777D01*
X190199Y149954D01*
X190243Y150114D01*
X190318Y150257D01*
X190423Y150383D01*
X190550Y150486D01*
X190695Y150560D01*
X190856Y150604D01*
X191033Y150618D01*
X194021Y150618D01*
X194198Y150604D01*
X194358Y150560D01*
X194499Y150486D01*
X194624Y150383D01*
X194725Y150257D01*
X194797Y150114D01*
X194841Y149954D01*
X194855Y149777D01*
X194855Y147016D01*
X193801Y147016D01*
X193801Y149686D01*
X191238Y149686D01*
X191238Y147183D01*
X194529Y143224D01*
X194672Y143021D01*
X194774Y142805D01*
X194835Y142577D01*
X194855Y142337D01*
X194855Y139592D01*
X194841Y139415D01*
X194797Y139254D01*
X194725Y139111D01*
X194624Y138985D01*
X194499Y138882D01*
X194358Y138809D01*
X194198Y138765D01*
X194021Y138750D01*
G37*
G36*
X181846Y122250D02*
X178790Y122250D01*
X178612Y122265D01*
X178452Y122309D01*
X178309Y122382D01*
X178183Y122485D01*
X178080Y122611D01*
X178007Y122754D01*
X177963Y122915D01*
X177948Y123092D01*
X177948Y133277D01*
X177963Y133454D01*
X178007Y133614D01*
X178080Y133757D01*
X178183Y133883D01*
X178309Y133986D01*
X178452Y134060D01*
X178612Y134104D01*
X178790Y134118D01*
X181846Y134118D01*
X182024Y134104D01*
X182185Y134060D01*
X182331Y133986D01*
X182460Y133883D01*
X182566Y133757D01*
X182642Y133614D01*
X182688Y133454D01*
X182703Y133277D01*
X182703Y130516D01*
X181641Y130516D01*
X181641Y133186D01*
X179002Y133186D01*
X179002Y123183D01*
X181641Y123183D01*
X181641Y126102D01*
X182703Y126102D01*
X182703Y123092D01*
X182688Y122915D01*
X182642Y122754D01*
X182566Y122611D01*
X182460Y122485D01*
X182331Y122382D01*
X182185Y122309D01*
X182024Y122265D01*
X181846Y122250D01*
G37*
G36*
X188596Y138750D02*
X184698Y138750D01*
X184698Y150618D01*
X188550Y150618D01*
X188550Y149686D01*
X185752Y149686D01*
X185752Y145257D01*
X188300Y145257D01*
X188300Y144309D01*
X185752Y144309D01*
X185752Y139683D01*
X188596Y139683D01*
X188596Y138750D01*
G37*
G36*
X188334Y122250D02*
X184542Y122250D01*
X184542Y134118D01*
X185596Y134118D01*
X185596Y123183D01*
X188334Y123183D01*
X188334Y122250D01*
G37*
G36*
X197844Y138750D02*
X196790Y138750D01*
X196790Y150618D01*
X197844Y150618D01*
X197844Y138750D01*
G37*
D10*
X54650Y86500D03*
D11*
X54650Y86800D03*
D12*
X54650Y87100D03*
D13*
X54650Y87400D03*
D14*
X54650Y87700D03*
D15*
X54650Y88000D03*
D16*
X54650Y88300D03*
D17*
X54800Y88600D03*
D18*
X54800Y88900D03*
D19*
X54800Y89200D03*
D20*
X54650Y89500D03*
D21*
X54650Y89800D03*
D22*
X54800Y90100D03*
D23*
X54800Y90400D03*
X54800Y90700D03*
D24*
X54950Y91000D03*
X54950Y91300D03*
X54950Y91600D03*
X54950Y91900D03*
D25*
X54500Y92200D03*
D26*
X54350Y92500D03*
D27*
X54350Y92800D03*
X54650Y93100D03*
D28*
X55100Y93400D03*
D27*
X55550Y93700D03*
D29*
X55400Y94000D03*
X55100Y94300D03*
D26*
X54650Y94600D03*
D27*
X54350Y94900D03*
X54350Y95200D03*
X54350Y95500D03*
D28*
X54500Y95800D03*
X55100Y96100D03*
X55400Y96400D03*
D30*
X106400Y96400D03*
D28*
X55400Y96700D03*
D31*
X106550Y96700D03*
D27*
X55250Y97000D03*
D32*
X106400Y97000D03*
D27*
X54650Y97300D03*
D32*
X106100Y97300D03*
D27*
X54350Y97600D03*
D33*
X106100Y97600D03*
D28*
X54200Y97900D03*
D34*
X105950Y97900D03*
D28*
X54500Y98200D03*
D34*
X105950Y98200D03*
D28*
X54800Y98500D03*
D34*
X105650Y98500D03*
D28*
X55100Y98800D03*
D33*
X105500Y98800D03*
D28*
X55400Y99100D03*
D35*
X105350Y99100D03*
D27*
X55250Y99400D03*
D35*
X105350Y99400D03*
D27*
X54950Y99700D03*
D35*
X105050Y99700D03*
D27*
X54650Y100000D03*
D36*
X104750Y100000D03*
D29*
X54500Y100300D03*
D37*
X102950Y100300D03*
D38*
X104900Y100300D03*
D29*
X54500Y100600D03*
D30*
X102500Y100600D03*
D36*
X104750Y100600D03*
D28*
X54800Y100900D03*
D37*
X101750Y100900D03*
D36*
X104450Y100900D03*
D39*
X54950Y101200D03*
D30*
X101300Y101200D03*
D36*
X104450Y101200D03*
D39*
X54950Y101500D03*
D30*
X101000Y101500D03*
D35*
X104450Y101500D03*
D39*
X54950Y101800D03*
D37*
X100550Y101800D03*
D34*
X104750Y101800D03*
D39*
X54950Y102100D03*
D30*
X71000Y102100D03*
X100100Y102100D03*
D32*
X104900Y102100D03*
D39*
X54950Y102400D03*
D34*
X70550Y102400D03*
D37*
X99650Y102400D03*
D40*
X104900Y102400D03*
D41*
X48500Y102700D03*
D42*
X55100Y102700D03*
D41*
X61400Y102700D03*
D35*
X70250Y102700D03*
D37*
X99050Y102700D03*
D43*
X47450Y103000D03*
D16*
X54950Y103000D03*
D44*
X62300Y103000D03*
D36*
X70250Y103000D03*
D37*
X98750Y103000D03*
D33*
X46700Y103300D03*
D45*
X56150Y103300D03*
D43*
X70250Y103300D03*
D37*
X98150Y103300D03*
D40*
X46100Y103600D03*
D26*
X55550Y103600D03*
D46*
X69950Y103600D03*
D37*
X97850Y103600D03*
D39*
X54950Y103900D03*
D47*
X69800Y103900D03*
D37*
X97550Y103900D03*
D48*
X54800Y104200D03*
D10*
X69650Y104200D03*
D37*
X96950Y104200D03*
D49*
X54650Y104500D03*
D50*
X69200Y104500D03*
D37*
X96350Y104500D03*
D51*
X54650Y104800D03*
D43*
X67250Y104800D03*
D38*
X71600Y104800D03*
D40*
X95900Y104800D03*
D51*
X54650Y105100D03*
D36*
X66650Y105100D03*
D32*
X72200Y105100D03*
D40*
X95300Y105100D03*
D30*
X41600Y105400D03*
D52*
X55700Y105400D03*
D32*
X72500Y105400D03*
D40*
X95000Y105400D03*
D31*
X41150Y105700D03*
D53*
X55400Y105700D03*
D31*
X72650Y105700D03*
D37*
X94550Y105700D03*
D33*
X40700Y106000D03*
D54*
X55250Y106000D03*
D40*
X94100Y106000D03*
D37*
X37550Y106300D03*
D43*
X39950Y106300D03*
D54*
X54950Y106300D03*
D40*
X93800Y106300D03*
D55*
X39350Y106600D03*
D56*
X54650Y106600D03*
D40*
X93200Y106600D03*
D47*
X39200Y106900D03*
D54*
X54650Y106900D03*
D31*
X92750Y106900D03*
D50*
X38300Y107200D03*
D54*
X54650Y107200D03*
D40*
X92300Y107200D03*
D50*
X38300Y107500D03*
D54*
X54650Y107500D03*
D31*
X91850Y107500D03*
D33*
X36800Y107800D03*
D31*
X40850Y107800D03*
D54*
X54650Y107800D03*
D40*
X91400Y107800D03*
D53*
X54500Y108100D03*
D40*
X90800Y108100D03*
D53*
X54500Y108400D03*
D40*
X90200Y108400D03*
D57*
X54650Y108700D03*
D40*
X89900Y108700D03*
D52*
X54500Y109000D03*
D31*
X89450Y109000D03*
D52*
X54500Y109300D03*
D40*
X89000Y109300D03*
D58*
X54650Y109600D03*
D31*
X88550Y109600D03*
D58*
X54650Y109900D03*
D31*
X87950Y109900D03*
D59*
X54500Y110200D03*
D31*
X87650Y110200D03*
D60*
X54650Y110500D03*
D40*
X87200Y110500D03*
D60*
X54650Y110800D03*
D31*
X86750Y110800D03*
D60*
X54650Y111100D03*
D31*
X86450Y111100D03*
D61*
X54650Y111400D03*
D31*
X85850Y111400D03*
D61*
X54650Y111700D03*
D34*
X78050Y111700D03*
D31*
X85250Y111700D03*
D62*
X54800Y112000D03*
D33*
X78200Y112000D03*
D32*
X84800Y112000D03*
D40*
X91100Y112000D03*
D62*
X54800Y112300D03*
D38*
X78200Y112300D03*
D32*
X84200Y112300D03*
D43*
X91250Y112300D03*
D63*
X54950Y112600D03*
D38*
X78200Y112600D03*
D32*
X83900Y112600D03*
D42*
X91700Y112600D03*
D64*
X54800Y112900D03*
D36*
X78350Y112900D03*
D31*
X83450Y112900D03*
D47*
X92300Y112900D03*
D65*
X54950Y113200D03*
D66*
X78500Y113200D03*
D32*
X83000Y113200D03*
D47*
X92900Y113200D03*
D65*
X54950Y113500D03*
D44*
X78500Y113500D03*
D32*
X82700Y113500D03*
D67*
X93350Y113500D03*
D68*
X54950Y113800D03*
D46*
X78650Y113800D03*
D32*
X82100Y113800D03*
D10*
X93650Y113800D03*
D53*
X53000Y114100D03*
D32*
X67400Y114100D03*
D10*
X79550Y114100D03*
D69*
X94100Y114100D03*
D70*
X52700Y114400D03*
D31*
X67850Y114400D03*
D41*
X79400Y114400D03*
D71*
X94550Y114400D03*
D56*
X52250Y114700D03*
D37*
X68150Y114700D03*
D41*
X79400Y114700D03*
D71*
X94850Y114700D03*
D72*
X51950Y115000D03*
D37*
X68450Y115000D03*
D10*
X79550Y115000D03*
D50*
X95300Y115000D03*
D73*
X51800Y115300D03*
D30*
X68600Y115300D03*
D10*
X79550Y115300D03*
D74*
X95600Y115300D03*
D73*
X51500Y115600D03*
D30*
X68900Y115600D03*
D10*
X79550Y115600D03*
D12*
X96050Y115600D03*
D51*
X51350Y115900D03*
D30*
X68900Y115900D03*
D10*
X79550Y115900D03*
D75*
X96200Y115900D03*
D51*
X51050Y116200D03*
D69*
X79700Y116200D03*
D12*
X96350Y116200D03*
D51*
X51050Y116500D03*
D30*
X69200Y116500D03*
D10*
X79850Y116500D03*
D74*
X96200Y116500D03*
D73*
X50900Y116800D03*
D69*
X79700Y116800D03*
D74*
X96200Y116800D03*
D73*
X50900Y117100D03*
D32*
X77000Y117100D03*
D43*
X81350Y117100D03*
D74*
X96200Y117100D03*
D72*
X51050Y117400D03*
D34*
X76550Y117400D03*
D33*
X81800Y117400D03*
D30*
X92600Y117400D03*
D69*
X96500Y117400D03*
D76*
X50900Y117700D03*
D32*
X76100Y117700D03*
D46*
X97550Y117700D03*
D56*
X51050Y118000D03*
D34*
X75650Y118000D03*
D66*
X98000Y118000D03*
D54*
X51050Y118300D03*
D33*
X75200Y118300D03*
D77*
X84350Y118300D03*
D42*
X98000Y118300D03*
D46*
X114950Y118300D03*
D42*
X127400Y118300D03*
X134600Y118300D03*
X146300Y118300D03*
D46*
X153650Y118300D03*
D55*
X165050Y118300D03*
D54*
X51050Y118600D03*
D34*
X74750Y118600D03*
D78*
X84350Y118600D03*
D42*
X98000Y118600D03*
D46*
X114950Y118600D03*
D42*
X127400Y118600D03*
X134600Y118600D03*
X146000Y118600D03*
D46*
X153650Y118600D03*
D55*
X165050Y118600D03*
D70*
X50600Y118900D03*
D33*
X74000Y118900D03*
D19*
X84200Y118900D03*
D42*
X98000Y118900D03*
D46*
X114950Y118900D03*
X127250Y118900D03*
D42*
X134600Y118900D03*
X146000Y118900D03*
D46*
X153650Y118900D03*
D55*
X164750Y118900D03*
D56*
X50450Y119200D03*
D33*
X73700Y119200D03*
D79*
X84200Y119200D03*
D42*
X98000Y119200D03*
X115100Y119200D03*
D46*
X127250Y119200D03*
D42*
X134600Y119200D03*
X145700Y119200D03*
D46*
X153650Y119200D03*
D47*
X164600Y119200D03*
D76*
X50000Y119500D03*
D34*
X73250Y119500D03*
D80*
X84200Y119500D03*
D42*
X98000Y119500D03*
D46*
X115250Y119500D03*
X127250Y119500D03*
D42*
X134600Y119500D03*
X145700Y119500D03*
D46*
X153650Y119500D03*
D55*
X164450Y119500D03*
D72*
X49850Y119800D03*
D33*
X72800Y119800D03*
D80*
X84200Y119800D03*
D42*
X98000Y119800D03*
D46*
X115250Y119800D03*
D42*
X127100Y119800D03*
X134600Y119800D03*
X145700Y119800D03*
D46*
X153650Y119800D03*
D55*
X164450Y119800D03*
D72*
X49550Y120100D03*
D34*
X72350Y120100D03*
D81*
X84200Y120100D03*
D42*
X98000Y120100D03*
D46*
X115250Y120100D03*
D42*
X127100Y120100D03*
X134600Y120100D03*
X145400Y120100D03*
D46*
X153650Y120100D03*
D42*
X164300Y120100D03*
D72*
X49250Y120400D03*
D33*
X71900Y120400D03*
D81*
X84200Y120400D03*
D42*
X98000Y120400D03*
D46*
X115250Y120400D03*
D42*
X127100Y120400D03*
X134600Y120400D03*
X145400Y120400D03*
D46*
X153650Y120400D03*
D55*
X164150Y120400D03*
D82*
X48350Y120700D03*
D31*
X58850Y120700D03*
D35*
X71450Y120700D03*
D81*
X84200Y120700D03*
D42*
X98000Y120700D03*
D46*
X115250Y120700D03*
X126950Y120700D03*
D42*
X134600Y120700D03*
X145400Y120700D03*
D46*
X153650Y120700D03*
D42*
X164000Y120700D03*
D82*
X48050Y121000D03*
D37*
X58550Y121000D03*
D33*
X71000Y121000D03*
D81*
X84200Y121000D03*
D42*
X98000Y121000D03*
X115400Y121000D03*
D46*
X126950Y121000D03*
D42*
X134600Y121000D03*
D55*
X145250Y121000D03*
D46*
X153650Y121000D03*
D55*
X163850Y121000D03*
D48*
X47900Y121300D03*
D30*
X58400Y121300D03*
D35*
X70550Y121300D03*
D81*
X84200Y121300D03*
D42*
X98000Y121300D03*
D46*
X115550Y121300D03*
X126950Y121300D03*
D42*
X134600Y121300D03*
X145100Y121300D03*
D46*
X153650Y121300D03*
D42*
X163700Y121300D03*
D83*
X45350Y121600D03*
D36*
X55850Y121600D03*
D37*
X58250Y121600D03*
D33*
X70100Y121600D03*
D81*
X84200Y121600D03*
D42*
X98000Y121600D03*
D46*
X115550Y121600D03*
D42*
X126800Y121600D03*
X134600Y121600D03*
X145100Y121600D03*
D46*
X153650Y121600D03*
D55*
X163550Y121600D03*
D80*
X44900Y121900D03*
D35*
X56150Y121900D03*
D37*
X58250Y121900D03*
D33*
X69800Y121900D03*
D81*
X84200Y121900D03*
D42*
X98000Y121900D03*
D46*
X115550Y121900D03*
D42*
X126800Y121900D03*
X134600Y121900D03*
D55*
X144950Y121900D03*
D46*
X153650Y121900D03*
D42*
X163400Y121900D03*
D80*
X44900Y122200D03*
D33*
X56300Y122200D03*
D40*
X58100Y122200D03*
D33*
X69200Y122200D03*
D46*
X78950Y122200D03*
X89450Y122200D03*
D42*
X98000Y122200D03*
D46*
X115550Y122200D03*
X126650Y122200D03*
D42*
X134600Y122200D03*
X144800Y122200D03*
D46*
X153650Y122200D03*
D55*
X163250Y122200D03*
D83*
X44750Y122500D03*
D35*
X57050Y122500D03*
D33*
X68600Y122500D03*
D46*
X78950Y122500D03*
X89450Y122500D03*
D42*
X98000Y122500D03*
D46*
X115550Y122500D03*
X126650Y122500D03*
D42*
X134600Y122500D03*
D55*
X144650Y122500D03*
D46*
X153650Y122500D03*
D47*
X163100Y122500D03*
D21*
X44750Y122800D03*
D31*
X56450Y122800D03*
D40*
X57800Y122800D03*
D33*
X68000Y122800D03*
D46*
X78950Y122800D03*
X89450Y122800D03*
D42*
X98000Y122800D03*
D46*
X115850Y122800D03*
X126650Y122800D03*
D42*
X134600Y122800D03*
X144500Y122800D03*
D46*
X153650Y122800D03*
D55*
X162950Y122800D03*
D84*
X44600Y123100D03*
D37*
X56450Y123100D03*
D31*
X57650Y123100D03*
D33*
X67700Y123100D03*
D37*
X69950Y123100D03*
D46*
X78950Y123100D03*
X89450Y123100D03*
D42*
X98000Y123100D03*
D46*
X115850Y123100D03*
X126650Y123100D03*
D42*
X134600Y123100D03*
X144500Y123100D03*
D46*
X153650Y123100D03*
D47*
X162800Y123100D03*
D20*
X43850Y123400D03*
D40*
X51800Y123400D03*
D30*
X56300Y123400D03*
D40*
X57500Y123400D03*
D35*
X67250Y123400D03*
D34*
X70250Y123400D03*
D46*
X78950Y123400D03*
X89450Y123400D03*
D42*
X98000Y123400D03*
D46*
X115850Y123400D03*
D42*
X126500Y123400D03*
X134600Y123400D03*
D55*
X144350Y123400D03*
D46*
X153650Y123400D03*
D55*
X162650Y123400D03*
D20*
X43850Y123700D03*
D31*
X51950Y123700D03*
X57350Y123700D03*
D33*
X66800Y123700D03*
D34*
X70250Y123700D03*
D46*
X78950Y123700D03*
X89450Y123700D03*
D42*
X98000Y123700D03*
D46*
X115850Y123700D03*
D42*
X126500Y123700D03*
X134600Y123700D03*
X144200Y123700D03*
D46*
X153650Y123700D03*
D55*
X162650Y123700D03*
D20*
X43550Y124000D03*
D31*
X51950Y124000D03*
X57350Y124000D03*
D35*
X66350Y124000D03*
D33*
X70400Y124000D03*
D46*
X78950Y124000D03*
X89450Y124000D03*
D42*
X98000Y124000D03*
D46*
X115850Y124000D03*
X126350Y124000D03*
D42*
X134600Y124000D03*
X144200Y124000D03*
D46*
X153650Y124000D03*
D55*
X162350Y124000D03*
D80*
X43400Y124300D03*
D31*
X51950Y124300D03*
D40*
X53300Y124300D03*
D31*
X57050Y124300D03*
D33*
X65900Y124300D03*
X70400Y124300D03*
D46*
X78950Y124300D03*
X89450Y124300D03*
D42*
X98000Y124300D03*
D46*
X115850Y124300D03*
X126350Y124300D03*
D42*
X134600Y124300D03*
D55*
X144050Y124300D03*
D46*
X153650Y124300D03*
D55*
X162350Y124300D03*
D80*
X43400Y124600D03*
D38*
X52700Y124600D03*
D31*
X57050Y124600D03*
D35*
X65450Y124600D03*
D34*
X70550Y124600D03*
D46*
X78950Y124600D03*
X89450Y124600D03*
D42*
X98000Y124600D03*
D46*
X116150Y124600D03*
X126350Y124600D03*
D42*
X134600Y124600D03*
X143900Y124600D03*
D46*
X153650Y124600D03*
D55*
X162050Y124600D03*
D80*
X43100Y124900D03*
D32*
X52100Y124900D03*
D40*
X53600Y124900D03*
D32*
X56900Y124900D03*
D30*
X62300Y124900D03*
D33*
X65000Y124900D03*
X70700Y124900D03*
D46*
X78950Y124900D03*
X89450Y124900D03*
D42*
X98000Y124900D03*
D46*
X116150Y124900D03*
X126350Y124900D03*
D42*
X134600Y124900D03*
X143900Y124900D03*
D46*
X153650Y124900D03*
D55*
X162050Y124900D03*
D80*
X43100Y125200D03*
D32*
X52100Y125200D03*
D37*
X53450Y125200D03*
D31*
X56750Y125200D03*
D37*
X62150Y125200D03*
D35*
X64550Y125200D03*
D43*
X69950Y125200D03*
D46*
X78950Y125200D03*
X89450Y125200D03*
D42*
X98000Y125200D03*
D46*
X116150Y125200D03*
D42*
X126200Y125200D03*
X134600Y125200D03*
X143600Y125200D03*
D46*
X153650Y125200D03*
D55*
X161750Y125200D03*
D80*
X42800Y125500D03*
D31*
X52250Y125500D03*
D32*
X56600Y125500D03*
D44*
X63500Y125500D03*
X69800Y125500D03*
D46*
X78950Y125500D03*
X89450Y125500D03*
D42*
X98000Y125500D03*
D46*
X116150Y125500D03*
X126050Y125500D03*
D42*
X134600Y125500D03*
X143600Y125500D03*
D46*
X153650Y125500D03*
D55*
X161750Y125500D03*
D80*
X42800Y125800D03*
D32*
X52400Y125800D03*
X56600Y125800D03*
D66*
X63200Y125800D03*
D46*
X69950Y125800D03*
X78950Y125800D03*
X89450Y125800D03*
D42*
X98000Y125800D03*
D46*
X116150Y125800D03*
X126050Y125800D03*
D42*
X134600Y125800D03*
X143600Y125800D03*
D46*
X153650Y125800D03*
D55*
X161450Y125800D03*
D20*
X42350Y126100D03*
D32*
X52400Y126100D03*
X56300Y126100D03*
D35*
X63050Y126100D03*
D46*
X69950Y126100D03*
X78950Y126100D03*
X89450Y126100D03*
D42*
X98000Y126100D03*
D20*
X121250Y126100D03*
D42*
X134600Y126100D03*
X143300Y126100D03*
D46*
X153650Y126100D03*
D47*
X161300Y126100D03*
D20*
X42350Y126400D03*
D34*
X52550Y126400D03*
D32*
X56300Y126400D03*
D38*
X62600Y126400D03*
D46*
X69950Y126400D03*
X78950Y126400D03*
X89450Y126400D03*
D42*
X98000Y126400D03*
D20*
X121250Y126400D03*
D42*
X134600Y126400D03*
X143300Y126400D03*
D46*
X153650Y126400D03*
D55*
X161150Y126400D03*
D83*
X42350Y126700D03*
D32*
X52700Y126700D03*
D34*
X56150Y126700D03*
D35*
X62150Y126700D03*
D46*
X69950Y126700D03*
X78950Y126700D03*
X89450Y126700D03*
D42*
X98000Y126700D03*
D20*
X121250Y126700D03*
D42*
X134600Y126700D03*
D55*
X143150Y126700D03*
D46*
X153650Y126700D03*
D47*
X161000Y126700D03*
D81*
X42500Y127000D03*
D33*
X52400Y127000D03*
D32*
X56000Y127000D03*
D38*
X61700Y127000D03*
D66*
X69500Y127000D03*
D46*
X78950Y127000D03*
X89450Y127000D03*
D42*
X98000Y127000D03*
D79*
X121100Y127000D03*
D42*
X134600Y127000D03*
X143000Y127000D03*
D46*
X153650Y127000D03*
D55*
X160850Y127000D03*
D21*
X42650Y127300D03*
D33*
X52400Y127300D03*
D34*
X55850Y127300D03*
D35*
X61250Y127300D03*
D38*
X69200Y127300D03*
D75*
X77000Y127300D03*
D46*
X89450Y127300D03*
D42*
X98000Y127300D03*
D79*
X121100Y127300D03*
D42*
X134600Y127300D03*
X143000Y127300D03*
D46*
X153650Y127300D03*
D55*
X160850Y127300D03*
D85*
X42650Y127600D03*
D35*
X52550Y127600D03*
D34*
X55850Y127600D03*
D38*
X60800Y127600D03*
D86*
X74450Y127600D03*
D46*
X89450Y127600D03*
D42*
X98000Y127600D03*
D86*
X121250Y127600D03*
D42*
X134600Y127600D03*
D46*
X142850Y127600D03*
X153650Y127600D03*
D42*
X160700Y127600D03*
D22*
X42800Y127900D03*
D33*
X52700Y127900D03*
D32*
X55700Y127900D03*
D36*
X60350Y127900D03*
D84*
X73700Y127900D03*
D46*
X89450Y127900D03*
D42*
X98000Y127900D03*
D86*
X121250Y127900D03*
D42*
X134600Y127900D03*
D46*
X142850Y127900D03*
X153650Y127900D03*
D55*
X160550Y127900D03*
D83*
X42050Y128200D03*
D32*
X50300Y128200D03*
D46*
X54350Y128200D03*
D38*
X59900Y128200D03*
D23*
X74000Y128200D03*
D46*
X89450Y128200D03*
D42*
X98000Y128200D03*
D86*
X121250Y128200D03*
D42*
X134600Y128200D03*
X142700Y128200D03*
D46*
X153650Y128200D03*
D42*
X160400Y128200D03*
D87*
X40850Y128500D03*
D32*
X50600Y128500D03*
D47*
X54800Y128500D03*
D38*
X59600Y128500D03*
D26*
X74150Y128500D03*
D46*
X89450Y128500D03*
D42*
X98000Y128500D03*
D86*
X121250Y128500D03*
D42*
X134600Y128500D03*
D46*
X142550Y128500D03*
X153650Y128500D03*
D55*
X160250Y128500D03*
D77*
X39950Y128800D03*
D32*
X50900Y128800D03*
D75*
X56300Y128800D03*
D27*
X74150Y128800D03*
D46*
X89450Y128800D03*
D42*
X98000Y128800D03*
D19*
X121100Y128800D03*
D42*
X134600Y128800D03*
D46*
X142550Y128800D03*
X153650Y128800D03*
D42*
X160100Y128800D03*
D15*
X39350Y129100D03*
D34*
X51050Y129100D03*
D12*
X56150Y129100D03*
D28*
X74000Y129100D03*
D46*
X89450Y129100D03*
D42*
X98000Y129100D03*
D19*
X121100Y129100D03*
D42*
X134600Y129100D03*
X142400Y129100D03*
D46*
X153650Y129100D03*
D55*
X159950Y129100D03*
D88*
X38900Y129400D03*
D34*
X51350Y129400D03*
D50*
X56000Y129400D03*
D28*
X73700Y129400D03*
D46*
X89450Y129400D03*
D42*
X98000Y129400D03*
D30*
X107300Y129400D03*
D87*
X121250Y129400D03*
D42*
X134600Y129400D03*
D46*
X142250Y129400D03*
X153650Y129400D03*
D42*
X159800Y129400D03*
D89*
X39500Y129700D03*
D77*
X53450Y129700D03*
D39*
X73550Y129700D03*
D42*
X89300Y129700D03*
X98000Y129700D03*
D37*
X107150Y129700D03*
D44*
X116900Y129700D03*
D46*
X125450Y129700D03*
D42*
X134600Y129700D03*
X142100Y129700D03*
D46*
X153650Y129700D03*
D55*
X159650Y129700D03*
D11*
X37850Y130000D03*
D22*
X50600Y130000D03*
D39*
X73550Y130000D03*
D55*
X89150Y130000D03*
D42*
X98000Y130000D03*
D40*
X107000Y130000D03*
D44*
X116900Y130000D03*
D46*
X125450Y130000D03*
D42*
X134600Y130000D03*
X142100Y130000D03*
D46*
X153650Y130000D03*
D47*
X159500Y130000D03*
D71*
X37550Y130300D03*
D11*
X47450Y130300D03*
D71*
X54650Y130300D03*
D48*
X73400Y130300D03*
D47*
X89000Y130300D03*
D42*
X98000Y130300D03*
D35*
X106550Y130300D03*
D46*
X117050Y130300D03*
D44*
X125300Y130300D03*
D42*
X134600Y130300D03*
X142100Y130300D03*
D46*
X153650Y130300D03*
D55*
X159350Y130300D03*
D10*
X37250Y130600D03*
D19*
X51200Y130600D03*
D39*
X73550Y130600D03*
D55*
X88850Y130600D03*
D42*
X98000Y130600D03*
D43*
X105950Y130600D03*
D46*
X117050Y130600D03*
D44*
X125300Y130600D03*
D42*
X134600Y130600D03*
X141800Y130600D03*
D46*
X153650Y130600D03*
D47*
X159200Y130600D03*
D41*
X36800Y130900D03*
D18*
X51800Y130900D03*
D28*
X73700Y130900D03*
D47*
X88700Y130900D03*
D42*
X98000Y130900D03*
D46*
X105650Y130900D03*
D44*
X117200Y130900D03*
D46*
X125150Y130900D03*
D42*
X134600Y130900D03*
X141800Y130900D03*
D46*
X153650Y130900D03*
D55*
X159050Y130900D03*
D67*
X36350Y131200D03*
D90*
X51950Y131200D03*
D28*
X74000Y131200D03*
D47*
X88400Y131200D03*
D42*
X98000Y131200D03*
D55*
X105350Y131200D03*
D44*
X117200Y131200D03*
D46*
X125150Y131200D03*
D42*
X134600Y131200D03*
D46*
X141650Y131200D03*
X153650Y131200D03*
D55*
X159050Y131200D03*
D67*
X36050Y131500D03*
D84*
X53900Y131500D03*
D27*
X74150Y131500D03*
D67*
X88250Y131500D03*
D42*
X98000Y131500D03*
D47*
X105200Y131500D03*
D44*
X117200Y131500D03*
D46*
X125150Y131500D03*
D42*
X134600Y131500D03*
X141500Y131500D03*
D46*
X153650Y131500D03*
D55*
X158750Y131500D03*
D41*
X35600Y131800D03*
D91*
X64700Y131800D03*
D67*
X87950Y131800D03*
D92*
X101900Y131800D03*
D44*
X117200Y131800D03*
D46*
X125150Y131800D03*
D42*
X134600Y131800D03*
X141500Y131800D03*
D46*
X153650Y131800D03*
D55*
X158750Y131800D03*
D10*
X35450Y132100D03*
D35*
X47750Y132100D03*
D93*
X66500Y132100D03*
D67*
X87950Y132100D03*
D86*
X102350Y132100D03*
D44*
X117200Y132100D03*
X125000Y132100D03*
D42*
X134600Y132100D03*
D46*
X141350Y132100D03*
X153650Y132100D03*
D55*
X158450Y132100D03*
D10*
X35150Y132400D03*
D37*
X42950Y132400D03*
D32*
X47600Y132400D03*
D94*
X66650Y132400D03*
D67*
X87650Y132400D03*
D20*
X102650Y132400D03*
D44*
X117200Y132400D03*
X125000Y132400D03*
D42*
X134600Y132400D03*
X141200Y132400D03*
D95*
X156200Y132400D03*
D50*
X35000Y132700D03*
D31*
X42950Y132700D03*
D40*
X47600Y132700D03*
D86*
X56750Y132700D03*
D25*
X74600Y132700D03*
D67*
X87350Y132700D03*
D80*
X102800Y132700D03*
D43*
X117350Y132700D03*
D46*
X124850Y132700D03*
D42*
X134600Y132700D03*
X141200Y132700D03*
D14*
X156050Y132700D03*
D11*
X34850Y133000D03*
D40*
X42800Y133000D03*
D30*
X47600Y133000D03*
D75*
X53900Y133000D03*
D24*
X74750Y133000D03*
D41*
X87200Y133000D03*
D83*
X102950Y133000D03*
D44*
X117500Y133000D03*
D46*
X124850Y133000D03*
D42*
X134600Y133000D03*
X140900Y133000D03*
D14*
X156050Y133000D03*
D12*
X34550Y133300D03*
D88*
X53600Y133300D03*
D37*
X59750Y133300D03*
D45*
X74750Y133300D03*
D67*
X86750Y133300D03*
D81*
X103100Y133300D03*
D44*
X117500Y133300D03*
D46*
X124850Y133300D03*
D42*
X134600Y133300D03*
X140900Y133300D03*
D88*
X155900Y133300D03*
X34400Y133600D03*
D95*
X53300Y133600D03*
X71600Y133600D03*
D67*
X79850Y133600D03*
X86450Y133600D03*
D81*
X103100Y133600D03*
D44*
X117500Y133600D03*
X124700Y133600D03*
D42*
X134600Y133600D03*
D46*
X140750Y133600D03*
D88*
X155900Y133600D03*
D95*
X34400Y133900D03*
D77*
X53150Y133900D03*
D75*
X71300Y133900D03*
D38*
X78800Y133900D03*
D41*
X86300Y133900D03*
D21*
X103250Y133900D03*
D44*
X117500Y133900D03*
X124700Y133900D03*
D42*
X134600Y133900D03*
X140600Y133900D03*
D13*
X155750Y133900D03*
D15*
X34250Y134200D03*
D90*
X53150Y134200D03*
D75*
X71300Y134200D03*
D33*
X78800Y134200D03*
D67*
X86150Y134200D03*
D21*
X103250Y134200D03*
D44*
X117500Y134200D03*
X124700Y134200D03*
D42*
X134600Y134200D03*
X140600Y134200D03*
D13*
X155750Y134200D03*
D16*
X34250Y134500D03*
D92*
X53000Y134500D03*
D74*
X71300Y134500D03*
D34*
X78950Y134500D03*
D67*
X85850Y134500D03*
D21*
X103250Y134500D03*
D44*
X117500Y134500D03*
X124700Y134500D03*
D42*
X134600Y134500D03*
D46*
X140450Y134500D03*
D75*
X155600Y134500D03*
D90*
X34250Y134800D03*
D30*
X45500Y134800D03*
D20*
X52850Y134800D03*
D11*
X71450Y134800D03*
D31*
X78950Y134800D03*
D67*
X85550Y134800D03*
D21*
X103250Y134800D03*
D46*
X117650Y134800D03*
D44*
X124700Y134800D03*
D42*
X134600Y134800D03*
D74*
X141800Y134800D03*
D75*
X155600Y134800D03*
D78*
X34250Y135100D03*
D43*
X46850Y135100D03*
D17*
X54500Y135100D03*
D67*
X72350Y135100D03*
D37*
X78950Y135100D03*
D67*
X85250Y135100D03*
D21*
X103250Y135100D03*
D44*
X117800Y135100D03*
X124700Y135100D03*
D42*
X134600Y135100D03*
D75*
X142100Y135100D03*
D12*
X155450Y135100D03*
D86*
X34250Y135400D03*
D36*
X46250Y135400D03*
D88*
X53600Y135400D03*
D33*
X59600Y135400D03*
D47*
X72500Y135400D03*
X85100Y135400D03*
D21*
X103250Y135400D03*
D44*
X117800Y135400D03*
X124400Y135400D03*
D42*
X134600Y135400D03*
D88*
X142400Y135400D03*
D12*
X155450Y135400D03*
D83*
X34550Y135700D03*
D36*
X45650Y135700D03*
D13*
X53750Y135700D03*
D33*
X59900Y135700D03*
D42*
X72500Y135700D03*
D67*
X84950Y135700D03*
D21*
X103250Y135700D03*
D44*
X117800Y135700D03*
X124400Y135700D03*
D42*
X134600Y135700D03*
D95*
X142400Y135700D03*
D74*
X155300Y135700D03*
D85*
X34550Y136000D03*
D36*
X45050Y136000D03*
D13*
X53750Y136000D03*
D33*
X60500Y136000D03*
D40*
X63500Y136000D03*
D46*
X72650Y136000D03*
D67*
X84650Y136000D03*
D42*
X98000Y136000D03*
X108500Y136000D03*
D44*
X117800Y136000D03*
X124400Y136000D03*
D42*
X134600Y136000D03*
D95*
X142400Y136000D03*
D74*
X155300Y136000D03*
D51*
X36350Y136300D03*
D13*
X53750Y136300D03*
D33*
X61100Y136300D03*
D32*
X63500Y136300D03*
D46*
X72650Y136300D03*
D67*
X84350Y136300D03*
D42*
X98000Y136300D03*
X108500Y136300D03*
D44*
X117800Y136300D03*
X124400Y136300D03*
D42*
X134600Y136300D03*
D15*
X142550Y136300D03*
D11*
X155150Y136300D03*
D26*
X34550Y136600D03*
D36*
X45050Y136600D03*
D14*
X53750Y136600D03*
D46*
X62750Y136600D03*
D34*
X71750Y136600D03*
D67*
X84050Y136600D03*
D42*
X98000Y136600D03*
X108500Y136600D03*
D44*
X118100Y136600D03*
X124400Y136600D03*
D42*
X134600Y136600D03*
D16*
X142550Y136600D03*
D11*
X155150Y136600D03*
D28*
X34400Y136900D03*
D35*
X45350Y136900D03*
D95*
X53600Y136900D03*
D46*
X63350Y136900D03*
D31*
X71750Y136900D03*
D67*
X83750Y136900D03*
D42*
X98000Y136900D03*
X108500Y136900D03*
D44*
X118100Y136900D03*
X124400Y136900D03*
D42*
X134600Y136900D03*
D16*
X142550Y136900D03*
D11*
X155150Y136900D03*
D82*
X34250Y137200D03*
D32*
X44900Y137200D03*
D15*
X53450Y137200D03*
D43*
X63650Y137200D03*
D30*
X71600Y137200D03*
D41*
X83600Y137200D03*
D42*
X98000Y137200D03*
X108500Y137200D03*
D44*
X118100Y137200D03*
D46*
X124250Y137200D03*
D42*
X134600Y137200D03*
D89*
X142400Y137200D03*
D74*
X155300Y137200D03*
D72*
X34550Y137500D03*
D96*
X53300Y137500D03*
D36*
X63650Y137500D03*
D41*
X83300Y137500D03*
D42*
X98000Y137500D03*
X108500Y137500D03*
D44*
X118100Y137500D03*
D46*
X124250Y137500D03*
D42*
X134600Y137500D03*
D16*
X142550Y137500D03*
D74*
X155300Y137500D03*
D76*
X34100Y137800D03*
D16*
X53150Y137800D03*
D35*
X63950Y137800D03*
D41*
X83000Y137800D03*
D42*
X98000Y137800D03*
X108500Y137800D03*
D44*
X118100Y137800D03*
X124100Y137800D03*
D42*
X134600Y137800D03*
D96*
X142700Y137800D03*
D12*
X155450Y137800D03*
D76*
X33800Y138100D03*
D89*
X53300Y138100D03*
D33*
X64100Y138100D03*
D67*
X82850Y138100D03*
D42*
X98000Y138100D03*
X108500Y138100D03*
D44*
X118400Y138100D03*
X124100Y138100D03*
D42*
X134600Y138100D03*
D96*
X142700Y138100D03*
D12*
X155450Y138100D03*
D70*
X33500Y138400D03*
D77*
X53150Y138400D03*
D34*
X64550Y138400D03*
D67*
X82550Y138400D03*
D42*
X98000Y138400D03*
X108500Y138400D03*
D44*
X118400Y138400D03*
X124100Y138400D03*
D42*
X134600Y138400D03*
D15*
X142850Y138400D03*
D75*
X155600Y138400D03*
D57*
X33350Y138700D03*
D77*
X53150Y138700D03*
D34*
X64850Y138700D03*
D47*
X82400Y138700D03*
D42*
X98000Y138700D03*
X108500Y138700D03*
D44*
X118400Y138700D03*
X124100Y138700D03*
D42*
X134600Y138700D03*
X145400Y138700D03*
D75*
X155600Y138700D03*
D57*
X33350Y139000D03*
D17*
X53300Y139000D03*
D34*
X65150Y139000D03*
D67*
X82250Y139000D03*
D42*
X98000Y139000D03*
X108500Y139000D03*
D44*
X118400Y139000D03*
D46*
X123950Y139000D03*
D42*
X134600Y139000D03*
X145400Y139000D03*
D13*
X155750Y139000D03*
D52*
X33500Y139300D03*
D17*
X53300Y139300D03*
D30*
X64700Y139300D03*
D31*
X66050Y139300D03*
D67*
X81950Y139300D03*
D42*
X98000Y139300D03*
X108500Y139300D03*
D44*
X118400Y139300D03*
X123800Y139300D03*
D42*
X134600Y139300D03*
X145400Y139300D03*
D13*
X155750Y139300D03*
D57*
X33650Y139600D03*
D90*
X53450Y139600D03*
D32*
X66500Y139600D03*
D67*
X81650Y139600D03*
D42*
X98000Y139600D03*
X108500Y139600D03*
D44*
X118400Y139600D03*
X123800Y139600D03*
D42*
X134600Y139600D03*
X145400Y139600D03*
D88*
X155900Y139600D03*
D52*
X33800Y139900D03*
D90*
X53450Y139900D03*
D31*
X66950Y139900D03*
D67*
X81350Y139900D03*
D42*
X98000Y139900D03*
X108500Y139900D03*
D43*
X118550Y139900D03*
D44*
X123800Y139900D03*
D42*
X134600Y139900D03*
X145400Y139900D03*
D88*
X155900Y139900D03*
D43*
X13850Y140200D03*
D52*
X33800Y140200D03*
D50*
X51500Y140200D03*
D33*
X58400Y140200D03*
D31*
X67550Y140200D03*
D38*
X71300Y140200D03*
D67*
X81050Y140200D03*
D42*
X98000Y140200D03*
X108500Y140200D03*
D44*
X118700Y140200D03*
X123800Y140200D03*
D42*
X134600Y140200D03*
X145400Y140200D03*
D14*
X156050Y140200D03*
D44*
X14000Y140500D03*
D52*
X33800Y140500D03*
D10*
X51050Y140500D03*
D37*
X54650Y140500D03*
D31*
X59150Y140500D03*
X68150Y140500D03*
D66*
X71600Y140500D03*
D67*
X80750Y140500D03*
D42*
X98000Y140500D03*
X108500Y140500D03*
D44*
X118700Y140500D03*
X123800Y140500D03*
D42*
X134600Y140500D03*
X145400Y140500D03*
D14*
X156050Y140500D03*
D46*
X14150Y140800D03*
D37*
X22550Y140800D03*
D72*
X35150Y140800D03*
D41*
X50900Y140800D03*
D37*
X54650Y140800D03*
D31*
X59150Y140800D03*
D40*
X68600Y140800D03*
D43*
X72050Y140800D03*
D41*
X80600Y140800D03*
D42*
X98000Y140800D03*
X108500Y140800D03*
D44*
X118700Y140800D03*
D46*
X123650Y140800D03*
D42*
X134600Y140800D03*
X145400Y140800D03*
D95*
X156200Y140800D03*
D44*
X14300Y141100D03*
D73*
X35000Y141100D03*
D47*
X50600Y141100D03*
D37*
X54650Y141100D03*
D31*
X59450Y141100D03*
D40*
X69200Y141100D03*
D44*
X72200Y141100D03*
D67*
X80450Y141100D03*
D42*
X98000Y141100D03*
X108500Y141100D03*
D44*
X118700Y141100D03*
X123500Y141100D03*
D42*
X134600Y141100D03*
X145400Y141100D03*
D46*
X153650Y141100D03*
D55*
X158450Y141100D03*
D44*
X14300Y141400D03*
D97*
X35000Y141400D03*
D31*
X48350Y141400D03*
D43*
X51350Y141400D03*
D30*
X54800Y141400D03*
D32*
X59600Y141400D03*
D40*
X69500Y141400D03*
D33*
X73700Y141400D03*
D67*
X80150Y141400D03*
D42*
X98000Y141400D03*
X108500Y141400D03*
D43*
X118850Y141400D03*
D44*
X123500Y141400D03*
D42*
X134600Y141400D03*
X145400Y141400D03*
D46*
X153650Y141400D03*
D55*
X158750Y141400D03*
D46*
X14450Y141700D03*
D98*
X35000Y141700D03*
D40*
X48200Y141700D03*
D35*
X51650Y141700D03*
D30*
X54800Y141700D03*
D31*
X59750Y141700D03*
D40*
X70100Y141700D03*
D34*
X74150Y141700D03*
D67*
X79850Y141700D03*
D55*
X97850Y141700D03*
D42*
X108500Y141700D03*
D44*
X119000Y141700D03*
X123500Y141700D03*
D42*
X134600Y141700D03*
X145400Y141700D03*
D46*
X153650Y141700D03*
D55*
X158750Y141700D03*
D46*
X14450Y142000D03*
D48*
X35000Y142000D03*
D37*
X48050Y142000D03*
D30*
X54800Y142000D03*
D31*
X60050Y142000D03*
D40*
X70400Y142000D03*
D31*
X74750Y142000D03*
D47*
X79700Y142000D03*
D41*
X97400Y142000D03*
D42*
X108500Y142000D03*
D44*
X119000Y142000D03*
X123500Y142000D03*
D42*
X134600Y142000D03*
X145400Y142000D03*
D46*
X153650Y142000D03*
D55*
X159050Y142000D03*
D46*
X14450Y142300D03*
D28*
X35000Y142300D03*
D40*
X47900Y142300D03*
D30*
X54800Y142300D03*
D31*
X60050Y142300D03*
D40*
X71000Y142300D03*
X75200Y142300D03*
D47*
X79700Y142300D03*
D46*
X89450Y142300D03*
D41*
X97400Y142300D03*
D42*
X108500Y142300D03*
D44*
X119000Y142300D03*
X123500Y142300D03*
D42*
X134600Y142300D03*
X145400Y142300D03*
D46*
X153650Y142300D03*
D55*
X159050Y142300D03*
D46*
X14450Y142600D03*
D29*
X35000Y142600D03*
D37*
X47750Y142600D03*
D30*
X54800Y142600D03*
D31*
X60350Y142600D03*
D37*
X71450Y142600D03*
D47*
X79400Y142600D03*
D46*
X89450Y142600D03*
D41*
X97400Y142600D03*
D42*
X108500Y142600D03*
D44*
X119000Y142600D03*
X123200Y142600D03*
D42*
X134600Y142600D03*
X145400Y142600D03*
D46*
X153650Y142600D03*
D55*
X159350Y142600D03*
D50*
X13400Y142900D03*
D24*
X35150Y142900D03*
D37*
X47450Y142900D03*
D30*
X54800Y142900D03*
D31*
X60650Y142900D03*
D37*
X72050Y142900D03*
D55*
X79250Y142900D03*
D46*
X89450Y142900D03*
D41*
X97400Y142900D03*
D42*
X108500Y142900D03*
D44*
X119000Y142900D03*
X123200Y142900D03*
D42*
X134600Y142900D03*
X145400Y142900D03*
D46*
X153650Y142900D03*
D55*
X159350Y142900D03*
D50*
X13400Y143200D03*
D45*
X35150Y143200D03*
D37*
X47450Y143200D03*
D30*
X54800Y143200D03*
D31*
X60650Y143200D03*
D37*
X72350Y143200D03*
D42*
X79100Y143200D03*
D46*
X89450Y143200D03*
D41*
X97400Y143200D03*
D42*
X108500Y143200D03*
D43*
X119150Y143200D03*
D44*
X123200Y143200D03*
D42*
X134600Y143200D03*
X145400Y143200D03*
D46*
X153650Y143200D03*
D55*
X159650Y143200D03*
D50*
X13400Y143500D03*
D85*
X35150Y143500D03*
D37*
X47150Y143500D03*
D31*
X60950Y143500D03*
D37*
X72950Y143500D03*
D46*
X78950Y143500D03*
X89450Y143500D03*
D10*
X97250Y143500D03*
D42*
X108500Y143500D03*
D12*
X121250Y143500D03*
D42*
X134600Y143500D03*
X145400Y143500D03*
D46*
X153650Y143500D03*
D55*
X159650Y143500D03*
D74*
X13100Y143800D03*
D21*
X35150Y143800D03*
D37*
X46850Y143800D03*
D31*
X61250Y143800D03*
D37*
X73550Y143800D03*
D46*
X78950Y143800D03*
X89450Y143800D03*
D10*
X97250Y143800D03*
D42*
X108500Y143800D03*
D12*
X121250Y143800D03*
D42*
X134600Y143800D03*
X145400Y143800D03*
D46*
X153650Y143800D03*
D42*
X159800Y143800D03*
D74*
X13100Y144100D03*
D81*
X35300Y144100D03*
D30*
X46700Y144100D03*
D35*
X60650Y144100D03*
D30*
X74000Y144100D03*
D46*
X78950Y144100D03*
X89450Y144100D03*
D10*
X97250Y144100D03*
D42*
X108500Y144100D03*
D74*
X121100Y144100D03*
D42*
X134600Y144100D03*
X145400Y144100D03*
D46*
X153650Y144100D03*
D55*
X159950Y144100D03*
D12*
X12950Y144400D03*
D80*
X35300Y144400D03*
D37*
X46550Y144400D03*
D43*
X61250Y144400D03*
D30*
X74600Y144400D03*
D46*
X78950Y144400D03*
X89450Y144400D03*
D10*
X97250Y144400D03*
D42*
X108500Y144400D03*
D74*
X121100Y144400D03*
D42*
X134600Y144400D03*
X145400Y144400D03*
D46*
X153650Y144400D03*
D42*
X160100Y144400D03*
D12*
X12950Y144700D03*
D79*
X35300Y144700D03*
D30*
X46400Y144700D03*
D46*
X61550Y144700D03*
D30*
X75200Y144700D03*
D42*
X79100Y144700D03*
D46*
X89450Y144700D03*
D10*
X97250Y144700D03*
D42*
X108500Y144700D03*
D11*
X121250Y144700D03*
D42*
X134600Y144700D03*
X145400Y144700D03*
D46*
X153650Y144700D03*
D55*
X160250Y144700D03*
D12*
X12650Y145000D03*
D79*
X35300Y145000D03*
D30*
X46100Y145000D03*
D46*
X61550Y145000D03*
D30*
X75500Y145000D03*
D42*
X79100Y145000D03*
D46*
X89450Y145000D03*
D10*
X97250Y145000D03*
D42*
X108500Y145000D03*
D11*
X121250Y145000D03*
D42*
X134600Y145000D03*
X145400Y145000D03*
D46*
X153650Y145000D03*
D42*
X160400Y145000D03*
D75*
X12500Y145300D03*
D19*
X35300Y145300D03*
D30*
X46100Y145300D03*
D42*
X61400Y145300D03*
D30*
X76100Y145300D03*
D55*
X79250Y145300D03*
D46*
X89450Y145300D03*
D10*
X97250Y145300D03*
D42*
X108500Y145300D03*
D11*
X121250Y145300D03*
D42*
X134600Y145300D03*
X145400Y145300D03*
D46*
X153650Y145300D03*
D55*
X160550Y145300D03*
D75*
X12500Y145600D03*
D19*
X35300Y145600D03*
D30*
X45800Y145600D03*
D42*
X61400Y145600D03*
D30*
X76400Y145600D03*
D55*
X79250Y145600D03*
D46*
X89450Y145600D03*
D10*
X97250Y145600D03*
D42*
X108500Y145600D03*
D13*
X120650Y145600D03*
D42*
X134600Y145600D03*
X145400Y145600D03*
D46*
X153650Y145600D03*
D42*
X160700Y145600D03*
D13*
X12350Y145900D03*
D87*
X35150Y145900D03*
D42*
X61400Y145900D03*
D47*
X79400Y145900D03*
D46*
X89450Y145900D03*
D10*
X97250Y145900D03*
D42*
X108500Y145900D03*
D88*
X120200Y145900D03*
D42*
X134600Y145900D03*
X145400Y145900D03*
D46*
X153650Y145900D03*
D55*
X160850Y145900D03*
D13*
X12050Y146200D03*
D92*
X35300Y146200D03*
D30*
X45500Y146200D03*
D44*
X61100Y146200D03*
D47*
X79400Y146200D03*
D46*
X89450Y146200D03*
D71*
X96950Y146200D03*
D42*
X108500Y146200D03*
D14*
X120050Y146200D03*
D42*
X134600Y146200D03*
X145400Y146200D03*
D46*
X153650Y146200D03*
D55*
X160850Y146200D03*
D88*
X11900Y146500D03*
D78*
X35150Y146500D03*
D44*
X61100Y146500D03*
D67*
X79550Y146500D03*
D46*
X89450Y146500D03*
D11*
X96650Y146500D03*
D42*
X108500Y146500D03*
D14*
X120050Y146500D03*
D42*
X134600Y146500D03*
X145400Y146500D03*
D46*
X153650Y146500D03*
D47*
X161000Y146500D03*
D95*
X11600Y146800D03*
D78*
X35150Y146800D03*
D30*
X49700Y146800D03*
D42*
X61100Y146800D03*
D67*
X79550Y146800D03*
D46*
X89450Y146800D03*
D74*
X96500Y146800D03*
D42*
X108500Y146800D03*
D14*
X120050Y146800D03*
D42*
X134600Y146800D03*
X145400Y146800D03*
D46*
X153650Y146800D03*
D55*
X161150Y146800D03*
D15*
X11150Y147100D03*
D78*
X35150Y147100D03*
D37*
X49250Y147100D03*
D66*
X60500Y147100D03*
D40*
X62900Y147100D03*
D41*
X79700Y147100D03*
D46*
X89450Y147100D03*
D12*
X96350Y147100D03*
D42*
X108500Y147100D03*
D14*
X120050Y147100D03*
D42*
X134600Y147100D03*
X145400Y147100D03*
D46*
X153650Y147100D03*
D55*
X161150Y147100D03*
D77*
X10550Y147400D03*
D18*
X35000Y147400D03*
D37*
X48650Y147400D03*
D36*
X60350Y147400D03*
D40*
X63200Y147400D03*
D41*
X79700Y147400D03*
D46*
X89450Y147400D03*
D75*
X96200Y147400D03*
D42*
X108500Y147400D03*
D14*
X119750Y147400D03*
D42*
X134600Y147400D03*
X145400Y147400D03*
D46*
X153650Y147400D03*
D55*
X161450Y147400D03*
D77*
X10250Y147700D03*
D18*
X35000Y147700D03*
D40*
X48200Y147700D03*
D38*
X60200Y147700D03*
D40*
X63500Y147700D03*
D41*
X79700Y147700D03*
D46*
X89450Y147700D03*
D13*
X96050Y147700D03*
D42*
X108500Y147700D03*
D95*
X119600Y147700D03*
D42*
X134600Y147700D03*
X145400Y147700D03*
D46*
X153650Y147700D03*
D55*
X161750Y147700D03*
D77*
X10250Y148000D03*
D18*
X35000Y148000D03*
D40*
X47900Y148000D03*
D36*
X60050Y148000D03*
D40*
X63500Y148000D03*
D41*
X79700Y148000D03*
D46*
X89450Y148000D03*
D13*
X96050Y148000D03*
D42*
X108500Y148000D03*
D95*
X119600Y148000D03*
D42*
X134600Y148000D03*
X145400Y148000D03*
D46*
X153650Y148000D03*
D55*
X161750Y148000D03*
D77*
X10250Y148300D03*
D90*
X34850Y148300D03*
D40*
X47600Y148300D03*
D36*
X60050Y148300D03*
D40*
X63800Y148300D03*
D41*
X79700Y148300D03*
D19*
X93800Y148300D03*
D42*
X108500Y148300D03*
D15*
X119450Y148300D03*
D42*
X134600Y148300D03*
X145400Y148300D03*
D46*
X153650Y148300D03*
D47*
X161900Y148300D03*
D89*
X10100Y148600D03*
D90*
X34850Y148600D03*
D31*
X47150Y148600D03*
D35*
X60050Y148600D03*
D40*
X64100Y148600D03*
D67*
X79550Y148600D03*
D19*
X93800Y148600D03*
D42*
X108500Y148600D03*
D96*
X119300Y148600D03*
D42*
X134600Y148600D03*
X145400Y148600D03*
D46*
X153650Y148600D03*
D55*
X162050Y148600D03*
D16*
X9950Y148900D03*
D90*
X34850Y148900D03*
D32*
X47000Y148900D03*
X59600Y148900D03*
D40*
X64100Y148900D03*
D67*
X79550Y148900D03*
D19*
X93800Y148900D03*
D42*
X108500Y148900D03*
D15*
X119450Y148900D03*
D42*
X134600Y148900D03*
X145400Y148900D03*
D46*
X153650Y148900D03*
D47*
X162200Y148900D03*
D16*
X9950Y149200D03*
D90*
X34850Y149200D03*
D32*
X46700Y149200D03*
D37*
X59150Y149200D03*
D40*
X64400Y149200D03*
D67*
X79550Y149200D03*
D19*
X93800Y149200D03*
D42*
X108500Y149200D03*
D14*
X119450Y149200D03*
D42*
X134600Y149200D03*
X145400Y149200D03*
D46*
X153650Y149200D03*
D55*
X162350Y149200D03*
D96*
X9800Y149500D03*
D90*
X34850Y149500D03*
D34*
X46250Y149500D03*
D37*
X64550Y149500D03*
D47*
X79400Y149500D03*
D19*
X93800Y149500D03*
D42*
X108500Y149500D03*
D88*
X119600Y149500D03*
D42*
X134600Y149500D03*
X145400Y149500D03*
D46*
X153650Y149500D03*
D55*
X162350Y149500D03*
D95*
X9500Y149800D03*
D90*
X34850Y149800D03*
D34*
X45950Y149800D03*
D40*
X64700Y149800D03*
D42*
X79100Y149800D03*
D37*
X83750Y149800D03*
D19*
X93800Y149800D03*
D42*
X108500Y149800D03*
D13*
X119750Y149800D03*
D42*
X134600Y149800D03*
X145400Y149800D03*
D46*
X153650Y149800D03*
D55*
X162650Y149800D03*
D88*
X9200Y150100D03*
D90*
X34850Y150100D03*
D33*
X45500Y150100D03*
D37*
X64850Y150100D03*
D81*
X84200Y150100D03*
D27*
X101750Y150100D03*
D75*
X119900Y150100D03*
D84*
X140000Y150100D03*
D46*
X153650Y150100D03*
D55*
X162650Y150100D03*
D12*
X9050Y150400D03*
D90*
X34850Y150400D03*
D33*
X45200Y150400D03*
D40*
X54500Y150400D03*
D37*
X65150Y150400D03*
D81*
X84200Y150400D03*
D25*
X102200Y150400D03*
D12*
X120050Y150400D03*
D84*
X140000Y150400D03*
D46*
X153650Y150400D03*
D55*
X162950Y150400D03*
D71*
X8750Y150700D03*
D90*
X34850Y150700D03*
D33*
X44900Y150700D03*
D31*
X54350Y150700D03*
D40*
X65300Y150700D03*
D81*
X84200Y150700D03*
D23*
X102500Y150700D03*
D74*
X120200Y150700D03*
D84*
X140000Y150700D03*
D46*
X153650Y150700D03*
D55*
X162950Y150700D03*
D47*
X8300Y151000D03*
D17*
X34700Y151000D03*
D31*
X44750Y151000D03*
D32*
X54200Y151000D03*
D37*
X65450Y151000D03*
D81*
X84200Y151000D03*
D22*
X102800Y151000D03*
D50*
X120500Y151000D03*
D84*
X140000Y151000D03*
D46*
X153650Y151000D03*
D55*
X163250Y151000D03*
D44*
X8000Y151300D03*
D77*
X34550Y151300D03*
D40*
X44600Y151300D03*
D32*
X53900Y151300D03*
D37*
X65750Y151300D03*
D81*
X84200Y151300D03*
D85*
X102950Y151300D03*
D11*
X120950Y151300D03*
D84*
X140000Y151300D03*
D46*
X153650Y151300D03*
D55*
X163250Y151300D03*
D36*
X7550Y151600D03*
D89*
X34400Y151600D03*
D34*
X53750Y151600D03*
D37*
X65750Y151600D03*
D21*
X84050Y151600D03*
D84*
X103100Y151600D03*
D11*
X121250Y151600D03*
D84*
X140000Y151600D03*
D46*
X153650Y151600D03*
D55*
X163550Y151600D03*
D33*
X7400Y151900D03*
D89*
X34400Y151900D03*
D34*
X53750Y151900D03*
D37*
X66050Y151900D03*
D84*
X83900Y151900D03*
D81*
X103100Y151900D03*
D11*
X121550Y151900D03*
D21*
X139850Y151900D03*
D46*
X153650Y151900D03*
D55*
X163550Y151900D03*
D40*
X7100Y152200D03*
D16*
X34250Y152200D03*
D34*
X53450Y152200D03*
D37*
X66050Y152200D03*
D30*
X71900Y152200D03*
D21*
X83750Y152200D03*
D81*
X103100Y152200D03*
D50*
X122000Y152200D03*
D21*
X139850Y152200D03*
D46*
X153650Y152200D03*
D55*
X163850Y152200D03*
D16*
X34250Y152500D03*
D33*
X53300Y152500D03*
D37*
X66350Y152500D03*
D31*
X71750Y152500D03*
D21*
X83450Y152500D03*
D83*
X102950Y152500D03*
D50*
X122300Y152500D03*
D81*
X139700Y152500D03*
D46*
X153650Y152500D03*
D55*
X163850Y152500D03*
D16*
X33950Y152800D03*
D33*
X53300Y152800D03*
D37*
X66350Y152800D03*
D33*
X71600Y152800D03*
D84*
X83300Y152800D03*
D80*
X102800Y152800D03*
D71*
X122450Y152800D03*
D83*
X139550Y152800D03*
D46*
X153650Y152800D03*
D42*
X164000Y152800D03*
D16*
X33950Y153100D03*
D33*
X53000Y153100D03*
D37*
X66650Y153100D03*
D66*
X71600Y153100D03*
D84*
X83000Y153100D03*
D20*
X102650Y153100D03*
D71*
X122450Y153100D03*
D80*
X139400Y153100D03*
D46*
X153650Y153100D03*
D55*
X164150Y153100D03*
D16*
X33650Y153400D03*
D35*
X52850Y153400D03*
D40*
X65000Y153400D03*
D37*
X66950Y153400D03*
D47*
X71600Y153400D03*
D36*
X76550Y153400D03*
D78*
X84350Y153400D03*
D79*
X102500Y153400D03*
D69*
X122300Y153400D03*
D20*
X139250Y153400D03*
D46*
X153650Y153400D03*
D42*
X164300Y153400D03*
D16*
X33650Y153700D03*
D35*
X52850Y153700D03*
D79*
X71300Y153700D03*
D77*
X84350Y153700D03*
D19*
X102200Y153700D03*
D69*
X122300Y153700D03*
D86*
X138950Y153700D03*
D46*
X153650Y153700D03*
D42*
X164300Y153700D03*
D89*
X33500Y154000D03*
D35*
X52550Y154000D03*
D86*
X71450Y154000D03*
D69*
X83000Y154000D03*
D42*
X123200Y154000D03*
D89*
X33500Y154300D03*
D35*
X52550Y154300D03*
D79*
X71600Y154300D03*
D71*
X82850Y154300D03*
D44*
X123200Y154300D03*
D77*
X33350Y154600D03*
D35*
X52250Y154600D03*
D72*
X75650Y154600D03*
D66*
X123500Y154600D03*
D77*
X33350Y154900D03*
D38*
X52100Y154900D03*
D76*
X75800Y154900D03*
D38*
X123500Y154900D03*
D17*
X33200Y155200D03*
D35*
X51950Y155200D03*
D76*
X75800Y155200D03*
D35*
X123650Y155200D03*
D77*
X33050Y155500D03*
D38*
X51800Y155500D03*
D72*
X75950Y155500D03*
D34*
X123650Y155500D03*
D17*
X32900Y155800D03*
D66*
X51200Y155800D03*
D72*
X75950Y155800D03*
D34*
X123650Y155800D03*
D17*
X32900Y156100D03*
D36*
X51050Y156100D03*
D72*
X75950Y156100D03*
D31*
X123650Y156100D03*
D90*
X32750Y156400D03*
D32*
X50900Y156400D03*
D76*
X76100Y156400D03*
D37*
X123650Y156400D03*
D13*
X31550Y156700D03*
D31*
X37550Y156700D03*
D76*
X76100Y156700D03*
D30*
X123500Y156700D03*
D74*
X31400Y157000D03*
D40*
X37700Y157000D03*
D76*
X76100Y157000D03*
D71*
X31250Y157300D03*
D30*
X37700Y157300D03*
D56*
X75950Y157300D03*
D67*
X31250Y157600D03*
D70*
X75800Y157600D03*
D55*
X31250Y157900D03*
D70*
X75800Y157900D03*
D43*
X31250Y158200D03*
D54*
X75650Y158200D03*
D36*
X31250Y158500D03*
D53*
X75500Y158500D03*
D33*
X31100Y158800D03*
D53*
X75500Y158800D03*
D32*
X31100Y159100D03*
D57*
X75350Y159100D03*
D30*
X31100Y159400D03*
D57*
X75350Y159400D03*
D52*
X75200Y159700D03*
X75200Y160000D03*
D32*
X41900Y160300D03*
D58*
X75050Y160300D03*
D66*
X42200Y160600D03*
D58*
X75050Y160600D03*
D46*
X42650Y160900D03*
D52*
X74900Y160900D03*
D47*
X42800Y161200D03*
D52*
X74900Y161200D03*
D10*
X43250Y161500D03*
D58*
X74750Y161500D03*
D50*
X43400Y161800D03*
D58*
X74750Y161800D03*
D32*
X99500Y161800D03*
D12*
X43550Y162100D03*
D52*
X74600Y162100D03*
D33*
X99500Y162100D03*
D13*
X43550Y162400D03*
D58*
X74450Y162400D03*
D35*
X99350Y162400D03*
D14*
X43850Y162700D03*
D58*
X74450Y162700D03*
D38*
X99200Y162700D03*
D15*
X43850Y163000D03*
D52*
X74300Y163000D03*
D43*
X99050Y163000D03*
D16*
X43850Y163300D03*
D52*
X74300Y163300D03*
D44*
X98900Y163300D03*
D16*
X43850Y163600D03*
D52*
X74300Y163600D03*
D46*
X98750Y163600D03*
D89*
X43700Y163900D03*
D57*
X74150Y163900D03*
D42*
X98600Y163900D03*
D89*
X43400Y164200D03*
D57*
X74150Y164200D03*
D47*
X98600Y164200D03*
D16*
X43250Y164500D03*
D57*
X73850Y164500D03*
D41*
X98300Y164500D03*
D16*
X42950Y164800D03*
D57*
X73850Y164800D03*
D47*
X97700Y164800D03*
D16*
X42650Y165100D03*
D53*
X73700Y165100D03*
D42*
X97100Y165100D03*
D96*
X42500Y165400D03*
D54*
X73550Y165400D03*
D43*
X96050Y165400D03*
D15*
X42050Y165700D03*
D54*
X73550Y165700D03*
D36*
X95750Y165700D03*
D32*
X18500Y166000D03*
D15*
X41750Y166000D03*
D70*
X73400Y166000D03*
D33*
X95300Y166000D03*
D34*
X18650Y166300D03*
D95*
X41600Y166300D03*
D56*
X73250Y166300D03*
D31*
X94850Y166300D03*
D33*
X18800Y166600D03*
D14*
X41450Y166600D03*
D56*
X73250Y166600D03*
D33*
X18800Y166900D03*
D14*
X41150Y166900D03*
D76*
X73100Y166900D03*
D33*
X18800Y167200D03*
D13*
X40850Y167200D03*
D72*
X72950Y167200D03*
D35*
X18950Y167500D03*
D74*
X41000Y167500D03*
D72*
X72950Y167500D03*
D35*
X18950Y167800D03*
D69*
X41300Y167800D03*
D72*
X72650Y167800D03*
D35*
X18950Y168100D03*
D47*
X41600Y168100D03*
D76*
X72200Y168100D03*
D38*
X19100Y168400D03*
D44*
X41900Y168400D03*
D56*
X71750Y168400D03*
D38*
X19100Y168700D03*
D36*
X42050Y168700D03*
D72*
X71750Y168700D03*
D36*
X19250Y169000D03*
D49*
X71750Y169000D03*
D36*
X19250Y169300D03*
D48*
X71600Y169300D03*
D36*
X19250Y169600D03*
D28*
X71600Y169600D03*
D66*
X19400Y169900D03*
D26*
X71750Y169900D03*
D66*
X19400Y170200D03*
D23*
X71600Y170200D03*
D66*
X19700Y170500D03*
D85*
X71750Y170500D03*
D66*
X19700Y170800D03*
D83*
X71750Y170800D03*
D66*
X19700Y171100D03*
D86*
X71750Y171100D03*
D66*
X20000Y171400D03*
D78*
X71750Y171400D03*
D66*
X20000Y171700D03*
D77*
X71750Y171700D03*
D43*
X20150Y172000D03*
D95*
X71600Y172000D03*
D43*
X20450Y172300D03*
D74*
X71900Y172300D03*
D36*
X20750Y172600D03*
X71750Y172600D03*
D66*
X20900Y172900D03*
D43*
X21050Y173200D03*
D36*
X21350Y173500D03*
X21650Y173800D03*
X21950Y174100D03*
D66*
X22100Y174400D03*
D43*
X22550Y174700D03*
D66*
X23300Y175000D03*
X23600Y175300D03*
D35*
X23750Y175600D03*
D33*
X23900Y175900D03*
D40*
X23900Y176200D03*
D37*
X24050Y176500D03*
D99*
X145000Y205000D02*
X145009Y205736D01*
X145036Y206472D01*
X145081Y207207D01*
X145144Y207941D01*
X145226Y208672D01*
X145325Y209402D01*
X145442Y210129D01*
X145576Y210853D01*
X145729Y211573D01*
X145899Y212289D01*
X146087Y213001D01*
X146292Y213709D01*
X146514Y214410D01*
X146754Y215107D01*
X147010Y215797D01*
X147284Y216481D01*
X147574Y217157D01*
X147880Y217827D01*
X148203Y218488D01*
X148542Y219142D01*
X148897Y219787D01*
X149268Y220423D01*
X149654Y221050D01*
X150056Y221667D01*
X150472Y222274D01*
X150904Y222871D01*
X151350Y223457D01*
X151810Y224032D01*
X152284Y224595D01*
X152771Y225147D01*
X153273Y225686D01*
X153787Y226213D01*
X154314Y226727D01*
X154853Y227229D01*
X155405Y227716D01*
X155968Y228190D01*
X156543Y228650D01*
X157129Y229096D01*
X157726Y229528D01*
X158333Y229944D01*
X158950Y230346D01*
X159577Y230732D01*
X160213Y231103D01*
X160858Y231458D01*
X161512Y231797D01*
X162173Y232120D01*
X162843Y232426D01*
X163519Y232716D01*
X164203Y232990D01*
X164893Y233246D01*
X165590Y233486D01*
X166291Y233708D01*
X166999Y233913D01*
X167711Y234101D01*
X168427Y234271D01*
X169147Y234424D01*
X169871Y234558D01*
X170598Y234675D01*
X171328Y234774D01*
X172059Y234856D01*
X172793Y234919D01*
X173528Y234964D01*
X174264Y234991D01*
X175000Y235000D01*
X175736Y234991D01*
X176472Y234964D01*
X177207Y234919D01*
X177941Y234856D01*
X178672Y234774D01*
X179402Y234675D01*
X180129Y234558D01*
X180853Y234424D01*
X181573Y234271D01*
X182289Y234101D01*
X183001Y233913D01*
X183709Y233708D01*
X184410Y233486D01*
X185107Y233246D01*
X185797Y232990D01*
X186481Y232716D01*
X187157Y232426D01*
X187827Y232120D01*
X188488Y231797D01*
X189142Y231458D01*
X189787Y231103D01*
X190423Y230732D01*
X191050Y230346D01*
X191667Y229944D01*
X192274Y229528D01*
X192871Y229096D01*
X193457Y228650D01*
X194032Y228190D01*
X194595Y227716D01*
X195147Y227229D01*
X195686Y226727D01*
X196213Y226213D01*
X196727Y225686D01*
X197229Y225147D01*
X197716Y224595D01*
X198190Y224032D01*
X198650Y223457D01*
X199096Y222871D01*
X199528Y222274D01*
X199944Y221667D01*
X200346Y221050D01*
X200732Y220423D01*
X201103Y219787D01*
X201458Y219142D01*
X201797Y218488D01*
X202120Y217827D01*
X202426Y217157D01*
X202716Y216481D01*
X202990Y215797D01*
X203246Y215107D01*
X203486Y214410D01*
X203708Y213709D01*
X203913Y213001D01*
X204101Y212289D01*
X204271Y211573D01*
X204424Y210853D01*
X204558Y210129D01*
X204675Y209402D01*
X204774Y208672D01*
X204856Y207941D01*
X204919Y207207D01*
X204964Y206472D01*
X204991Y205736D01*
X205000Y205000D01*
X204991Y204264D01*
X204964Y203528D01*
X204919Y202793D01*
X204856Y202059D01*
X204774Y201328D01*
X204675Y200598D01*
X204558Y199871D01*
X204424Y199147D01*
X204271Y198427D01*
X204101Y197711D01*
X203913Y196999D01*
X203708Y196291D01*
X203486Y195590D01*
X203246Y194893D01*
X202990Y194203D01*
X202716Y193519D01*
X202426Y192843D01*
X202120Y192173D01*
X201797Y191512D01*
X201458Y190858D01*
X201103Y190213D01*
X200732Y189577D01*
X200346Y188950D01*
X199944Y188333D01*
X199528Y187726D01*
X199096Y187129D01*
X198650Y186543D01*
X198190Y185968D01*
X197716Y185405D01*
X197229Y184853D01*
X196727Y184314D01*
X196213Y183787D01*
X195686Y183273D01*
X195147Y182771D01*
X194595Y182284D01*
X194032Y181810D01*
X193457Y181350D01*
X192871Y180904D01*
X192274Y180472D01*
X191667Y180056D01*
X191050Y179654D01*
X190423Y179268D01*
X189787Y178897D01*
X189142Y178542D01*
X188488Y178203D01*
X187827Y177880D01*
X187157Y177574D01*
X186481Y177284D01*
X185797Y177010D01*
X185107Y176754D01*
X184410Y176514D01*
X183709Y176292D01*
X183001Y176087D01*
X182289Y175899D01*
X181573Y175729D01*
X180853Y175576D01*
X180129Y175442D01*
X179402Y175325D01*
X178672Y175226D01*
X177941Y175144D01*
X177207Y175081D01*
X176472Y175036D01*
X175736Y175009D01*
X175000Y175000D01*
X174264Y175009D01*
X173528Y175036D01*
X172793Y175081D01*
X172059Y175144D01*
X171328Y175226D01*
X170598Y175325D01*
X169871Y175442D01*
X169147Y175576D01*
X168427Y175729D01*
X167711Y175899D01*
X166999Y176087D01*
X166291Y176292D01*
X165590Y176514D01*
X164893Y176754D01*
X164203Y177010D01*
X163519Y177284D01*
X162843Y177574D01*
X162173Y177880D01*
X161512Y178203D01*
X160858Y178542D01*
X160213Y178897D01*
X159577Y179268D01*
X158950Y179654D01*
X158333Y180056D01*
X157726Y180472D01*
X157129Y180904D01*
X156543Y181350D01*
X155968Y181810D01*
X155405Y182284D01*
X154853Y182771D01*
X154314Y183273D01*
X153787Y183787D01*
X153273Y184314D01*
X152771Y184853D01*
X152284Y185405D01*
X151810Y185968D01*
X151350Y186543D01*
X150904Y187129D01*
X150472Y187726D01*
X150056Y188333D01*
X149654Y188950D01*
X149268Y189577D01*
X148897Y190213D01*
X148542Y190858D01*
X148203Y191512D01*
X147880Y192173D01*
X147574Y192843D01*
X147284Y193519D01*
X147010Y194203D01*
X146754Y194893D01*
X146514Y195590D01*
X146292Y196291D01*
X146087Y196999D01*
X145899Y197711D01*
X145729Y198427D01*
X145576Y199147D01*
X145442Y199871D01*
X145325Y200598D01*
X145226Y201328D01*
X145144Y202059D01*
X145081Y202793D01*
X145036Y203528D01*
X145009Y204264D01*
X145000Y205000D01*
X175000Y205000D02*
X215000Y245000D01*
D100*
X86000Y39697D02*
X85061Y38758D01*
X86000Y39697D02*
X89130Y36567D01*
X87252Y34689D01*
X87193Y34632D01*
X87131Y34579D01*
X87067Y34528D01*
X87001Y34480D01*
X86932Y34435D01*
X86862Y34394D01*
X86789Y34356D01*
X86715Y34321D01*
X86640Y34290D01*
X86563Y34262D01*
X86485Y34238D01*
X86405Y34217D01*
X86325Y34200D01*
X86245Y34187D01*
X86163Y34178D01*
X86082Y34172D01*
X86000Y34170D01*
X85918Y34172D01*
X85837Y34178D01*
X85755Y34187D01*
X85675Y34200D01*
X85595Y34217D01*
X85515Y34238D01*
X85437Y34262D01*
X85360Y34290D01*
X85285Y34321D01*
X85211Y34356D01*
X85138Y34394D01*
X85068Y34435D01*
X84999Y34480D01*
X84933Y34528D01*
X84869Y34578D01*
X84807Y34632D01*
X84748Y34689D01*
X81618Y37819D01*
X81561Y37878D01*
X81508Y37940D01*
X81457Y38004D01*
X81409Y38070D01*
X81364Y38139D01*
X81323Y38209D01*
X81285Y38282D01*
X81250Y38356D01*
X81219Y38431D01*
X81191Y38508D01*
X81167Y38586D01*
X81146Y38666D01*
X81129Y38746D01*
X81116Y38826D01*
X81107Y38908D01*
X81101Y38989D01*
X81099Y39071D01*
X81101Y39153D01*
X81107Y39234D01*
X81116Y39316D01*
X81129Y39396D01*
X81146Y39476D01*
X81167Y39556D01*
X81191Y39634D01*
X81219Y39711D01*
X81250Y39786D01*
X81285Y39860D01*
X81323Y39933D01*
X81364Y40003D01*
X81409Y40072D01*
X81457Y40138D01*
X81508Y40202D01*
X81561Y40264D01*
X81618Y40323D01*
X83496Y42201D01*
X87154Y45859D02*
X92788Y40225D01*
X95918Y43355D02*
X87154Y45859D01*
X90284Y48989D02*
X95918Y43355D01*
X99576Y47013D02*
X93942Y52647D01*
X95507Y54212D01*
X95575Y54277D01*
X95646Y54339D01*
X95719Y54398D01*
X95794Y54454D01*
X95872Y54506D01*
X95952Y54556D01*
X96034Y54601D01*
X96118Y54644D01*
X96203Y54682D01*
X96291Y54717D01*
X96379Y54749D01*
X96469Y54776D01*
X96560Y54800D01*
X96652Y54820D01*
X96744Y54836D01*
X96838Y54848D01*
X96931Y54856D01*
X97025Y54860D01*
X97119Y54860D01*
X97213Y54856D01*
X97306Y54848D01*
X97400Y54836D01*
X97492Y54820D01*
X97584Y54800D01*
X97675Y54776D01*
X97765Y54749D01*
X97853Y54717D01*
X97941Y54682D01*
X98026Y54644D01*
X98110Y54601D01*
X98192Y54556D01*
X98272Y54506D01*
X98350Y54454D01*
X98425Y54398D01*
X98498Y54339D01*
X98569Y54277D01*
X98637Y54212D01*
X101141Y51708D01*
X101204Y51642D01*
X101265Y51573D01*
X101322Y51502D01*
X101377Y51429D01*
X101429Y51353D01*
X101477Y51276D01*
X101522Y51196D01*
X101564Y51115D01*
X101603Y51032D01*
X101638Y50947D01*
X101669Y50862D01*
X101697Y50774D01*
X101721Y50686D01*
X101742Y50597D01*
X101759Y50507D01*
X101772Y50417D01*
X101781Y50326D01*
X101787Y50234D01*
X101789Y50143D01*
X101787Y50052D01*
X101781Y49960D01*
X101772Y49869D01*
X101759Y49779D01*
X101742Y49689D01*
X101721Y49600D01*
X101697Y49512D01*
X101669Y49424D01*
X101638Y49339D01*
X101603Y49254D01*
X101564Y49171D01*
X101522Y49090D01*
X101477Y49010D01*
X101429Y48933D01*
X101377Y48857D01*
X101322Y48784D01*
X101265Y48713D01*
X101204Y48644D01*
X101141Y48578D01*
X99576Y47013D01*
X120366Y39071D02*
X127878Y35315D01*
X124122Y42827D01*
X127335Y46040D02*
X132969Y40406D01*
X132343Y39780D02*
X133595Y41032D01*
X127961Y46666D02*
X126709Y45414D01*
X131073Y49778D02*
X136707Y44144D01*
X139837Y47274D02*
X131073Y49778D01*
X134203Y52909D02*
X139837Y47274D01*
X215051Y58756D02*
X222563Y55000D01*
X218807Y51244D02*
X215051Y58756D01*
X209033Y52738D02*
X207781Y51486D01*
X209033Y52738D02*
X209092Y52795D01*
X209154Y52848D01*
X209218Y52899D01*
X209284Y52947D01*
X209353Y52992D01*
X209423Y53033D01*
X209496Y53071D01*
X209570Y53106D01*
X209645Y53137D01*
X209722Y53165D01*
X209800Y53189D01*
X209880Y53210D01*
X209960Y53227D01*
X210040Y53240D01*
X210122Y53249D01*
X210203Y53255D01*
X210285Y53257D01*
X210367Y53255D01*
X210448Y53249D01*
X210530Y53240D01*
X210610Y53227D01*
X210690Y53210D01*
X210770Y53189D01*
X210848Y53165D01*
X210925Y53137D01*
X211000Y53106D01*
X211074Y53071D01*
X211147Y53033D01*
X211217Y52992D01*
X211286Y52947D01*
X211352Y52899D01*
X211416Y52848D01*
X211478Y52795D01*
X211537Y52738D01*
X214667Y49608D01*
X214724Y49549D01*
X214777Y49487D01*
X214828Y49423D01*
X214876Y49357D01*
X214921Y49288D01*
X214962Y49218D01*
X215000Y49145D01*
X215035Y49071D01*
X215066Y48996D01*
X215094Y48919D01*
X215118Y48841D01*
X215139Y48761D01*
X215156Y48681D01*
X215169Y48601D01*
X215178Y48519D01*
X215184Y48438D01*
X215186Y48356D01*
X215184Y48274D01*
X215178Y48193D01*
X215169Y48111D01*
X215156Y48031D01*
X215139Y47951D01*
X215118Y47871D01*
X215094Y47793D01*
X215066Y47716D01*
X215035Y47641D01*
X215000Y47567D01*
X214962Y47494D01*
X214921Y47424D01*
X214876Y47355D01*
X214828Y47289D01*
X214778Y47225D01*
X214724Y47163D01*
X214667Y47104D01*
X213415Y45852D01*
X203729Y47435D02*
X202477Y46183D01*
X203729Y47435D02*
X203788Y47492D01*
X203850Y47545D01*
X203914Y47596D01*
X203980Y47644D01*
X204049Y47689D01*
X204119Y47730D01*
X204192Y47768D01*
X204266Y47803D01*
X204341Y47834D01*
X204418Y47862D01*
X204496Y47886D01*
X204576Y47907D01*
X204656Y47924D01*
X204736Y47937D01*
X204818Y47946D01*
X204899Y47952D01*
X204981Y47954D01*
X205063Y47952D01*
X205144Y47946D01*
X205226Y47937D01*
X205306Y47924D01*
X205386Y47907D01*
X205466Y47886D01*
X205544Y47862D01*
X205621Y47834D01*
X205696Y47803D01*
X205770Y47768D01*
X205843Y47730D01*
X205913Y47689D01*
X205982Y47644D01*
X206048Y47596D01*
X206112Y47545D01*
X206174Y47492D01*
X206233Y47435D01*
X209363Y44304D01*
X209420Y44245D01*
X209473Y44183D01*
X209524Y44119D01*
X209572Y44053D01*
X209617Y43984D01*
X209658Y43914D01*
X209696Y43841D01*
X209731Y43767D01*
X209762Y43692D01*
X209790Y43615D01*
X209814Y43537D01*
X209835Y43457D01*
X209852Y43377D01*
X209865Y43297D01*
X209874Y43215D01*
X209880Y43134D01*
X209882Y43052D01*
X209880Y42970D01*
X209874Y42889D01*
X209865Y42807D01*
X209852Y42727D01*
X209835Y42647D01*
X209814Y42567D01*
X209790Y42489D01*
X209762Y42412D01*
X209731Y42337D01*
X209696Y42263D01*
X209658Y42190D01*
X209617Y42120D01*
X209572Y42051D01*
X209524Y41985D01*
X209474Y41921D01*
X209420Y41859D01*
X209363Y41800D01*
X208111Y40548D01*
X216929Y79374D02*
X217868Y80313D01*
X216929Y79374D02*
X213799Y82504D01*
X215677Y84382D01*
X215736Y84439D01*
X215798Y84492D01*
X215862Y84543D01*
X215928Y84591D01*
X215997Y84636D01*
X216067Y84677D01*
X216140Y84715D01*
X216214Y84750D01*
X216289Y84781D01*
X216366Y84809D01*
X216444Y84833D01*
X216524Y84854D01*
X216604Y84871D01*
X216684Y84884D01*
X216766Y84893D01*
X216847Y84899D01*
X216929Y84901D01*
X217011Y84899D01*
X217092Y84893D01*
X217174Y84884D01*
X217254Y84871D01*
X217334Y84854D01*
X217414Y84833D01*
X217492Y84809D01*
X217569Y84781D01*
X217644Y84750D01*
X217718Y84715D01*
X217791Y84677D01*
X217861Y84636D01*
X217930Y84591D01*
X217996Y84543D01*
X218060Y84492D01*
X218122Y84439D01*
X218181Y84382D01*
X221311Y81252D01*
X221368Y81193D01*
X221421Y81131D01*
X221472Y81067D01*
X221520Y81001D01*
X221565Y80932D01*
X221606Y80862D01*
X221644Y80789D01*
X221679Y80715D01*
X221710Y80640D01*
X221738Y80563D01*
X221762Y80485D01*
X221783Y80405D01*
X221800Y80325D01*
X221813Y80245D01*
X221822Y80163D01*
X221828Y80082D01*
X221830Y80000D01*
X221828Y79918D01*
X221822Y79837D01*
X221813Y79755D01*
X221800Y79675D01*
X221783Y79595D01*
X221762Y79515D01*
X221738Y79437D01*
X221710Y79360D01*
X221679Y79285D01*
X221644Y79211D01*
X221606Y79138D01*
X221565Y79068D01*
X221520Y78999D01*
X221472Y78933D01*
X221422Y78869D01*
X221368Y78807D01*
X221311Y78748D01*
X219433Y76870D01*
X215775Y73212D02*
X210141Y78846D01*
X207011Y75716D02*
X215775Y73212D01*
X212645Y70082D02*
X207011Y75716D01*
X203352Y72058D02*
X208987Y66423D01*
X207422Y64858D01*
X207421Y64859D02*
X207353Y64794D01*
X207282Y64732D01*
X207209Y64673D01*
X207134Y64617D01*
X207056Y64565D01*
X206976Y64515D01*
X206894Y64470D01*
X206810Y64427D01*
X206725Y64389D01*
X206637Y64354D01*
X206549Y64322D01*
X206459Y64295D01*
X206368Y64271D01*
X206276Y64251D01*
X206184Y64235D01*
X206090Y64223D01*
X205997Y64215D01*
X205903Y64211D01*
X205809Y64211D01*
X205715Y64215D01*
X205622Y64223D01*
X205528Y64235D01*
X205436Y64251D01*
X205344Y64271D01*
X205253Y64295D01*
X205163Y64322D01*
X205075Y64354D01*
X204987Y64389D01*
X204902Y64427D01*
X204818Y64470D01*
X204736Y64515D01*
X204656Y64565D01*
X204578Y64617D01*
X204503Y64673D01*
X204430Y64732D01*
X204359Y64794D01*
X204291Y64859D01*
X204291Y64858D02*
X201787Y67363D01*
X201724Y67429D01*
X201663Y67498D01*
X201606Y67569D01*
X201551Y67642D01*
X201499Y67718D01*
X201451Y67795D01*
X201406Y67875D01*
X201364Y67956D01*
X201325Y68039D01*
X201290Y68124D01*
X201259Y68209D01*
X201231Y68297D01*
X201207Y68385D01*
X201186Y68474D01*
X201169Y68564D01*
X201156Y68654D01*
X201147Y68745D01*
X201141Y68837D01*
X201139Y68928D01*
X201141Y69019D01*
X201147Y69111D01*
X201156Y69202D01*
X201169Y69292D01*
X201186Y69382D01*
X201207Y69471D01*
X201231Y69559D01*
X201259Y69647D01*
X201290Y69732D01*
X201325Y69817D01*
X201364Y69900D01*
X201406Y69981D01*
X201451Y70061D01*
X201499Y70138D01*
X201551Y70214D01*
X201606Y70287D01*
X201663Y70358D01*
X201724Y70427D01*
X201787Y70493D01*
X203352Y72058D01*
X220998Y106565D02*
X218494Y109069D01*
X220998Y106565D02*
X221062Y106498D01*
X221123Y106428D01*
X221182Y106356D01*
X221237Y106282D01*
X221289Y106205D01*
X221338Y106127D01*
X221383Y106046D01*
X221425Y105963D01*
X221464Y105879D01*
X221499Y105793D01*
X221530Y105706D01*
X221558Y105617D01*
X221582Y105528D01*
X221602Y105437D01*
X221619Y105346D01*
X221631Y105254D01*
X221640Y105162D01*
X221645Y105070D01*
X221646Y104977D01*
X221643Y104884D01*
X221636Y104792D01*
X221626Y104700D01*
X221611Y104608D01*
X221593Y104517D01*
X221571Y104427D01*
X221545Y104338D01*
X221515Y104250D01*
X221482Y104164D01*
X221445Y104079D01*
X221405Y103995D01*
X221361Y103914D01*
X221314Y103834D01*
X221263Y103756D01*
X221210Y103681D01*
X221153Y103607D01*
X221093Y103537D01*
X221030Y103468D01*
X220965Y103403D01*
X220896Y103340D01*
X220826Y103280D01*
X220752Y103223D01*
X220677Y103170D01*
X220599Y103119D01*
X220519Y103072D01*
X220438Y103028D01*
X220354Y102988D01*
X220269Y102951D01*
X220183Y102918D01*
X220095Y102888D01*
X220006Y102862D01*
X219916Y102840D01*
X219825Y102822D01*
X219733Y102807D01*
X219641Y102797D01*
X219549Y102790D01*
X219456Y102787D01*
X219363Y102788D01*
X219271Y102793D01*
X219179Y102802D01*
X219087Y102814D01*
X218996Y102831D01*
X218905Y102851D01*
X218816Y102875D01*
X218727Y102903D01*
X218640Y102934D01*
X218554Y102969D01*
X218470Y103008D01*
X218387Y103050D01*
X218306Y103095D01*
X218228Y103144D01*
X218151Y103196D01*
X218077Y103251D01*
X218005Y103310D01*
X217935Y103371D01*
X217868Y103435D01*
X215364Y105939D01*
X215300Y106006D01*
X215239Y106076D01*
X215180Y106148D01*
X215125Y106222D01*
X215073Y106299D01*
X215024Y106377D01*
X214979Y106458D01*
X214937Y106541D01*
X214898Y106625D01*
X214863Y106711D01*
X214832Y106798D01*
X214804Y106887D01*
X214780Y106976D01*
X214760Y107067D01*
X214743Y107158D01*
X214731Y107250D01*
X214722Y107342D01*
X214717Y107434D01*
X214716Y107527D01*
X214719Y107620D01*
X214726Y107712D01*
X214736Y107804D01*
X214751Y107896D01*
X214769Y107987D01*
X214791Y108077D01*
X214817Y108166D01*
X214847Y108254D01*
X214880Y108340D01*
X214917Y108425D01*
X214957Y108509D01*
X215001Y108590D01*
X215048Y108670D01*
X215099Y108748D01*
X215152Y108823D01*
X215209Y108897D01*
X215269Y108967D01*
X215332Y109036D01*
X215397Y109101D01*
X215466Y109164D01*
X215536Y109224D01*
X215610Y109281D01*
X215685Y109334D01*
X215763Y109385D01*
X215843Y109432D01*
X215924Y109476D01*
X216008Y109516D01*
X216093Y109553D01*
X216179Y109586D01*
X216267Y109616D01*
X216356Y109642D01*
X216446Y109664D01*
X216537Y109682D01*
X216629Y109697D01*
X216721Y109707D01*
X216813Y109714D01*
X216906Y109717D01*
X216999Y109716D01*
X217091Y109711D01*
X217183Y109702D01*
X217275Y109690D01*
X217366Y109673D01*
X217457Y109653D01*
X217546Y109629D01*
X217635Y109601D01*
X217722Y109570D01*
X217808Y109535D01*
X217892Y109496D01*
X217975Y109454D01*
X218056Y109409D01*
X218134Y109360D01*
X218211Y109308D01*
X218285Y109253D01*
X218357Y109194D01*
X218427Y109133D01*
X218494Y109069D01*
X211918Y102493D02*
X215987Y98424D01*
X211918Y102493D02*
X211851Y102557D01*
X211781Y102618D01*
X211709Y102677D01*
X211635Y102732D01*
X211558Y102784D01*
X211480Y102833D01*
X211399Y102878D01*
X211316Y102920D01*
X211232Y102959D01*
X211146Y102994D01*
X211059Y103025D01*
X210970Y103053D01*
X210881Y103077D01*
X210790Y103097D01*
X210699Y103114D01*
X210607Y103126D01*
X210515Y103135D01*
X210423Y103140D01*
X210330Y103141D01*
X210237Y103138D01*
X210145Y103131D01*
X210053Y103121D01*
X209961Y103106D01*
X209870Y103088D01*
X209780Y103066D01*
X209691Y103040D01*
X209603Y103010D01*
X209517Y102977D01*
X209432Y102940D01*
X209348Y102900D01*
X209267Y102856D01*
X209187Y102809D01*
X209109Y102758D01*
X209034Y102705D01*
X208960Y102648D01*
X208890Y102588D01*
X208821Y102525D01*
X208756Y102460D01*
X208693Y102391D01*
X208633Y102321D01*
X208576Y102247D01*
X208523Y102172D01*
X208472Y102094D01*
X208425Y102014D01*
X208381Y101933D01*
X208341Y101849D01*
X208304Y101764D01*
X208271Y101678D01*
X208241Y101590D01*
X208215Y101501D01*
X208193Y101411D01*
X208175Y101320D01*
X208160Y101228D01*
X208150Y101136D01*
X208143Y101044D01*
X208140Y100951D01*
X208141Y100858D01*
X208146Y100766D01*
X208155Y100674D01*
X208167Y100582D01*
X208184Y100491D01*
X208204Y100400D01*
X208228Y100311D01*
X208256Y100222D01*
X208287Y100135D01*
X208322Y100049D01*
X208361Y99965D01*
X208403Y99882D01*
X208448Y99801D01*
X208497Y99723D01*
X208549Y99646D01*
X208604Y99572D01*
X208663Y99500D01*
X208724Y99430D01*
X208788Y99363D01*
X212857Y95294D01*
X208270Y90707D02*
X202636Y96341D01*
X209835Y92272D02*
X206705Y89142D01*
X95000Y192563D02*
X89366Y186929D01*
X95000Y192563D02*
X96565Y190998D01*
X96630Y190930D01*
X96692Y190859D01*
X96751Y190786D01*
X96807Y190711D01*
X96859Y190633D01*
X96909Y190553D01*
X96954Y190471D01*
X96997Y190387D01*
X97035Y190302D01*
X97070Y190214D01*
X97102Y190126D01*
X97129Y190036D01*
X97153Y189945D01*
X97173Y189853D01*
X97189Y189761D01*
X97201Y189667D01*
X97209Y189574D01*
X97213Y189480D01*
X97213Y189386D01*
X97209Y189292D01*
X97201Y189199D01*
X97189Y189105D01*
X97173Y189013D01*
X97153Y188921D01*
X97129Y188830D01*
X97102Y188740D01*
X97070Y188652D01*
X97035Y188564D01*
X96997Y188479D01*
X96954Y188395D01*
X96909Y188313D01*
X96859Y188233D01*
X96807Y188155D01*
X96751Y188080D01*
X96692Y188007D01*
X96630Y187936D01*
X96565Y187868D01*
X94061Y185364D01*
X93995Y185301D01*
X93926Y185240D01*
X93855Y185183D01*
X93782Y185128D01*
X93706Y185076D01*
X93629Y185028D01*
X93549Y184983D01*
X93468Y184941D01*
X93385Y184902D01*
X93300Y184867D01*
X93215Y184836D01*
X93127Y184808D01*
X93039Y184784D01*
X92950Y184763D01*
X92860Y184746D01*
X92770Y184733D01*
X92679Y184724D01*
X92587Y184718D01*
X92496Y184716D01*
X92405Y184718D01*
X92313Y184724D01*
X92222Y184733D01*
X92132Y184746D01*
X92042Y184763D01*
X91953Y184784D01*
X91865Y184808D01*
X91777Y184836D01*
X91692Y184867D01*
X91607Y184902D01*
X91524Y184941D01*
X91443Y184983D01*
X91363Y185028D01*
X91286Y185076D01*
X91210Y185128D01*
X91137Y185183D01*
X91066Y185240D01*
X90997Y185301D01*
X90931Y185364D01*
X89366Y186929D01*
X96234Y180061D02*
X101868Y185695D01*
X95608Y180687D02*
X96860Y179434D01*
X102494Y185069D02*
X101242Y186321D01*
X105606Y181956D02*
X99972Y176322D01*
X103102Y173192D02*
X105606Y181956D01*
X108737Y178826D02*
X103102Y173192D01*
X72656Y188115D02*
X67344Y188115D01*
X47656Y188115D02*
X42344Y188115D01*
X45000Y185459D02*
X45000Y190771D01*
X28016Y71984D02*
X28016Y64016D01*
X28016Y71984D02*
X30229Y71984D01*
X30322Y71982D01*
X30414Y71976D01*
X30506Y71967D01*
X30598Y71953D01*
X30689Y71936D01*
X30779Y71914D01*
X30869Y71890D01*
X30957Y71861D01*
X31044Y71829D01*
X31129Y71793D01*
X31213Y71753D01*
X31295Y71710D01*
X31375Y71664D01*
X31454Y71614D01*
X31530Y71561D01*
X31604Y71505D01*
X31675Y71446D01*
X31744Y71384D01*
X31810Y71319D01*
X31874Y71252D01*
X31934Y71182D01*
X31992Y71109D01*
X32046Y71034D01*
X32097Y70957D01*
X32146Y70878D01*
X32190Y70796D01*
X32231Y70713D01*
X32269Y70629D01*
X32303Y70542D01*
X32334Y70455D01*
X32360Y70366D01*
X32384Y70276D01*
X32403Y70186D01*
X32418Y70094D01*
X32430Y70002D01*
X32438Y69910D01*
X32442Y69817D01*
X32442Y69725D01*
X32438Y69632D01*
X32430Y69540D01*
X32418Y69448D01*
X32403Y69356D01*
X32384Y69266D01*
X32360Y69176D01*
X32334Y69087D01*
X32303Y69000D01*
X32269Y68913D01*
X32231Y68829D01*
X32190Y68746D01*
X32146Y68665D01*
X32097Y68585D01*
X32046Y68508D01*
X31992Y68433D01*
X31934Y68360D01*
X31874Y68290D01*
X31810Y68223D01*
X31744Y68158D01*
X31675Y68096D01*
X31604Y68037D01*
X31530Y67981D01*
X31454Y67928D01*
X31375Y67878D01*
X31295Y67832D01*
X31213Y67789D01*
X31129Y67749D01*
X31044Y67713D01*
X30957Y67681D01*
X30869Y67652D01*
X30779Y67628D01*
X30689Y67606D01*
X30598Y67589D01*
X30506Y67575D01*
X30414Y67566D01*
X30322Y67560D01*
X30229Y67558D01*
X30229Y67557D02*
X28016Y67557D01*
X30672Y67557D02*
X32443Y64016D01*
X47787Y46016D02*
X49557Y46016D01*
X47787Y46016D02*
X47705Y46018D01*
X47624Y46024D01*
X47542Y46033D01*
X47462Y46046D01*
X47382Y46063D01*
X47302Y46084D01*
X47224Y46108D01*
X47147Y46136D01*
X47072Y46167D01*
X46998Y46202D01*
X46925Y46240D01*
X46855Y46281D01*
X46786Y46326D01*
X46720Y46374D01*
X46656Y46425D01*
X46594Y46478D01*
X46535Y46535D01*
X46478Y46594D01*
X46425Y46656D01*
X46374Y46720D01*
X46326Y46786D01*
X46281Y46855D01*
X46240Y46925D01*
X46202Y46998D01*
X46167Y47072D01*
X46136Y47147D01*
X46108Y47224D01*
X46084Y47302D01*
X46063Y47382D01*
X46046Y47462D01*
X46033Y47542D01*
X46024Y47624D01*
X46018Y47705D01*
X46016Y47787D01*
X46016Y52213D01*
X46018Y52295D01*
X46024Y52376D01*
X46033Y52458D01*
X46046Y52538D01*
X46063Y52618D01*
X46084Y52698D01*
X46108Y52776D01*
X46136Y52853D01*
X46167Y52928D01*
X46202Y53002D01*
X46240Y53075D01*
X46281Y53145D01*
X46326Y53214D01*
X46374Y53280D01*
X46425Y53344D01*
X46478Y53406D01*
X46535Y53465D01*
X46594Y53522D01*
X46656Y53575D01*
X46720Y53626D01*
X46786Y53674D01*
X46855Y53719D01*
X46925Y53760D01*
X46998Y53798D01*
X47072Y53833D01*
X47147Y53864D01*
X47224Y53892D01*
X47302Y53916D01*
X47382Y53937D01*
X47462Y53954D01*
X47542Y53967D01*
X47624Y53976D01*
X47705Y53982D01*
X47787Y53984D01*
X49557Y53984D01*
X64016Y35984D02*
X64016Y28016D01*
X64016Y35984D02*
X66229Y35984D01*
X66320Y35982D01*
X66412Y35976D01*
X66503Y35967D01*
X66593Y35954D01*
X66683Y35937D01*
X66772Y35916D01*
X66860Y35892D01*
X66948Y35864D01*
X67033Y35833D01*
X67118Y35798D01*
X67201Y35759D01*
X67282Y35717D01*
X67362Y35672D01*
X67439Y35624D01*
X67515Y35572D01*
X67588Y35517D01*
X67659Y35460D01*
X67728Y35399D01*
X67794Y35336D01*
X67857Y35270D01*
X67918Y35201D01*
X67975Y35130D01*
X68030Y35057D01*
X68082Y34981D01*
X68130Y34904D01*
X68175Y34824D01*
X68217Y34743D01*
X68256Y34660D01*
X68291Y34575D01*
X68322Y34490D01*
X68350Y34402D01*
X68374Y34314D01*
X68395Y34225D01*
X68412Y34135D01*
X68425Y34045D01*
X68434Y33954D01*
X68440Y33862D01*
X68442Y33771D01*
X68443Y33771D02*
X68443Y30229D01*
X68442Y30229D02*
X68440Y30138D01*
X68434Y30046D01*
X68425Y29955D01*
X68412Y29865D01*
X68395Y29775D01*
X68374Y29686D01*
X68350Y29598D01*
X68322Y29510D01*
X68291Y29425D01*
X68256Y29340D01*
X68217Y29257D01*
X68175Y29176D01*
X68130Y29096D01*
X68082Y29019D01*
X68030Y28943D01*
X67975Y28870D01*
X67918Y28799D01*
X67857Y28730D01*
X67794Y28664D01*
X67728Y28601D01*
X67659Y28540D01*
X67588Y28483D01*
X67515Y28428D01*
X67439Y28376D01*
X67362Y28328D01*
X67282Y28283D01*
X67201Y28241D01*
X67118Y28202D01*
X67033Y28167D01*
X66948Y28136D01*
X66860Y28108D01*
X66772Y28084D01*
X66683Y28063D01*
X66593Y28046D01*
X66503Y28033D01*
X66412Y28024D01*
X66320Y28018D01*
X66229Y28016D01*
X64016Y28016D01*
D101*
X173000Y114000D02*
X173000Y164000D01*
D102*
X151350Y37700D02*
X157700Y31350D01*
X151350Y37700D02*
X138650Y37700D01*
X132300Y31350D01*
X132300Y18650D01*
X138650Y12300D01*
X151350Y12300D01*
X157700Y18650D01*
X157700Y31350D01*
X112700Y31350D02*
X106350Y37700D01*
X93650Y37700D01*
X87300Y31350D01*
X87300Y18650D01*
X93650Y12300D01*
X106350Y12300D01*
X112700Y18650D01*
X112700Y31350D01*
D100*
X207700Y31250D02*
X207700Y18750D01*
X199000Y18750D02*
X181000Y18750D01*
X181000Y31250D02*
X199000Y31250D01*
D103*
X185825Y15745D02*
X185825Y10919D01*
X185825Y15745D02*
X187165Y15745D01*
X187235Y15743D01*
X187305Y15738D01*
X187375Y15728D01*
X187444Y15716D01*
X187512Y15699D01*
X187579Y15679D01*
X187646Y15656D01*
X187710Y15629D01*
X187774Y15599D01*
X187836Y15565D01*
X187895Y15529D01*
X187953Y15489D01*
X188009Y15446D01*
X188062Y15401D01*
X188113Y15352D01*
X188162Y15301D01*
X188207Y15248D01*
X188250Y15192D01*
X188290Y15134D01*
X188326Y15075D01*
X188360Y15013D01*
X188390Y14949D01*
X188417Y14885D01*
X188440Y14818D01*
X188460Y14751D01*
X188477Y14683D01*
X188489Y14614D01*
X188499Y14544D01*
X188504Y14474D01*
X188506Y14404D01*
X188506Y12260D01*
X188504Y12190D01*
X188499Y12120D01*
X188489Y12050D01*
X188477Y11981D01*
X188460Y11913D01*
X188440Y11846D01*
X188417Y11779D01*
X188390Y11715D01*
X188360Y11651D01*
X188326Y11589D01*
X188290Y11530D01*
X188250Y11472D01*
X188207Y11416D01*
X188162Y11363D01*
X188113Y11312D01*
X188062Y11263D01*
X188009Y11218D01*
X187953Y11175D01*
X187895Y11135D01*
X187835Y11099D01*
X187774Y11065D01*
X187710Y11035D01*
X187646Y11008D01*
X187579Y10985D01*
X187512Y10965D01*
X187444Y10948D01*
X187375Y10936D01*
X187305Y10926D01*
X187235Y10921D01*
X187165Y10919D01*
X185825Y10919D01*
X191494Y14673D02*
X192835Y15745D01*
X192835Y10919D01*
X194175Y10919D02*
X191494Y10919D01*
D100*
X58763Y114125D02*
X49238Y114125D01*
D103*
X54000Y128413D02*
X58763Y128413D01*
X54000Y128413D02*
X49238Y128413D01*
X54000Y128413D02*
X57175Y131588D01*
X54000Y128413D02*
X50825Y131588D01*
D104*
X149217Y90673D02*
X160673Y79217D01*
X180783Y99327D02*
X169327Y110783D01*
X174419Y92964D02*
X167036Y85581D01*
X162299Y103754D02*
X162964Y104419D01*
X156246Y97701D02*
X155581Y97036D01*
X168663Y110118D02*
X169327Y110783D01*
X149882Y91337D02*
X149217Y90673D01*
X160673Y79217D02*
X161337Y79882D01*
X180118Y98663D02*
X180783Y99327D01*
D103*
X168950Y104192D02*
X168952Y104255D01*
X168958Y104317D01*
X168968Y104379D01*
X168981Y104441D01*
X168999Y104501D01*
X169020Y104560D01*
X169045Y104618D01*
X169074Y104674D01*
X169106Y104728D01*
X169141Y104780D01*
X169179Y104829D01*
X169221Y104877D01*
X169265Y104921D01*
X169313Y104963D01*
X169362Y105001D01*
X169414Y105036D01*
X169468Y105068D01*
X169524Y105097D01*
X169582Y105122D01*
X169641Y105143D01*
X169701Y105161D01*
X169763Y105174D01*
X169825Y105184D01*
X169887Y105190D01*
X169950Y105192D01*
X170013Y105190D01*
X170075Y105184D01*
X170137Y105174D01*
X170199Y105161D01*
X170259Y105143D01*
X170318Y105122D01*
X170376Y105097D01*
X170432Y105068D01*
X170486Y105036D01*
X170538Y105001D01*
X170587Y104963D01*
X170635Y104921D01*
X170679Y104877D01*
X170721Y104829D01*
X170759Y104780D01*
X170794Y104728D01*
X170826Y104674D01*
X170855Y104618D01*
X170880Y104560D01*
X170901Y104501D01*
X170919Y104441D01*
X170932Y104379D01*
X170942Y104317D01*
X170948Y104255D01*
X170950Y104192D01*
X170948Y104129D01*
X170942Y104067D01*
X170932Y104005D01*
X170919Y103943D01*
X170901Y103883D01*
X170880Y103824D01*
X170855Y103766D01*
X170826Y103710D01*
X170794Y103656D01*
X170759Y103604D01*
X170721Y103555D01*
X170679Y103507D01*
X170635Y103463D01*
X170587Y103421D01*
X170538Y103383D01*
X170486Y103348D01*
X170432Y103316D01*
X170376Y103287D01*
X170318Y103262D01*
X170259Y103241D01*
X170199Y103223D01*
X170137Y103210D01*
X170075Y103200D01*
X170013Y103194D01*
X169950Y103192D01*
X169887Y103194D01*
X169825Y103200D01*
X169763Y103210D01*
X169701Y103223D01*
X169641Y103241D01*
X169582Y103262D01*
X169524Y103287D01*
X169468Y103316D01*
X169414Y103348D01*
X169362Y103383D01*
X169313Y103421D01*
X169265Y103463D01*
X169221Y103507D01*
X169179Y103555D01*
X169141Y103604D01*
X169106Y103656D01*
X169074Y103710D01*
X169045Y103766D01*
X169020Y103824D01*
X168999Y103883D01*
X168981Y103943D01*
X168968Y104005D01*
X168958Y104067D01*
X168952Y104129D01*
X168950Y104192D01*
D102*
X101750Y194800D02*
X108100Y201150D01*
X101750Y194800D02*
X89050Y194800D01*
X82700Y201150D01*
X57300Y201150D02*
X50950Y194800D01*
X76350Y194800D02*
X82700Y201150D01*
X76350Y194800D02*
X63650Y194800D01*
X57300Y201150D01*
X31900Y201150D02*
X31900Y221470D01*
X31900Y201150D02*
X38250Y194800D01*
X50950Y194800D01*
X57300Y201150D02*
X57300Y221470D01*
X82700Y221470D02*
X82700Y201150D01*
X108100Y201150D02*
X108100Y221470D01*
X224800Y48250D02*
X231150Y41900D01*
X224800Y48250D02*
X224800Y60950D01*
X231150Y67300D01*
X231150Y92700D02*
X224800Y99050D01*
X224800Y73650D02*
X231150Y67300D01*
X224800Y73650D02*
X224800Y86350D01*
X231150Y92700D01*
X231150Y118100D02*
X251470Y118100D01*
X231150Y118100D02*
X224800Y111750D01*
X224800Y99050D01*
X231150Y92700D02*
X251470Y92700D01*
X251470Y67300D02*
X231150Y67300D01*
X231150Y41900D02*
X251470Y41900D01*
X21530Y66431D02*
X12549Y66431D01*
X21530Y66431D02*
X30510Y57451D01*
X30510Y48470D01*
X48470Y30510D02*
X57451Y30510D01*
X39490Y48470D02*
X30510Y48470D01*
X39490Y48470D02*
X48470Y39490D01*
X48470Y30510D01*
X66431Y12549D02*
X52062Y-1819D01*
X66431Y12549D02*
X66431Y21530D01*
X57451Y30510D01*
X48470Y30510D02*
X34102Y16141D01*
X16141Y34102D02*
X30510Y48470D01*
X12549Y66431D02*
X-1819Y52062D01*
D103*
X107972Y66298D02*
X111384Y62885D01*
X107972Y66298D02*
X108920Y67246D01*
X108972Y67295D01*
X109026Y67342D01*
X109083Y67385D01*
X109142Y67425D01*
X109203Y67462D01*
X109266Y67496D01*
X109330Y67526D01*
X109396Y67553D01*
X109464Y67577D01*
X109532Y67596D01*
X109602Y67612D01*
X109672Y67625D01*
X109743Y67633D01*
X109814Y67638D01*
X109886Y67639D01*
X109957Y67636D01*
X110028Y67629D01*
X110099Y67619D01*
X110169Y67605D01*
X110238Y67587D01*
X110306Y67565D01*
X110373Y67540D01*
X110438Y67512D01*
X110502Y67480D01*
X110564Y67444D01*
X110624Y67406D01*
X110682Y67364D01*
X110738Y67319D01*
X110791Y67271D01*
X110841Y67221D01*
X110889Y67168D01*
X110934Y67112D01*
X110976Y67054D01*
X111014Y66994D01*
X111050Y66932D01*
X111082Y66868D01*
X111110Y66803D01*
X111135Y66736D01*
X111157Y66668D01*
X111175Y66599D01*
X111189Y66529D01*
X111199Y66458D01*
X111206Y66387D01*
X111209Y66316D01*
X111208Y66244D01*
X111203Y66173D01*
X111195Y66102D01*
X111182Y66032D01*
X111166Y65962D01*
X111147Y65894D01*
X111123Y65826D01*
X111096Y65760D01*
X111066Y65696D01*
X111032Y65633D01*
X110995Y65572D01*
X110955Y65513D01*
X110912Y65456D01*
X110865Y65402D01*
X110816Y65350D01*
X109868Y64402D01*
X111005Y65539D02*
X113280Y64781D01*
X112565Y69374D02*
X112754Y71080D01*
X116167Y67667D01*
X115219Y66720D02*
X117115Y68615D01*
X91799Y78782D02*
X91989Y80488D01*
X95401Y77076D01*
X94453Y76128D02*
X96349Y78024D01*
X96627Y81714D02*
X96543Y81800D01*
X96462Y81889D01*
X96384Y81980D01*
X96308Y82074D01*
X96235Y82169D01*
X96166Y82267D01*
X96099Y82367D01*
X96035Y82469D01*
X95974Y82573D01*
X95917Y82679D01*
X95863Y82786D01*
X95812Y82895D01*
X95764Y83006D01*
X95720Y83117D01*
X95679Y83230D01*
X95654Y83286D01*
X95632Y83344D01*
X95614Y83402D01*
X95599Y83462D01*
X95588Y83523D01*
X95581Y83584D01*
X95578Y83645D01*
X95579Y83707D01*
X95583Y83768D01*
X95591Y83829D01*
X95603Y83889D01*
X95619Y83949D01*
X95639Y84007D01*
X95662Y84064D01*
X95688Y84120D01*
X95718Y84174D01*
X95751Y84226D01*
X95787Y84275D01*
X95826Y84323D01*
X95869Y84367D01*
X95913Y84410D01*
X95961Y84449D01*
X96010Y84485D01*
X96062Y84518D01*
X96116Y84548D01*
X96172Y84574D01*
X96229Y84597D01*
X96287Y84617D01*
X96347Y84633D01*
X96407Y84645D01*
X96468Y84653D01*
X96529Y84657D01*
X96591Y84658D01*
X96652Y84655D01*
X96713Y84648D01*
X96774Y84637D01*
X96834Y84622D01*
X96892Y84604D01*
X96950Y84582D01*
X97006Y84557D01*
X97005Y84557D02*
X97119Y84516D01*
X97230Y84472D01*
X97341Y84424D01*
X97450Y84373D01*
X97557Y84319D01*
X97663Y84262D01*
X97767Y84201D01*
X97869Y84137D01*
X97969Y84070D01*
X98067Y84001D01*
X98162Y83928D01*
X98256Y83852D01*
X98347Y83774D01*
X98436Y83693D01*
X98522Y83609D01*
X96627Y81714D02*
X96713Y81630D01*
X96802Y81549D01*
X96893Y81471D01*
X96987Y81395D01*
X97082Y81322D01*
X97180Y81253D01*
X97280Y81186D01*
X97382Y81122D01*
X97486Y81061D01*
X97592Y81004D01*
X97699Y80950D01*
X97808Y80899D01*
X97919Y80851D01*
X98030Y80807D01*
X98143Y80766D01*
X98199Y80741D01*
X98257Y80719D01*
X98315Y80701D01*
X98375Y80686D01*
X98436Y80675D01*
X98497Y80668D01*
X98558Y80665D01*
X98620Y80666D01*
X98681Y80670D01*
X98742Y80679D01*
X98802Y80690D01*
X98862Y80706D01*
X98920Y80726D01*
X98977Y80749D01*
X99033Y80775D01*
X99087Y80805D01*
X99139Y80838D01*
X99188Y80874D01*
X99236Y80913D01*
X99280Y80956D01*
X99470Y82093D02*
X99429Y82206D01*
X99385Y82317D01*
X99337Y82428D01*
X99286Y82537D01*
X99232Y82644D01*
X99175Y82750D01*
X99114Y82854D01*
X99050Y82956D01*
X98983Y83056D01*
X98914Y83154D01*
X98841Y83249D01*
X98765Y83343D01*
X98687Y83434D01*
X98606Y83523D01*
X98522Y83609D01*
X99470Y82093D02*
X99495Y82037D01*
X99517Y81979D01*
X99535Y81921D01*
X99550Y81861D01*
X99561Y81800D01*
X99568Y81739D01*
X99571Y81678D01*
X99570Y81616D01*
X99566Y81555D01*
X99557Y81494D01*
X99546Y81434D01*
X99530Y81374D01*
X99510Y81316D01*
X99487Y81259D01*
X99461Y81203D01*
X99431Y81149D01*
X99398Y81097D01*
X99362Y81048D01*
X99323Y81000D01*
X99280Y80956D01*
X97764Y80955D02*
X97385Y84368D01*
X98943Y87442D02*
X102355Y84030D01*
X101218Y85167D02*
X101597Y87821D01*
X101407Y86305D02*
X103872Y85546D01*
X76384Y62885D02*
X72972Y66298D01*
X73920Y67246D01*
X73972Y67295D01*
X74026Y67342D01*
X74083Y67385D01*
X74142Y67425D01*
X74203Y67462D01*
X74266Y67496D01*
X74330Y67526D01*
X74396Y67553D01*
X74464Y67577D01*
X74532Y67596D01*
X74602Y67612D01*
X74672Y67625D01*
X74743Y67633D01*
X74814Y67638D01*
X74886Y67639D01*
X74957Y67636D01*
X75028Y67629D01*
X75099Y67619D01*
X75169Y67605D01*
X75238Y67587D01*
X75306Y67565D01*
X75373Y67540D01*
X75438Y67512D01*
X75502Y67480D01*
X75564Y67444D01*
X75624Y67406D01*
X75682Y67364D01*
X75738Y67319D01*
X75791Y67271D01*
X75841Y67221D01*
X75889Y67168D01*
X75934Y67112D01*
X75976Y67054D01*
X76014Y66994D01*
X76050Y66932D01*
X76082Y66868D01*
X76110Y66803D01*
X76135Y66736D01*
X76157Y66668D01*
X76175Y66599D01*
X76189Y66529D01*
X76199Y66458D01*
X76206Y66387D01*
X76209Y66316D01*
X76208Y66244D01*
X76203Y66173D01*
X76195Y66102D01*
X76182Y66032D01*
X76166Y65962D01*
X76147Y65894D01*
X76123Y65826D01*
X76096Y65760D01*
X76066Y65696D01*
X76032Y65633D01*
X75995Y65572D01*
X75955Y65513D01*
X75912Y65456D01*
X75865Y65402D01*
X75816Y65350D01*
X74868Y64402D01*
X76005Y65539D02*
X78280Y64781D01*
X77849Y71176D02*
X77898Y71222D01*
X77949Y71266D01*
X78004Y71306D01*
X78060Y71344D01*
X78118Y71378D01*
X78178Y71409D01*
X78240Y71437D01*
X78303Y71461D01*
X78368Y71482D01*
X78433Y71499D01*
X78500Y71512D01*
X78567Y71521D01*
X78634Y71527D01*
X78702Y71529D01*
X78770Y71527D01*
X78837Y71521D01*
X78904Y71512D01*
X78971Y71499D01*
X79036Y71482D01*
X79101Y71461D01*
X79164Y71437D01*
X79226Y71409D01*
X79286Y71378D01*
X79344Y71344D01*
X79400Y71306D01*
X79455Y71266D01*
X79506Y71222D01*
X79555Y71175D01*
X77849Y71175D02*
X77795Y71119D01*
X77744Y71059D01*
X77697Y70998D01*
X77652Y70934D01*
X77611Y70868D01*
X77573Y70800D01*
X77538Y70730D01*
X77507Y70658D01*
X77480Y70585D01*
X77456Y70511D01*
X77437Y70435D01*
X77421Y70359D01*
X77408Y70282D01*
X77400Y70205D01*
X77396Y70127D01*
X77395Y70049D01*
X77399Y69971D01*
X77406Y69893D01*
X77417Y69816D01*
X77433Y69740D01*
X77452Y69664D01*
X77474Y69589D01*
X77501Y69516D01*
X77531Y69444D01*
X77565Y69374D01*
X79935Y70227D02*
X79934Y70297D01*
X79930Y70366D01*
X79923Y70436D01*
X79911Y70505D01*
X79896Y70573D01*
X79877Y70640D01*
X79855Y70707D01*
X79829Y70772D01*
X79799Y70835D01*
X79767Y70897D01*
X79730Y70957D01*
X79691Y71015D01*
X79649Y71070D01*
X79604Y71124D01*
X79555Y71174D01*
X79934Y70227D02*
X80219Y66720D01*
X82115Y68615D01*
X58577Y76768D02*
X56681Y80181D01*
X58577Y76768D02*
X60473Y78664D01*
X59146Y78853D02*
X60663Y77337D01*
X60182Y82922D02*
X59802Y83302D01*
X61698Y85197D01*
X64163Y80837D01*
X65388Y85475D02*
X65304Y85561D01*
X65223Y85650D01*
X65145Y85741D01*
X65069Y85835D01*
X64996Y85930D01*
X64927Y86028D01*
X64860Y86128D01*
X64796Y86230D01*
X64735Y86334D01*
X64678Y86440D01*
X64624Y86547D01*
X64573Y86656D01*
X64525Y86767D01*
X64481Y86878D01*
X64440Y86991D01*
X64415Y87047D01*
X64393Y87105D01*
X64375Y87163D01*
X64360Y87223D01*
X64349Y87284D01*
X64342Y87345D01*
X64339Y87406D01*
X64340Y87468D01*
X64344Y87529D01*
X64352Y87590D01*
X64364Y87650D01*
X64380Y87710D01*
X64400Y87768D01*
X64423Y87825D01*
X64449Y87881D01*
X64479Y87935D01*
X64512Y87987D01*
X64548Y88036D01*
X64587Y88084D01*
X64630Y88128D01*
X64674Y88171D01*
X64722Y88210D01*
X64771Y88246D01*
X64823Y88279D01*
X64877Y88309D01*
X64933Y88335D01*
X64990Y88358D01*
X65048Y88378D01*
X65108Y88394D01*
X65168Y88406D01*
X65229Y88414D01*
X65290Y88418D01*
X65352Y88419D01*
X65413Y88416D01*
X65474Y88409D01*
X65535Y88398D01*
X65595Y88383D01*
X65653Y88365D01*
X65711Y88343D01*
X65767Y88318D01*
X65881Y88277D01*
X65992Y88233D01*
X66103Y88185D01*
X66212Y88134D01*
X66319Y88080D01*
X66425Y88023D01*
X66529Y87962D01*
X66631Y87898D01*
X66731Y87831D01*
X66829Y87762D01*
X66924Y87689D01*
X67018Y87613D01*
X67109Y87535D01*
X67198Y87454D01*
X67284Y87370D01*
X65388Y85475D02*
X65474Y85391D01*
X65563Y85310D01*
X65654Y85232D01*
X65748Y85156D01*
X65843Y85083D01*
X65941Y85014D01*
X66041Y84947D01*
X66143Y84883D01*
X66247Y84822D01*
X66353Y84765D01*
X66460Y84711D01*
X66569Y84660D01*
X66680Y84612D01*
X66791Y84568D01*
X66904Y84527D01*
X66905Y84527D02*
X66961Y84502D01*
X67019Y84480D01*
X67077Y84462D01*
X67137Y84447D01*
X67198Y84436D01*
X67259Y84429D01*
X67320Y84426D01*
X67382Y84427D01*
X67443Y84431D01*
X67504Y84440D01*
X67564Y84451D01*
X67624Y84467D01*
X67682Y84487D01*
X67739Y84510D01*
X67795Y84536D01*
X67849Y84566D01*
X67901Y84599D01*
X67950Y84635D01*
X67998Y84674D01*
X68042Y84717D01*
X68232Y85854D02*
X68191Y85967D01*
X68147Y86078D01*
X68099Y86189D01*
X68048Y86298D01*
X67994Y86405D01*
X67937Y86511D01*
X67876Y86615D01*
X67812Y86717D01*
X67745Y86817D01*
X67676Y86915D01*
X67603Y87010D01*
X67527Y87104D01*
X67449Y87195D01*
X67368Y87284D01*
X67284Y87370D01*
X68232Y85854D02*
X68257Y85798D01*
X68279Y85740D01*
X68297Y85682D01*
X68312Y85622D01*
X68323Y85561D01*
X68330Y85500D01*
X68333Y85439D01*
X68332Y85377D01*
X68328Y85316D01*
X68319Y85255D01*
X68308Y85195D01*
X68292Y85135D01*
X68272Y85077D01*
X68249Y85020D01*
X68223Y84964D01*
X68193Y84910D01*
X68160Y84858D01*
X68124Y84809D01*
X68085Y84761D01*
X68042Y84717D01*
X66525Y84716D02*
X66146Y88129D01*
M02*
